<svg xmlns="http://www.w3.org/2000/svg" xmlns:xlink="http://www.w3.org/1999/xlink" contentStyleType="text/css" data-diagram-type="SEQUENCE" height="457px" preserveAspectRatio="none" style="width:785px;height:457px;background:#FFFFFF;" version="1.1" viewBox="0 0 785 457" width="785px" zoomAndPan="magnify"><?plantuml 1.2026.6?><defs/><g><g class="title" data-source-line="3"><text fill="#000000" font-family="sans-serif" font-size="14" font-weight="700" lengthAdjust="spacing" textLength="193.6473" x="292.2229" y="29.9659">GET /api/workspace/v1/me/</text></g><g class="participant-lifeline" data-entity-uid="part1" data-qualified-name="Client" data-source-line="4" id="part1-lifeline"><g><title>The client .</title><rect fill="#000000" fill-opacity="0.00000" height="247.9421" width="8" x="39.4548" y="124.1358"/><line style="stroke:#181818;stroke-width:0.5;stroke-dasharray:5,5;" x1="43" x2="43" y1="124.1358" y2="372.0779"/></g></g><g class="participant-lifeline" data-entity-uid="part2" data-qualified-name="API" data-source-line="5" id="part2-lifeline"><g><title>Controller is RestAlchemy</title><rect fill="#000000" fill-opacity="0.00000" height="247.9421" width="8" x="179.0074" y="124.1358"/><line style="stroke:#181818;stroke-width:0.5;stroke-dasharray:5,5;" x1="182.9097" x2="182.9097" y1="124.1358" y2="372.0779"/></g></g><g class="participant-lifeline" data-entity-uid="part3" data-qualified-name="IAM" data-source-line="6" id="part3-lifeline"><g><title>The introspection IAM</title><rect fill="#000000" fill-opacity="0.00000" height="247.9421" width="8" x="389.8565" y="124.1358"/><line style="stroke:#181818;stroke-width:0.5;stroke-dasharray:5,5;" x1="393.2108" x2="393.2108" y1="124.1358" y2="372.0779"/></g></g><g class="participant-lifeline" data-entity-uid="part4" data-qualified-name="DB" data-source-line="7" id="part4-lifeline"><g><title>User name Workspace - What . PostgreSQL</title><rect fill="#000000" fill-opacity="0.00000" height="247.9421" width="8" x="624.7977" y="124.1358"/><line style="stroke:#181818;stroke-width:0.5;stroke-dasharray:5,5;" x1="628.5022" x2="628.5022" y1="124.1358" y2="372.0779"/></g></g><g class="participant participant-head" data-entity-uid="part1" data-qualified-name="Client" data-source-line="4" id="part1-head"><text fill="#000000" font-family="sans-serif" font-size="14" lengthAdjust="spacing" textLength="70.9097" x="5" y="120.0339">The client .</text><ellipse cx="43.4548" cy="53.5679" fill="#E2E2F0" rx="8" ry="8" style="stroke:#181818;stroke-width:0.5;"/><path d="M43.4548,61.5679 L43.4548,88.5679 M30.4548,69.5679 L56.4548,69.5679 M43.4548,88.5679 L30.4548,103.5679 M43.4548,88.5679 L56.4548,103.5679" fill="none" style="stroke:#181818;stroke-width:0.5;"/></g><g class="participant participant-tail" data-entity-uid="part1" data-qualified-name="Client" data-source-line="4" id="part1-tail"><text fill="#000000" font-family="sans-serif" font-size="14" lengthAdjust="spacing" textLength="70.9097" x="5" y="386.0439">The client .</text><ellipse cx="43.4548" cy="398.6459" fill="#E2E2F0" rx="8" ry="8" style="stroke:#181818;stroke-width:0.5;"/><path d="M43.4548,406.6459 L43.4548,433.6459 M30.4548,414.6459 L56.4548,414.6459 M43.4548,433.6459 L30.4548,448.6459 M43.4548,433.6459 L56.4548,448.6459" fill="none" style="stroke:#181818;stroke-width:0.5;"/></g><g class="participant participant-head" data-entity-uid="part2" data-qualified-name="API" data-source-line="5" id="part2-head"><rect fill="#E2E2F0" height="33.0679" rx="2.5" ry="2.5" style="stroke:#181818;stroke-width:0.5;" width="182.1953" x="91.9097" y="90.0679"/><text fill="#000000" font-family="sans-serif" font-size="14" lengthAdjust="spacing" textLength="168.1953" x="98.9097" y="112.0339">Controller is RestAlchemy</text></g><g class="participant participant-tail" data-entity-uid="part2" data-qualified-name="API" data-source-line="5" id="part2-tail"><rect fill="#E2E2F0" height="33.0679" rx="2.5" ry="2.5" style="stroke:#181818;stroke-width:0.5;" width="182.1953" x="91.9097" y="371.0779"/><text fill="#000000" font-family="sans-serif" font-size="14" lengthAdjust="spacing" textLength="168.1953" x="98.9097" y="393.0439">Controller is RestAlchemy</text></g><g class="participant participant-head" data-entity-uid="part3" data-qualified-name="IAM" data-source-line="6" id="part3-head"><rect fill="#E2E2F0" height="33.0679" rx="2.5" ry="2.5" style="stroke:#181818;stroke-width:0.5;" width="159.2914" x="314.2108" y="90.0679"/><text fill="#000000" font-family="sans-serif" font-size="14" lengthAdjust="spacing" textLength="145.2914" x="321.2108" y="112.0339">The introspection IAM</text></g><g class="participant participant-tail" data-entity-uid="part3" data-qualified-name="IAM" data-source-line="6" id="part3-tail"><rect fill="#E2E2F0" height="33.0679" rx="2.5" ry="2.5" style="stroke:#181818;stroke-width:0.5;" width="159.2914" x="314.2108" y="371.0779"/><text fill="#000000" font-family="sans-serif" font-size="14" lengthAdjust="spacing" textLength="145.2914" x="321.2108" y="393.0439">The introspection IAM</text></g><g class="participant participant-head" data-entity-uid="part4" data-qualified-name="DB" data-source-line="7" id="part4-head"><text fill="#000000" font-family="sans-serif" font-size="14" lengthAdjust="spacing" textLength="284.5909" x="483.5022" y="120.0339">User name Workspace - What ? PostgreSQL</text><path d="M610.7977,69.0679 C610.7977,59.0679 628.7977,59.0679 628.7977,59.0679 C628.7977,59.0679 646.7977,59.0679 646.7977,69.0679 L646.7977,95.0679 C646.7977,105.0679 628.7977,105.0679 628.7977,105.0679 C628.7977,105.0679 610.7977,105.0679 610.7977,95.0679 L610.7977,69.0679" fill="#E2E2F0" style="stroke:#181818;stroke-width:0.5;"/><path d="M610.7977,69.0679 C610.7977,79.0679 628.7977,79.0679 628.7977,79.0679 C628.7977,79.0679 646.7977,79.0679 646.7977,69.0679" fill="none" style="stroke:#181818;stroke-width:0.5;"/></g><g class="participant participant-tail" data-entity-uid="part4" data-qualified-name="DB" data-source-line="7" id="part4-tail"><text fill="#000000" font-family="sans-serif" font-size="14" lengthAdjust="spacing" textLength="284.5909" x="483.5022" y="386.0439">User name Workspace - What ? PostgreSQL</text><path d="M610.7977,400.1459 C610.7977,390.1459 628.7977,390.1459 628.7977,390.1459 C628.7977,390.1459 646.7977,390.1459 646.7977,400.1459 L646.7977,426.1459 C646.7977,436.1459 628.7977,436.1459 628.7977,436.1459 C628.7977,436.1459 610.7977,436.1459 610.7977,426.1459 L610.7977,400.1459" fill="#E2E2F0" style="stroke:#181818;stroke-width:0.5;"/><path d="M610.7977,400.1459 C610.7977,410.1459 628.7977,410.1459 628.7977,410.1459 C628.7977,410.1459 646.7977,410.1459 646.7977,400.1459" fill="none" style="stroke:#181818;stroke-width:0.5;"/></g><g class="message" data-entity-1="part1" data-entity-2="part2" data-source-line="8" id="msg1"><polygon fill="#181818" points="171.0074,153.8419,181.0074,157.8419,171.0074,161.8419,175.0074,157.8419" style="stroke:#181818;stroke-width:1;stroke-linejoin:miter;stroke-miterlimit:10;"/><line style="stroke:#181818;stroke-width:1;" x1="43.4548" x2="177.0074" y1="157.8419" y2="157.8419"/><text fill="#000000" font-family="sans-serif" font-size="13" lengthAdjust="spacing" textLength="56.459" x="50.4548" y="152.0328">GET /me/</text></g><g class="message" data-entity-1="part2" data-entity-2="part3" data-source-line="9" id="msg2"><polygon fill="#181818" points="381.8565,185.5479,391.8565,189.5479,381.8565,193.5479,385.8565,189.5479" style="stroke:#181818;stroke-width:1;stroke-linejoin:miter;stroke-miterlimit:10;"/><line style="stroke:#181818;stroke-width:1;" x1="183.0074" x2="387.8565" y1="189.5479" y2="189.5479"/><text fill="#000000" font-family="sans-serif" font-size="13" lengthAdjust="spacing" textLength="152.0612" x="190.0074" y="183.7389">Read the current identity</text></g><g class="message" data-entity-1="part3" data-entity-2="part2" data-source-line="10" id="msg3"><polygon fill="#181818" points="194.0074,217.2539,184.0074,221.2539,194.0074,225.2539,190.0074,221.2539" style="stroke:#181818;stroke-width:1;stroke-linejoin:miter;stroke-miterlimit:10;"/><line style="stroke:#181818;stroke-width:1;stroke-dasharray:2,2;" x1="188.0074" x2="392.8565" y1="221.2539" y2="221.2539"/><text fill="#000000" font-family="sans-serif" font-size="13" lengthAdjust="spacing" textLength="186.8491" x="200.0074" y="215.4449">UUID + username/name/email</text></g><g class="message" data-entity-1="part2" data-entity-2="part4" data-source-line="11" id="msg4"><polygon fill="#181818" points="616.7977,248.9599,626.7977,252.9599,616.7977,256.9599,620.7977,252.9599" style="stroke:#181818;stroke-width:1;stroke-linejoin:miter;stroke-miterlimit:10;"/><line style="stroke:#181818;stroke-width:1;" x1="183.0074" x2="622.7977" y1="252.9599" y2="252.9599"/><text fill="#000000" font-family="sans-serif" font-size="13" lengthAdjust="spacing" textLength="174.0701" x="190.0074" y="247.1509">Update and read user canon</text></g><g class="message" data-entity-1="part4" data-entity-2="part2" data-source-line="12" id="msg5"><polygon fill="#181818" points="194.0074,280.6659,184.0074,284.6659,194.0074,288.6659,190.0074,284.6659" style="stroke:#181818;stroke-width:1;stroke-linejoin:miter;stroke-miterlimit:10;"/><line style="stroke:#181818;stroke-width:1;stroke-dasharray:2,2;" x1="188.0074" x2="627.7977" y1="284.6659" y2="284.6659"/><text fill="#000000" font-family="sans-serif" font-size="13" lengthAdjust="spacing" textLength="52.416" x="200.0074" y="278.8569">user line</text></g><path d="M188,297.6659 L188,324.6659 L397,324.6659 L397,307.6659 L387,297.6659 L188,297.6659" fill="#FEFFDD" style="stroke:#181818;stroke-width:0.5;"/><path d="M387,297.6659 L387,307.6659 L397,307.6659 L387,297.6659" fill="#FEFFDD" style="stroke:#181818;stroke-width:0.5;"/><text fill="#000000" font-family="sans-serif" font-size="13" lengthAdjust="spacing" textLength="188.3962" x="194" y="316.5629">without outbox / tasks / events</text><g class="message" data-entity-1="part2" data-entity-2="part1" data-source-line="14" id="msg6"><polygon fill="#181818" points="54.4548,350.0779,44.4548,354.0779,54.4548,358.0779,50.4548,354.0779" style="stroke:#181818;stroke-width:1;stroke-linejoin:miter;stroke-miterlimit:10;"/><line style="stroke:#181818;stroke-width:1;stroke-dasharray:2,2;" x1="48.4548" x2="182.0074" y1="354.0779" y2="354.0779"/><text fill="#000000" font-family="sans-serif" font-size="13" lengthAdjust="spacing" textLength="112.7231" x="60.4548" y="348.2689">200 JSON The user</text></g><?plantuml-src LP5FJyCm3CNl-HIFNT4eSDm1j564XlWpsAQTJMlMQ6bI9Tx6lZrEgmbnI2B7ppy_9nTTf6rBS7GAUq5gMSYJIJlhEuhK8ZLKXwFrMtoJIsp4YcCyFQvGK6UBOuYxr575nU6cQBamL4c86AqQHkKiUy7L29Jmq0T6eM8hsv4cHW_1ImpESOHD-EGaKrSrt9xwYkbY_b-UcJPNf8uhiS5ZFdtjfNgQceI-A356wwH0JorZStQ7CJOD2Uwn24csaPSVBtrbEJE3CuplSiV9C5gUHADygUo9UgCQacVQnvZLjjRToibe6kDpxNezBt69lHh8_Oj-uvQiEzFAcQewzSeWNoDcRfQZ8X-yAMT_iFxQMS_61vL7ksq4uNj87gqq-SDqVOKV511AkwGd7zHO6jefQHXkWjlhQpmltz-G7p6JVm40?></g></svg>