<svg xmlns="http://www.w3.org/2000/svg" xmlns:xlink="http://www.w3.org/1999/xlink" contentStyleType="text/css" data-diagram-type="SEQUENCE" height="744px" preserveAspectRatio="none" style="width:2216px;height:744px;background:#FFFFFF;" version="1.1" viewBox="0 0 2216 744" width="2216px" zoomAndPan="magnify"><?plantuml 1.2026.6?><defs/><g><g class="title" data-source-line="3"><text fill="#000000" font-family="sans-serif" font-size="14" font-weight="700" lengthAdjust="spacing" textLength="417.0864" x="896.2531" y="29.9659">DELETE /api/workspace/v1/messenger/folders/{folder_uuid}</text></g><rect fill="none" height="83.118" style="stroke:#000000;stroke-width:1.5;" width="1349.0859" x="477.2509" y="490.6759"/><g class="participant-lifeline" data-entity-uid="part1" data-qualified-name="Client" data-source-line="4" id="part1-lifeline"><g><title>......</title><rect fill="#000000" fill-opacity="0.00000" height="525.0023" width="8" x="28.6119" y="129.2038"/><line style="stroke:#181818;stroke-width:0.5;stroke-dasharray:5,5;" x1="32" x2="32" y1="129.2038" y2="654.206"/></g></g><g class="participant-lifeline" data-entity-uid="part2" data-qualified-name="API" data-source-line="5" id="part2-lifeline"><g><title>.......... RestAlchemy</title><rect fill="#000000" fill-opacity="0.00000" height="525.0023" width="8" x="160.135" y="129.2038"/><line style="stroke:#181818;stroke-width:0.5;stroke-dasharray:5,5;" x1="163.8683" x2="163.8683" y1="129.2038" y2="654.206"/></g></g><g class="participant-lifeline" data-entity-uid="part3" data-qualified-name="DB" data-source-line="6" id="part3-lifeline"><g><title>PostgreSQL</title><rect fill="#000000" fill-opacity="0.00000" height="525.0023" width="8" x="599.7064" y="129.2038"/><line style="stroke:#181818;stroke-width:0.5;stroke-dasharray:5,5;" x1="603.2509" x2="603.2509" y1="129.2038" y2="654.206"/></g></g><g class="participant-lifeline" data-entity-uid="part4" data-qualified-name="OUT" data-source-line="7" id="part4-lifeline"><g><title>.............. outbox</title><rect fill="#000000" fill-opacity="0.00000" height="525.0023" width="8" x="820.9806" y="129.2038"/><line style="stroke:#181818;stroke-width:0.5;stroke-dasharray:5,5;" x1="824.1619" x2="824.1619" y1="129.2038" y2="654.206"/></g></g><g class="participant-lifeline" data-entity-uid="part5" data-qualified-name="TASK" data-source-line="8" id="part5-lifeline"><g><title>.............. ...... ........</title><rect fill="#000000" fill-opacity="0.00000" height="525.0023" width="8" x="1260.5648" y="129.2038"/><line style="stroke:#181818;stroke-width:0.5;stroke-dasharray:5,5;" x1="1263.9213" x2="1263.9213" y1="129.2038" y2="654.206"/></g></g><g class="participant-lifeline" data-entity-uid="part6" data-qualified-name="WORKER" data-source-line="9" id="part6-lifeline"><g><title>... ........</title><rect fill="#000000" fill-opacity="0.00000" height="525.0023" width="8" x="1508.841" y="129.2038"/><line style="stroke:#181818;stroke-width:0.5;stroke-dasharray:5,5;" x1="1512.4932" x2="1512.4932" y1="129.2038" y2="654.206"/></g></g><g class="participant-lifeline" data-entity-uid="part7" data-qualified-name="EVENT" data-source-line="10" id="part7-lifeline"><g><title>......... ......... .......</title><rect fill="#000000" fill-opacity="0.00000" height="525.0023" width="8" x="1697.4212" y="129.2038"/><line style="stroke:#181818;stroke-width:0.5;stroke-dasharray:5,5;" x1="1700.5056" x2="1700.5056" y1="129.2038" y2="654.206"/></g></g><g class="participant-lifeline" data-entity-uid="part8" data-qualified-name="DISP" data-source-line="11" id="part8-lifeline"><g><title>......... WebSocket</title><rect fill="#000000" fill-opacity="0.00000" height="525.0023" width="8" x="1946.9714" y="129.2038"/><line style="stroke:#181818;stroke-width:0.5;stroke-dasharray:5,5;" x1="1950.8477" x2="1950.8477" y1="129.2038" y2="654.206"/></g></g><g class="participant-lifeline" data-entity-uid="part9" data-qualified-name="WS" data-source-line="12" id="part9-lifeline"><g><title>........... ......</title><rect fill="#000000" fill-opacity="0.00000" height="525.0023" width="8" x="2120.3438" y="129.2038"/><line style="stroke:#181818;stroke-width:0.5;stroke-dasharray:5,5;" x1="2124.0951" x2="2124.0951" y1="129.2038" y2="654.206"/></g></g><g class="participant participant-head" data-entity-uid="part1" data-qualified-name="Client" data-source-line="4" id="part1-head"><text fill="#000000" font-family="sans-serif" font-size="14" lengthAdjust="spacing" textLength="49.2238" x="5" y="125.1018">&#1050;&#1083;&#1080;&#1077;&#1085;&#1090;</text><ellipse cx="32.6119" cy="58.6358" fill="#E2E2F0" rx="8" ry="8" style="stroke:#181818;stroke-width:0.5;"/><path d="M32.6119,66.6358 L32.6119,93.6358 M19.6119,74.6358 L45.6119,74.6358 M32.6119,93.6358 L19.6119,108.6358 M32.6119,93.6358 L45.6119,108.6358" fill="none" style="stroke:#181818;stroke-width:0.5;"/></g><g class="participant participant-tail" data-entity-uid="part1" data-qualified-name="Client" data-source-line="4" id="part1-tail"><text fill="#000000" font-family="sans-serif" font-size="14" lengthAdjust="spacing" textLength="49.2238" x="5" y="668.172">&#1050;&#1083;&#1080;&#1077;&#1085;&#1090;</text><ellipse cx="32.6119" cy="680.7739" fill="#E2E2F0" rx="8" ry="8" style="stroke:#181818;stroke-width:0.5;"/><path d="M32.6119,688.7739 L32.6119,715.7739 M19.6119,696.7739 L45.6119,696.7739 M32.6119,715.7739 L19.6119,730.7739 M32.6119,715.7739 L45.6119,730.7739" fill="none" style="stroke:#181818;stroke-width:0.5;"/></g><g class="participant participant-head" data-entity-uid="part2" data-qualified-name="API" data-source-line="5" id="part2-head"><rect fill="#E2E2F0" height="33.0679" rx="2.5" ry="2.5" style="stroke:#181818;stroke-width:0.5;" width="184.5333" x="71.8683" y="95.1358"/><text fill="#000000" font-family="sans-serif" font-size="14" lengthAdjust="spacing" textLength="170.5333" x="78.8683" y="117.1018">&#1050;&#1086;&#1085;&#1090;&#1088;&#1086;&#1083;&#1083;&#1077;&#1088; RestAlchemy</text></g><g class="participant participant-tail" data-entity-uid="part2" data-qualified-name="API" data-source-line="5" id="part2-tail"><rect fill="#E2E2F0" height="33.0679" rx="2.5" ry="2.5" style="stroke:#181818;stroke-width:0.5;" width="184.5333" x="71.8683" y="653.206"/><text fill="#000000" font-family="sans-serif" font-size="14" lengthAdjust="spacing" textLength="170.5333" x="78.8683" y="675.172">&#1050;&#1086;&#1085;&#1090;&#1088;&#1086;&#1083;&#1083;&#1077;&#1088; RestAlchemy</text></g><g class="participant participant-head" data-entity-uid="part3" data-qualified-name="DB" data-source-line="6" id="part3-head"><text fill="#000000" font-family="sans-serif" font-size="14" lengthAdjust="spacing" textLength="76.9437" x="562.2345" y="106.0339">PostgreSQL</text><text fill="#000000" font-family="sans-serif" font-size="14" lengthAdjust="spacing" textLength="226.9111" x="487.2509" y="125.1018">FOLDER + USER_FOLDER_BINDING</text><path d="M585.7064,55.0679 C585.7064,45.0679 603.7064,45.0679 603.7064,45.0679 C603.7064,45.0679 621.7064,45.0679 621.7064,55.0679 L621.7064,81.0679 C621.7064,91.0679 603.7064,91.0679 603.7064,91.0679 C603.7064,91.0679 585.7064,91.0679 585.7064,81.0679 L585.7064,55.0679" fill="#E2E2F0" style="stroke:#181818;stroke-width:0.5;"/><path d="M585.7064,55.0679 C585.7064,65.0679 603.7064,65.0679 603.7064,65.0679 C603.7064,65.0679 621.7064,65.0679 621.7064,55.0679" fill="none" style="stroke:#181818;stroke-width:0.5;"/></g><g class="participant participant-tail" data-entity-uid="part3" data-qualified-name="DB" data-source-line="6" id="part3-tail"><text fill="#000000" font-family="sans-serif" font-size="14" lengthAdjust="spacing" textLength="76.9437" x="562.2345" y="668.172">PostgreSQL</text><text fill="#000000" font-family="sans-serif" font-size="14" lengthAdjust="spacing" textLength="226.9111" x="487.2509" y="687.2399">FOLDER + USER_FOLDER_BINDING</text><path d="M585.7064,701.3419 C585.7064,691.3419 603.7064,691.3419 603.7064,691.3419 C603.7064,691.3419 621.7064,691.3419 621.7064,701.3419 L621.7064,727.3419 C621.7064,737.3419 603.7064,737.3419 603.7064,737.3419 C603.7064,737.3419 585.7064,737.3419 585.7064,727.3419 L585.7064,701.3419" fill="#E2E2F0" style="stroke:#181818;stroke-width:0.5;"/><path d="M585.7064,701.3419 C585.7064,711.3419 603.7064,711.3419 603.7064,711.3419 C603.7064,711.3419 621.7064,711.3419 621.7064,701.3419" fill="none" style="stroke:#181818;stroke-width:0.5;"/></g><g class="participant participant-head" data-entity-uid="part4" data-qualified-name="OUT" data-source-line="7" id="part4-head"><path d="M735.1619,100.1358 L914.7993,100.1358 C919.7993,100.1358 919.7993,114.6698 919.7993,114.6698 C919.7993,114.6698 919.7993,129.2038 914.7993,129.2038 L735.1619,129.2038 C730.1619,129.2038 730.1619,114.6698 730.1619,114.6698 C730.1619,114.6698 730.1619,100.1358 735.1619,100.1358" fill="#E2E2F0" style="stroke:#181818;stroke-width:0.5;"/><path d="M914.7993,100.1358 C909.7993,100.1358 909.7993,114.6698 909.7993,114.6698 C909.7993,129.2038 914.7993,129.2038 914.7993,129.2038" fill="none" style="stroke:#181818;stroke-width:0.5;"/><text fill="#000000" font-family="sans-serif" font-size="14" lengthAdjust="spacing" textLength="169.6374" x="735.1619" y="120.1018">&#1058;&#1088;&#1072;&#1085;&#1079;&#1072;&#1082;&#1094;&#1080;&#1086;&#1085;&#1085;&#1099;&#1081; outbox</text></g><g class="participant participant-tail" data-entity-uid="part4" data-qualified-name="OUT" data-source-line="7" id="part4-tail"><path d="M735.1619,653.206 L914.7993,653.206 C919.7993,653.206 919.7993,667.74 919.7993,667.74 C919.7993,667.74 919.7993,682.2739 914.7993,682.2739 L735.1619,682.2739 C730.1619,682.2739 730.1619,667.74 730.1619,667.74 C730.1619,667.74 730.1619,653.206 735.1619,653.206" fill="#E2E2F0" style="stroke:#181818;stroke-width:0.5;"/><path d="M914.7993,653.206 C909.7993,653.206 909.7993,667.74 909.7993,667.74 C909.7993,682.2739 914.7993,682.2739 914.7993,682.2739" fill="none" style="stroke:#181818;stroke-width:0.5;"/><text fill="#000000" font-family="sans-serif" font-size="14" lengthAdjust="spacing" textLength="169.6374" x="735.1619" y="673.172">&#1058;&#1088;&#1072;&#1085;&#1079;&#1072;&#1082;&#1094;&#1080;&#1086;&#1085;&#1085;&#1099;&#1081; outbox</text></g><g class="participant participant-head" data-entity-uid="part5" data-qualified-name="TASK" data-source-line="8" id="part5-head"><path d="M1139.9213,100.1358 L1389.2084,100.1358 C1394.2084,100.1358 1394.2084,114.6698 1394.2084,114.6698 C1394.2084,114.6698 1394.2084,129.2038 1389.2084,129.2038 L1139.9213,129.2038 C1134.9213,129.2038 1134.9213,114.6698 1134.9213,114.6698 C1134.9213,114.6698 1134.9213,100.1358 1139.9213,100.1358" fill="#E2E2F0" style="stroke:#181818;stroke-width:0.5;"/><path d="M1389.2084,100.1358 C1384.2084,100.1358 1384.2084,114.6698 1384.2084,114.6698 C1384.2084,129.2038 1389.2084,129.2038 1389.2084,129.2038" fill="none" style="stroke:#181818;stroke-width:0.5;"/><text fill="#000000" font-family="sans-serif" font-size="14" lengthAdjust="spacing" textLength="239.2871" x="1139.9213" y="120.1018">&#1058;&#1080;&#1087;&#1080;&#1079;&#1080;&#1088;&#1086;&#1074;&#1072;&#1085;&#1085;&#1072;&#1103; &#1079;&#1072;&#1076;&#1072;&#1095;&#1072; &#1087;&#1088;&#1086;&#1077;&#1082;&#1094;&#1080;&#1080;</text></g><g class="participant participant-tail" data-entity-uid="part5" data-qualified-name="TASK" data-source-line="8" id="part5-tail"><path d="M1139.9213,653.206 L1389.2084,653.206 C1394.2084,653.206 1394.2084,667.74 1394.2084,667.74 C1394.2084,667.74 1394.2084,682.2739 1389.2084,682.2739 L1139.9213,682.2739 C1134.9213,682.2739 1134.9213,667.74 1134.9213,667.74 C1134.9213,667.74 1134.9213,653.206 1139.9213,653.206" fill="#E2E2F0" style="stroke:#181818;stroke-width:0.5;"/><path d="M1389.2084,653.206 C1384.2084,653.206 1384.2084,667.74 1384.2084,667.74 C1384.2084,682.2739 1389.2084,682.2739 1389.2084,682.2739" fill="none" style="stroke:#181818;stroke-width:0.5;"/><text fill="#000000" font-family="sans-serif" font-size="14" lengthAdjust="spacing" textLength="239.2871" x="1139.9213" y="673.172">&#1058;&#1080;&#1087;&#1080;&#1079;&#1080;&#1088;&#1086;&#1074;&#1072;&#1085;&#1085;&#1072;&#1103; &#1079;&#1072;&#1076;&#1072;&#1095;&#1072; &#1087;&#1088;&#1086;&#1077;&#1082;&#1094;&#1080;&#1080;</text></g><g class="participant participant-head" data-entity-uid="part6" data-qualified-name="WORKER" data-source-line="9" id="part6-head"><rect fill="#E2E2F0" height="33.0679" rx="2.5" ry="2.5" style="stroke:#181818;stroke-width:0.5;" width="108.6956" x="1458.4932" y="95.1358"/><text fill="#000000" font-family="sans-serif" font-size="14" lengthAdjust="spacing" textLength="94.6956" x="1465.4932" y="117.1018">&#1055;&#1091;&#1083; &#1074;&#1086;&#1088;&#1082;&#1077;&#1088;&#1086;&#1074;</text></g><g class="participant participant-tail" data-entity-uid="part6" data-qualified-name="WORKER" data-source-line="9" id="part6-tail"><rect fill="#E2E2F0" height="33.0679" rx="2.5" ry="2.5" style="stroke:#181818;stroke-width:0.5;" width="108.6956" x="1458.4932" y="653.206"/><text fill="#000000" font-family="sans-serif" font-size="14" lengthAdjust="spacing" textLength="94.6956" x="1465.4932" y="675.172">&#1055;&#1091;&#1083; &#1074;&#1086;&#1088;&#1082;&#1077;&#1088;&#1086;&#1074;</text></g><g class="participant participant-head" data-entity-uid="part7" data-qualified-name="EVENT" data-source-line="10" id="part7-head"><text fill="#000000" font-family="sans-serif" font-size="14" lengthAdjust="spacing" textLength="223.8311" x="1586.5056" y="125.1018">&#1061;&#1088;&#1072;&#1085;&#1080;&#1083;&#1080;&#1097;&#1077; &#1087;&#1091;&#1073;&#1083;&#1080;&#1095;&#1085;&#1099;&#1093; &#1089;&#1086;&#1073;&#1099;&#1090;&#1080;&#1081;</text><path d="M1683.4212,74.1358 C1683.4212,64.1358 1701.4212,64.1358 1701.4212,64.1358 C1701.4212,64.1358 1719.4212,64.1358 1719.4212,74.1358 L1719.4212,100.1358 C1719.4212,110.1358 1701.4212,110.1358 1701.4212,110.1358 C1701.4212,110.1358 1683.4212,110.1358 1683.4212,100.1358 L1683.4212,74.1358" fill="#E2E2F0" style="stroke:#181818;stroke-width:0.5;"/><path d="M1683.4212,74.1358 C1683.4212,84.1358 1701.4212,84.1358 1701.4212,84.1358 C1701.4212,84.1358 1719.4212,84.1358 1719.4212,74.1358" fill="none" style="stroke:#181818;stroke-width:0.5;"/></g><g class="participant participant-tail" data-entity-uid="part7" data-qualified-name="EVENT" data-source-line="10" id="part7-tail"><text fill="#000000" font-family="sans-serif" font-size="14" lengthAdjust="spacing" textLength="223.8311" x="1586.5056" y="668.172">&#1061;&#1088;&#1072;&#1085;&#1080;&#1083;&#1080;&#1097;&#1077; &#1087;&#1091;&#1073;&#1083;&#1080;&#1095;&#1085;&#1099;&#1093; &#1089;&#1086;&#1073;&#1099;&#1090;&#1080;&#1081;</text><path d="M1683.4212,682.2739 C1683.4212,672.2739 1701.4212,672.2739 1701.4212,672.2739 C1701.4212,672.2739 1719.4212,672.2739 1719.4212,682.2739 L1719.4212,708.2739 C1719.4212,718.2739 1701.4212,718.2739 1701.4212,718.2739 C1701.4212,718.2739 1683.4212,718.2739 1683.4212,708.2739 L1683.4212,682.2739" fill="#E2E2F0" style="stroke:#181818;stroke-width:0.5;"/><path d="M1683.4212,682.2739 C1683.4212,692.2739 1701.4212,692.2739 1701.4212,692.2739 C1701.4212,692.2739 1719.4212,692.2739 1719.4212,682.2739" fill="none" style="stroke:#181818;stroke-width:0.5;"/></g><g class="participant participant-head" data-entity-uid="part8" data-qualified-name="DISP" data-source-line="11" id="part8-head"><rect fill="#E2E2F0" height="33.0679" rx="2.5" ry="2.5" style="stroke:#181818;stroke-width:0.5;" width="164.2474" x="1868.8477" y="95.1358"/><text fill="#000000" font-family="sans-serif" font-size="14" lengthAdjust="spacing" textLength="150.2474" x="1875.8477" y="117.1018">&#1044;&#1080;&#1089;&#1087;&#1077;&#1090;&#1095;&#1077;&#1088; WebSocket</text></g><g class="participant participant-tail" data-entity-uid="part8" data-qualified-name="DISP" data-source-line="11" id="part8-tail"><rect fill="#E2E2F0" height="33.0679" rx="2.5" ry="2.5" style="stroke:#181818;stroke-width:0.5;" width="164.2474" x="1868.8477" y="653.206"/><text fill="#000000" font-family="sans-serif" font-size="14" lengthAdjust="spacing" textLength="150.2474" x="1875.8477" y="675.172">&#1044;&#1080;&#1089;&#1087;&#1077;&#1090;&#1095;&#1077;&#1088; WebSocket</text></g><g class="participant participant-head" data-entity-uid="part9" data-qualified-name="WS" data-source-line="12" id="part9-head"><rect fill="#E2E2F0" height="33.0679" rx="2.5" ry="2.5" style="stroke:#181818;stroke-width:0.5;" width="162.4974" x="2043.0951" y="95.1358"/><text fill="#000000" font-family="sans-serif" font-size="14" lengthAdjust="spacing" textLength="148.4974" x="2050.0951" y="117.1018">&#1055;&#1086;&#1076;&#1087;&#1080;&#1089;&#1072;&#1085;&#1085;&#1099;&#1081; &#1082;&#1083;&#1080;&#1077;&#1085;&#1090;</text></g><g class="participant participant-tail" data-entity-uid="part9" data-qualified-name="WS" data-source-line="12" id="part9-tail"><rect fill="#E2E2F0" height="33.0679" rx="2.5" ry="2.5" style="stroke:#181818;stroke-width:0.5;" width="162.4974" x="2043.0951" y="653.206"/><text fill="#000000" font-family="sans-serif" font-size="14" lengthAdjust="spacing" textLength="148.4974" x="2050.0951" y="675.172">&#1055;&#1086;&#1076;&#1087;&#1080;&#1089;&#1072;&#1085;&#1085;&#1099;&#1081; &#1082;&#1083;&#1080;&#1077;&#1085;&#1090;</text></g><g class="message" data-entity-1="part1" data-entity-2="part2" data-source-line="13" id="msg1"><polygon fill="#181818" points="152.135,158.9098,162.135,162.9098,152.135,166.9098,156.135,162.9098" style="stroke:#181818;stroke-width:1;stroke-linejoin:miter;stroke-miterlimit:10;"/><line style="stroke:#181818;stroke-width:1;" x1="32.6119" x2="158.135" y1="162.9098" y2="162.9098"/><text fill="#000000" font-family="sans-serif" font-size="13" lengthAdjust="spacing" textLength="87.3471" x="39.6119" y="157.1008">DELETE &#1087;&#1072;&#1087;&#1082;&#1080;</text></g><path d="M169,175.9098 L169,238.9098 L746,238.9098 L746,185.9098 L736,175.9098 L169,175.9098" fill="#FEFFDD" style="stroke:#181818;stroke-width:0.5;"/><path d="M736,175.9098 L736,185.9098 L746,185.9098 L736,175.9098" fill="#FEFFDD" style="stroke:#181818;stroke-width:0.5;"/><text fill="#000000" font-family="sans-serif" font-size="13" lengthAdjust="spacing" textLength="421.8504" x="175" y="194.8068">&#1057;&#1080;&#1089;&#1090;&#1077;&#1084;&#1085;&#1072;&#1103; USER_FOLDER_BINDING &#1101;&#1090;&#1080;&#1084; &#1084;&#1072;&#1088;&#1096;&#1088;&#1091;&#1090;&#1086;&#1084; &#1085;&#1077; &#1091;&#1076;&#1072;&#1083;&#1103;&#1077;&#1090;&#1089;&#1103;.</text><text fill="#000000" font-family="sans-serif" font-size="13" lengthAdjust="spacing" textLength="556.6604" x="175" y="212.5128">&#1055;&#1088;&#1086;&#1077;&#1082;&#1094;&#1080;&#1103;: &#1072;&#1082;&#1090;&#1080;&#1074;&#1085;&#1072;&#1103; USER_STREAM_BINDING + &#1082;&#1072;&#1085;&#1086;&#1085;&#1080;&#1095;&#1077;&#1089;&#1082;&#1072;&#1103; STREAM.is_archived = false.</text><text fill="#000000" font-family="sans-serif" font-size="13" lengthAdjust="spacing" textLength="515.9055" x="175" y="230.2188">All chats = &#1074;&#1089;&#1077;; Personal = STREAM.private = true; Channels = STREAM.private = false.</text><g class="message" data-entity-1="part2" data-entity-2="part3" data-source-line="19" id="msg2"><polygon fill="#181818" points="591.7064,263.7338,601.7064,267.7338,591.7064,271.7338,595.7064,267.7338" style="stroke:#181818;stroke-width:1;stroke-linejoin:miter;stroke-miterlimit:10;"/><line style="stroke:#181818;stroke-width:1;" x1="164.135" x2="597.7064" y1="267.7338" y2="267.7338"/><text fill="#000000" font-family="sans-serif" font-size="13" lengthAdjust="spacing" textLength="313.4822" x="171.135" y="261.9248">BEGIN; &#1079;&#1072;&#1073;&#1083;&#1086;&#1082;&#1080;&#1088;&#1086;&#1074;&#1072;&#1090;&#1100; &#1087;&#1072;&#1087;&#1082;&#1091; &#1074; &#1079;&#1072;&#1076;&#1072;&#1085;&#1085;&#1086;&#1081; &#1086;&#1073;&#1083;&#1072;&#1089;&#1090;&#1080;</text></g><g class="message" data-entity-1="part2" data-entity-2="part3" data-source-line="20" id="msg3"><polygon fill="#181818" points="591.7064,295.4398,601.7064,299.4398,591.7064,303.4398,595.7064,299.4398" style="stroke:#181818;stroke-width:1;stroke-linejoin:miter;stroke-miterlimit:10;"/><line style="stroke:#181818;stroke-width:1;" x1="164.135" x2="597.7064" y1="299.4398" y2="299.4398"/><text fill="#000000" font-family="sans-serif" font-size="13" lengthAdjust="spacing" textLength="415.5714" x="171.135" y="293.6308">&#1091;&#1076;&#1072;&#1083;&#1080;&#1090;&#1100; &#1087;&#1088;&#1080;&#1074;&#1103;&#1079;&#1082;&#1091;/&#1101;&#1083;&#1077;&#1084;&#1077;&#1085;&#1090;&#1099; + FOLDER &#1095;&#1077;&#1088;&#1077;&#1079; &#1078;&#1080;&#1079;&#1085;&#1077;&#1085;&#1085;&#1099;&#1081; &#1094;&#1080;&#1082;&#1083; FK</text></g><g class="message" data-entity-1="part2" data-entity-2="part4" data-source-line="21" id="msg4"><polygon fill="#181818" points="812.9806,327.1459,822.9806,331.1459,812.9806,335.1459,816.9806,331.1459" style="stroke:#181818;stroke-width:1;stroke-linejoin:miter;stroke-miterlimit:10;"/><line style="stroke:#181818;stroke-width:1;" x1="164.135" x2="818.9806" y1="331.1459" y2="331.1459"/><text fill="#000000" font-family="sans-serif" font-size="13" lengthAdjust="spacing" textLength="149.5391" x="171.135" y="325.3369">&#1076;&#1086;&#1073;&#1072;&#1074;&#1080;&#1090;&#1100; folder.deleted</text></g><g class="message" data-entity-1="part2" data-entity-2="part3" data-source-line="22" id="msg5"><polygon fill="#181818" points="591.7064,358.8519,601.7064,362.8519,591.7064,366.8519,595.7064,362.8519" style="stroke:#181818;stroke-width:1;stroke-linejoin:miter;stroke-miterlimit:10;"/><line style="stroke:#181818;stroke-width:1;" x1="164.135" x2="597.7064" y1="362.8519" y2="362.8519"/><text fill="#000000" font-family="sans-serif" font-size="13" lengthAdjust="spacing" textLength="53.5861" x="171.135" y="357.0429">COMMIT</text></g><g class="message" data-entity-1="part2" data-entity-2="part1" data-source-line="23" id="msg6"><polygon fill="#181818" points="43.6119,390.5579,33.6119,394.5579,43.6119,398.5579,39.6119,394.5579" style="stroke:#181818;stroke-width:1;stroke-linejoin:miter;stroke-miterlimit:10;"/><line style="stroke:#181818;stroke-width:1;stroke-dasharray:2,2;" x1="37.6119" x2="163.135" y1="394.5579" y2="394.5579"/><text fill="#000000" font-family="sans-serif" font-size="13" lengthAdjust="spacing" textLength="107.5231" x="49.6119" y="388.7489">204 &#1087;&#1091;&#1089;&#1090;&#1086;&#1081; &#1086;&#1090;&#1074;&#1077;&#1090;</text></g><g class="message" data-entity-1="part4" data-entity-2="part5" data-source-line="24" id="msg7"><polygon fill="#181818" points="1252.5648,422.2639,1262.5648,426.2639,1252.5648,430.2639,1256.5648,426.2639" style="stroke:#181818;stroke-width:1;stroke-linejoin:miter;stroke-miterlimit:10;"/><line style="stroke:#181818;stroke-width:1;" x1="824.9806" x2="1258.5648" y1="426.2639" y2="426.2639"/><text fill="#000000" font-family="sans-serif" font-size="13" lengthAdjust="spacing" textLength="415.5842" x="831.9806" y="420.4549">immutable folder_projection(outbox_event_uuid, scope=user-folder)</text></g><g class="message" data-entity-1="part5" data-entity-2="part6" data-source-line="25" id="msg8"><polygon fill="#181818" points="1500.841,471.6759,1510.841,475.6759,1500.841,479.6759,1504.841,475.6759" style="stroke:#181818;stroke-width:1;stroke-linejoin:miter;stroke-miterlimit:10;"/><line style="stroke:#181818;stroke-width:1;" x1="1264.5648" x2="1506.841" y1="475.6759" y2="475.6759"/><text fill="#000000" font-family="sans-serif" font-size="13" lengthAdjust="spacing" textLength="224.2762" x="1271.5648" y="452.1609">claim user-folder(project,user,folder)</text><text fill="#000000" font-family="sans-serif" font-size="13" lengthAdjust="spacing" textLength="91.1951" x="1271.5648" y="469.8669">lease + fencing</text></g><path d="M477.2509,490.6759 L705.733,490.6759 L705.733,500.382 L695.733,510.382 L477.2509,510.382 L477.2509,490.6759" fill="#EEEEEE" style="stroke:#000000;stroke-width:1.5;"/><rect fill="none" height="83.118" style="stroke:#000000;stroke-width:1.5;" width="1349.0859" x="477.2509" y="490.6759"/><text fill="#000000" font-family="sans-serif" font-size="13" font-weight="700" lengthAdjust="spacing" textLength="183.4821" x="492.2509" y="505.573">&#1086;&#1076;&#1085;&#1072; worker DB transaction</text><g class="message" data-entity-1="part6" data-entity-2="part3" data-source-line="27" id="msg9"><polygon fill="#181818" points="614.7064,530.088,604.7064,534.088,614.7064,538.088,610.7064,534.088" style="stroke:#181818;stroke-width:1;stroke-linejoin:miter;stroke-miterlimit:10;"/><line style="stroke:#181818;stroke-width:1;" x1="608.7064" x2="1511.841" y1="534.088" y2="534.088"/><text fill="#000000" font-family="sans-serif" font-size="13" lengthAdjust="spacing" textLength="219.6742" x="620.7064" y="528.279">idempotent tombstone effect guard</text></g><g class="message" data-entity-1="part6" data-entity-2="part7" data-source-line="28" id="msg10"><polygon fill="#181818" points="1689.4212,561.794,1699.4212,565.794,1689.4212,569.794,1693.4212,565.794" style="stroke:#181818;stroke-width:1;stroke-linejoin:miter;stroke-miterlimit:10;"/><line style="stroke:#181818;stroke-width:1;" x1="1512.841" x2="1695.4212" y1="565.794" y2="565.794"/><text fill="#000000" font-family="sans-serif" font-size="13" lengthAdjust="spacing" textLength="164.5801" x="1519.841" y="559.985">ready folder.deleted {uuid}</text></g><g class="message" data-entity-1="part8" data-entity-2="part7" data-source-line="30" id="msg11"><polygon fill="#181818" points="1712.4212,600.5,1702.4212,604.5,1712.4212,608.5,1708.4212,604.5" style="stroke:#181818;stroke-width:1;stroke-linejoin:miter;stroke-miterlimit:10;"/><line style="stroke:#181818;stroke-width:1;" x1="1706.4212" x2="1949.9714" y1="604.5" y2="604.5"/><text fill="#000000" font-family="sans-serif" font-size="13" lengthAdjust="spacing" textLength="225.5502" x="1718.4212" y="598.691">&#1095;&#1080;&#1090;&#1072;&#1090;&#1100;/&#1087;&#1086;&#1074;&#1090;&#1086;&#1088;&#1103;&#1090;&#1100;/&#1074;&#1086;&#1089;&#1087;&#1088;&#1086;&#1080;&#1079;&#1074;&#1086;&#1076;&#1080;&#1090;&#1100;</text></g><g class="message" data-entity-1="part8" data-entity-2="part9" data-source-line="31" id="msg12"><polygon fill="#181818" points="2112.3438,632.206,2122.3438,636.206,2112.3438,640.206,2116.3438,636.206" style="stroke:#181818;stroke-width:1;stroke-linejoin:miter;stroke-miterlimit:10;"/><line style="stroke:#181818;stroke-width:1;" x1="1950.9714" x2="2118.3438" y1="636.206" y2="636.206"/><text fill="#000000" font-family="sans-serif" font-size="13" lengthAdjust="spacing" textLength="85.9041" x="1957.9714" y="630.397">folder.deleted</text></g><?plantuml-src RLHDRnj73Btlhs1zIc77QeEUP3Y0R6q2mP-LbFeIG1ZlZgIjzoixiqwDe80Let6A9D0bfro21EXT4QnQiIFbBypyev8pArKH0c7b5Kq-ae-F_27DM2TY4BAp99SW8YvPp1nn4iGforW4eilyv6aGTw3DGi4T6SYGGzNTTPikb5WQb9ucsOb8cSTBfp-N8Yu4ZpiyAxMJqEUPA3spBwqy3_m_7UR998CLzKxTgh4QgOb-lW9Cm7OOy5Wwc5C6Nf2oM1gdAJdeS_nxYv-HFeSw5x8IUbqUdPd0oc7DyPbanqnmM3bCXEnalF7hxkFumS5krQt3AZngkFMM_TNQgkrNQ_iFJMXrotcIynp3r4VCCL0JTOtVD_e5beQPCVShzHcGb-Fa3nDnyAZvVmWwVSNdMerDWKC3C543tGU3SuMlbse0wglv_wW07XkaPgMnizJjUtsXRW5nfkX_GyqIgl4-EgZlkFM5FjK_HS5Zub7_hKQKva9zCZylgNBz5-WU8dp2r-VezzaWkR-v-ysbn6ynf8UzZ93gIqFo4Jzk9Du9bvQdMkDmkLO4lgBsCN0mPmgh_dQgHmt73XRktgT9bMV2mT01FZTgxCI9v905dQw4f6t62Q0-43AMFL9V2ag_CqJGRqndNm2z1lfSlyJd0arJCasG4sG4fw1kTTyqrzFzTK9_lpWGtI-3cJf13HUpDPfrjx8tpxPA_L6p98snOQf75dItdkk1QB7CwmQdt8TDko-KhnA6u7MP56XKGmmQRS0XhaOIin1DHN2Q1QSCgTW4cULy0xQxB8vvABxdKK3ps0UYpq7MYE7gLXcst8Ur_GshG5B3b4YU2HGvU3tdNbzWDNEf6krEQOXJ4pSm_8yNeMTi8fx5GLYa3Ccz9hIIVaCxYhCm0j2laB5Y1wsiq7uDwb-pCnDoAcHZrWAb0mzsPkbmqN0gLwQM0LPkCzfBikxpa4lkBvQsVR2tLsjQ2vgiwCfmxwTVp5wONcnp-38aCJYOWg9f4SiGH56EkuMNhRXMQPRypZqP9F4Tk_yjVegGvegjWV2Ib6_cWcTthV-F3k4GdbtLCdWX2o9OSBbJGAwHRQq8Uno7d1Pw5Teyzl3AEfqioLCmwuLI13gkFCCUKHKi5ioKX9goQMRj1pwFKXG2BffCecCXavW3RxSn7NHobldVH9WRK8QCC_ziYLDuPiyqAikXjLzmnndY5Ao6IgWV51IHYYlNjoOwNBtYsD68XwO9Cxavrb6Zl9JnFm00?></g></svg>