<svg xmlns="http://www.w3.org/2000/svg" xmlns:xlink="http://www.w3.org/1999/xlink" contentStyleType="text/css" data-diagram-type="SEQUENCE" height="488px" preserveAspectRatio="none" style="width:1483px;height:488px;background:#FFFFFF;" version="1.1" viewBox="0 0 1483 488" width="1483px" zoomAndPan="magnify"><?plantuml 1.2026.6?><defs/><g><g class="title" data-source-line="3"><text fill="#000000" font-family="sans-serif" font-size="14" font-weight="700" lengthAdjust="spacing" textLength="381.3167" x="547.5018" y="29.9659">PUT /api/workspace/v1/messenger/drafts/{draft_uuid}</text></g><g class="participant-lifeline" data-entity-uid="part1" data-qualified-name="Client" data-source-line="4" id="part1-lifeline"><g><title>......</title><rect fill="#000000" fill-opacity="0.00000" height="279.6481" width="8" x="28.6119" y="124.1358"/><line style="stroke:#181818;stroke-width:0.5;stroke-dasharray:5,5;" x1="32" x2="32" y1="124.1358" y2="403.784"/></g></g><g class="participant-lifeline" data-entity-uid="part2" data-qualified-name="API" data-source-line="5" id="part2-lifeline"><g><title>.......... RestAlchemy</title><rect fill="#000000" fill-opacity="0.00000" height="279.6481" width="8" x="229.8931" y="124.1358"/><line style="stroke:#181818;stroke-width:0.5;stroke-dasharray:5,5;" x1="233.6264" x2="233.6264" y1="124.1358" y2="403.784"/></g></g><g class="participant-lifeline" data-entity-uid="part3" data-qualified-name="DB" data-source-line="6" id="part3-lifeline"><g><title>...... ......... . PostgreSQL</title><rect fill="#000000" fill-opacity="0.00000" height="279.6481" width="8" x="556.1693" y="124.1358"/><line style="stroke:#181818;stroke-width:0.5;stroke-dasharray:5,5;" x1="559.8787" x2="559.8787" y1="124.1358" y2="403.784"/></g></g><g class="participant-lifeline" data-entity-uid="part4" data-qualified-name="OUT" data-source-line="7" id="part4-lifeline"><g><title>.......... ........ outbox</title><rect fill="#000000" fill-opacity="0.00000" height="279.6481" width="8" x="793.8515" y="124.1358"/><line style="stroke:#181818;stroke-width:0.5;stroke-dasharray:5,5;" x1="797.4599" x2="797.4599" y1="124.1358" y2="403.784"/></g></g><g class="participant-lifeline" data-entity-uid="part5" data-qualified-name="TASK" data-source-line="8" id="part5-lifeline"><g><title>delivery_snapshot_event</title><rect fill="#000000" fill-opacity="0.00000" height="279.6481" width="8" x="1161.5588" y="124.1358"/><line style="stroke:#181818;stroke-width:0.5;stroke-dasharray:5,5;" x1="1165.0192" x2="1165.0192" y1="124.1358" y2="403.784"/></g></g><g class="participant participant-head" data-entity-uid="part1" data-qualified-name="Client" data-source-line="4" id="part1-head"><text fill="#000000" font-family="sans-serif" font-size="14" lengthAdjust="spacing" textLength="49.2238" x="5" y="120.0339">&#1050;&#1083;&#1080;&#1077;&#1085;&#1090;</text><ellipse cx="32.6119" cy="53.5679" fill="#E2E2F0" rx="8" ry="8" style="stroke:#181818;stroke-width:0.5;"/><path d="M32.6119,61.5679 L32.6119,88.5679 M19.6119,69.5679 L45.6119,69.5679 M32.6119,88.5679 L19.6119,103.5679 M32.6119,88.5679 L45.6119,103.5679" fill="none" style="stroke:#181818;stroke-width:0.5;"/></g><g class="participant participant-tail" data-entity-uid="part1" data-qualified-name="Client" data-source-line="4" id="part1-tail"><text fill="#000000" font-family="sans-serif" font-size="14" lengthAdjust="spacing" textLength="49.2238" x="5" y="417.7499">&#1050;&#1083;&#1080;&#1077;&#1085;&#1090;</text><ellipse cx="32.6119" cy="430.3519" fill="#E2E2F0" rx="8" ry="8" style="stroke:#181818;stroke-width:0.5;"/><path d="M32.6119,438.3519 L32.6119,465.3519 M19.6119,446.3519 L45.6119,446.3519 M32.6119,465.3519 L19.6119,480.3519 M32.6119,465.3519 L45.6119,480.3519" fill="none" style="stroke:#181818;stroke-width:0.5;"/></g><g class="participant participant-head" data-entity-uid="part2" data-qualified-name="API" data-source-line="5" id="part2-head"><rect fill="#E2E2F0" height="33.0679" rx="2.5" ry="2.5" style="stroke:#181818;stroke-width:0.5;" width="184.5333" x="141.6264" y="90.0679"/><text fill="#000000" font-family="sans-serif" font-size="14" lengthAdjust="spacing" textLength="170.5333" x="148.6264" y="112.0339">&#1050;&#1086;&#1085;&#1090;&#1088;&#1086;&#1083;&#1083;&#1077;&#1088; RestAlchemy</text></g><g class="participant participant-tail" data-entity-uid="part2" data-qualified-name="API" data-source-line="5" id="part2-tail"><rect fill="#E2E2F0" height="33.0679" rx="2.5" ry="2.5" style="stroke:#181818;stroke-width:0.5;" width="184.5333" x="141.6264" y="402.784"/><text fill="#000000" font-family="sans-serif" font-size="14" lengthAdjust="spacing" textLength="170.5333" x="148.6264" y="424.7499">&#1050;&#1086;&#1085;&#1090;&#1088;&#1086;&#1083;&#1083;&#1077;&#1088; RestAlchemy</text></g><g class="participant participant-head" data-entity-uid="part3" data-qualified-name="DB" data-source-line="6" id="part3-head"><text fill="#000000" font-family="sans-serif" font-size="14" lengthAdjust="spacing" textLength="218.5812" x="447.8787" y="120.0339">&#1057;&#1090;&#1088;&#1086;&#1082;&#1072; &#1095;&#1077;&#1088;&#1085;&#1086;&#1074;&#1080;&#1082;&#1072; &#1074; PostgreSQL</text><path d="M542.1693,69.0679 C542.1693,59.0679 560.1693,59.0679 560.1693,59.0679 C560.1693,59.0679 578.1693,59.0679 578.1693,69.0679 L578.1693,95.0679 C578.1693,105.0679 560.1693,105.0679 560.1693,105.0679 C560.1693,105.0679 542.1693,105.0679 542.1693,95.0679 L542.1693,69.0679" fill="#E2E2F0" style="stroke:#181818;stroke-width:0.5;"/><path d="M542.1693,69.0679 C542.1693,79.0679 560.1693,79.0679 560.1693,79.0679 C560.1693,79.0679 578.1693,79.0679 578.1693,69.0679" fill="none" style="stroke:#181818;stroke-width:0.5;"/></g><g class="participant participant-tail" data-entity-uid="part3" data-qualified-name="DB" data-source-line="6" id="part3-tail"><text fill="#000000" font-family="sans-serif" font-size="14" lengthAdjust="spacing" textLength="218.5812" x="447.8787" y="417.7499">&#1057;&#1090;&#1088;&#1086;&#1082;&#1072; &#1095;&#1077;&#1088;&#1085;&#1086;&#1074;&#1080;&#1082;&#1072; &#1074; PostgreSQL</text><path d="M542.1693,431.8519 C542.1693,421.8519 560.1693,421.8519 560.1693,421.8519 C560.1693,421.8519 578.1693,421.8519 578.1693,431.8519 L578.1693,457.8519 C578.1693,467.8519 560.1693,467.8519 560.1693,467.8519 C560.1693,467.8519 542.1693,467.8519 542.1693,457.8519 L542.1693,431.8519" fill="#E2E2F0" style="stroke:#181818;stroke-width:0.5;"/><path d="M542.1693,431.8519 C542.1693,441.8519 560.1693,441.8519 560.1693,441.8519 C560.1693,441.8519 578.1693,441.8519 578.1693,431.8519" fill="none" style="stroke:#181818;stroke-width:0.5;"/></g><g class="participant participant-head" data-entity-uid="part4" data-qualified-name="OUT" data-source-line="7" id="part4-head"><path d="M687.4599,95.0679 L908.2431,95.0679 C913.2431,95.0679 913.2431,109.6019 913.2431,109.6019 C913.2431,109.6019 913.2431,124.1358 908.2431,124.1358 L687.4599,124.1358 C682.4599,124.1358 682.4599,109.6019 682.4599,109.6019 C682.4599,109.6019 682.4599,95.0679 687.4599,95.0679" fill="#E2E2F0" style="stroke:#181818;stroke-width:0.5;"/><path d="M908.2431,95.0679 C903.2431,95.0679 903.2431,109.6019 903.2431,109.6019 C903.2431,124.1358 908.2431,124.1358 908.2431,124.1358" fill="none" style="stroke:#181818;stroke-width:0.5;"/><text fill="#000000" font-family="sans-serif" font-size="14" lengthAdjust="spacing" textLength="210.7832" x="687.4599" y="115.0339">&#1042;&#1085;&#1091;&#1090;&#1088;&#1077;&#1085;&#1085;&#1080;&#1081; &#1076;&#1086;&#1084;&#1077;&#1085;&#1085;&#1099;&#1081; outbox</text></g><g class="participant participant-tail" data-entity-uid="part4" data-qualified-name="OUT" data-source-line="7" id="part4-tail"><path d="M687.4599,402.784 L908.2431,402.784 C913.2431,402.784 913.2431,417.3179 913.2431,417.3179 C913.2431,417.3179 913.2431,431.8519 908.2431,431.8519 L687.4599,431.8519 C682.4599,431.8519 682.4599,417.3179 682.4599,417.3179 C682.4599,417.3179 682.4599,402.784 687.4599,402.784" fill="#E2E2F0" style="stroke:#181818;stroke-width:0.5;"/><path d="M908.2431,402.784 C903.2431,402.784 903.2431,417.3179 903.2431,417.3179 C903.2431,431.8519 908.2431,431.8519 908.2431,431.8519" fill="none" style="stroke:#181818;stroke-width:0.5;"/><text fill="#000000" font-family="sans-serif" font-size="14" lengthAdjust="spacing" textLength="210.7832" x="687.4599" y="422.7499">&#1042;&#1085;&#1091;&#1090;&#1088;&#1077;&#1085;&#1085;&#1080;&#1081; &#1076;&#1086;&#1084;&#1077;&#1085;&#1085;&#1099;&#1081; outbox</text></g><g class="participant participant-head" data-entity-uid="part5" data-qualified-name="TASK" data-source-line="8" id="part5-head"><path d="M1068.0192,76 L1263.0985,76 C1268.0985,76 1268.0985,100.0679 1268.0985,100.0679 C1268.0985,100.0679 1268.0985,124.1358 1263.0985,124.1358 L1068.0192,124.1358 C1063.0192,124.1358 1063.0192,100.0679 1063.0192,100.0679 C1063.0192,100.0679 1063.0192,76 1068.0192,76" fill="#E2E2F0" style="stroke:#181818;stroke-width:0.5;"/><path d="M1263.0985,76 C1258.0985,76 1258.0985,100.0679 1258.0985,100.0679 C1258.0985,124.1358 1263.0985,124.1358 1263.0985,124.1358" fill="none" style="stroke:#181818;stroke-width:0.5;"/><text fill="#000000" font-family="sans-serif" font-size="14" lengthAdjust="spacing" textLength="161.4054" x="1079.8562" y="95.9659">delivery_snapshot_event</text><text fill="#000000" font-family="sans-serif" font-size="14" lengthAdjust="spacing" textLength="185.0793" x="1068.0192" y="115.0339">internal/no public derivative</text></g><g class="participant participant-tail" data-entity-uid="part5" data-qualified-name="TASK" data-source-line="8" id="part5-tail"><path d="M1068.0192,402.784 L1263.0985,402.784 C1268.0985,402.784 1268.0985,426.8519 1268.0985,426.8519 C1268.0985,426.8519 1268.0985,450.9198 1263.0985,450.9198 L1068.0192,450.9198 C1063.0192,450.9198 1063.0192,426.8519 1063.0192,426.8519 C1063.0192,426.8519 1063.0192,402.784 1068.0192,402.784" fill="#E2E2F0" style="stroke:#181818;stroke-width:0.5;"/><path d="M1263.0985,402.784 C1258.0985,402.784 1258.0985,426.8519 1258.0985,426.8519 C1258.0985,450.9198 1263.0985,450.9198 1263.0985,450.9198" fill="none" style="stroke:#181818;stroke-width:0.5;"/><text fill="#000000" font-family="sans-serif" font-size="14" lengthAdjust="spacing" textLength="161.4054" x="1079.8562" y="422.7499">delivery_snapshot_event</text><text fill="#000000" font-family="sans-serif" font-size="14" lengthAdjust="spacing" textLength="185.0793" x="1068.0192" y="441.8178">internal/no public derivative</text></g><g class="message" data-entity-1="part1" data-entity-2="part2" data-source-line="9" id="msg1"><polygon fill="#181818" points="221.8931,153.8419,231.8931,157.8419,221.8931,161.8419,225.8931,157.8419" style="stroke:#181818;stroke-width:1;stroke-linejoin:miter;stroke-miterlimit:10;"/><line style="stroke:#181818;stroke-width:1;" x1="32.6119" x2="227.8931" y1="157.8419" y2="157.8419"/><text fill="#000000" font-family="sans-serif" font-size="13" lengthAdjust="spacing" textLength="141.7131" x="39.6119" y="152.0328">PUT payload + If-Match</text></g><g class="message" data-entity-1="part2" data-entity-2="part3" data-source-line="10" id="msg2"><polygon fill="#181818" points="548.1693,185.5479,558.1693,189.5479,548.1693,193.5479,552.1693,189.5479" style="stroke:#181818;stroke-width:1;stroke-linejoin:miter;stroke-miterlimit:10;"/><line style="stroke:#181818;stroke-width:1;" x1="233.8931" x2="554.1693" y1="189.5479" y2="189.5479"/><text fill="#000000" font-family="sans-serif" font-size="13" lengthAdjust="spacing" textLength="279.7602" x="240.8931" y="183.7389">BEGIN; &#1079;&#1072;&#1073;&#1083;&#1086;&#1082;&#1080;&#1088;&#1086;&#1074;&#1072;&#1090;&#1100; &#1095;&#1077;&#1088;&#1085;&#1086;&#1074;&#1080;&#1082; &#1074;&#1083;&#1072;&#1076;&#1077;&#1083;&#1100;&#1094;&#1072;</text></g><g class="message" data-entity-1="part2" data-entity-2="part3" data-source-line="11" id="msg3"><polygon fill="#181818" points="548.1693,217.2539,558.1693,221.2539,548.1693,225.2539,552.1693,221.2539" style="stroke:#181818;stroke-width:1;stroke-linejoin:miter;stroke-miterlimit:10;"/><line style="stroke:#181818;stroke-width:1;" x1="233.8931" x2="554.1693" y1="221.2539" y2="221.2539"/><text fill="#000000" font-family="sans-serif" font-size="13" lengthAdjust="spacing" textLength="302.2762" x="240.8931" y="215.4449">&#1089;&#1088;&#1072;&#1074;&#1085;&#1080;&#1090;&#1100; &#1088;&#1077;&#1074;&#1080;&#1079;&#1080;&#1102;; &#1086;&#1073;&#1085;&#1086;&#1074;&#1080;&#1090;&#1100; payload + revision</text></g><g class="message" data-entity-1="part2" data-entity-2="part4" data-source-line="12" id="msg4"><polygon fill="#181818" points="785.8515,248.9599,795.8515,252.9599,785.8515,256.9599,789.8515,252.9599" style="stroke:#181818;stroke-width:1;stroke-linejoin:miter;stroke-miterlimit:10;"/><line style="stroke:#181818;stroke-width:1;" x1="233.8931" x2="791.8515" y1="252.9599" y2="252.9599"/><text fill="#000000" font-family="sans-serif" font-size="13" lengthAdjust="spacing" textLength="226.7982" x="240.8931" y="247.1509">&#1076;&#1086;&#1073;&#1072;&#1074;&#1080;&#1090;&#1100; &#1074;&#1085;&#1091;&#1090;&#1088;&#1077;&#1085;&#1085;&#1077;&#1077; draft.updated</text></g><g class="message" data-entity-1="part2" data-entity-2="part3" data-source-line="13" id="msg5"><polygon fill="#181818" points="548.1693,280.6659,558.1693,284.6659,548.1693,288.6659,552.1693,284.6659" style="stroke:#181818;stroke-width:1;stroke-linejoin:miter;stroke-miterlimit:10;"/><line style="stroke:#181818;stroke-width:1;" x1="233.8931" x2="554.1693" y1="284.6659" y2="284.6659"/><text fill="#000000" font-family="sans-serif" font-size="13" lengthAdjust="spacing" textLength="53.5861" x="240.8931" y="278.8569">COMMIT</text></g><g class="message" data-entity-1="part4" data-entity-2="part5" data-source-line="14" id="msg6"><polygon fill="#181818" points="1153.5588,312.3719,1163.5588,316.3719,1153.5588,320.3719,1157.5588,316.3719" style="stroke:#181818;stroke-width:1;stroke-linejoin:miter;stroke-miterlimit:10;"/><line style="stroke:#181818;stroke-width:1;" x1="797.8515" x2="1159.5588" y1="316.3719" y2="316.3719"/><text fill="#000000" font-family="sans-serif" font-size="13" lengthAdjust="spacing" textLength="343.7073" x="804.8515" y="310.5629">immutable delivery_snapshot_event(outbox_event_uuid)</text></g><path d="M1170,329.3719 L1170,356.3719 L1472,356.3719 L1472,339.3719 L1462,329.3719 L1170,329.3719" fill="#FEFFDD" style="stroke:#181818;stroke-width:0.5;"/><path d="M1462,329.3719 L1462,339.3719 L1472,339.3719 L1462,329.3719" fill="#FEFFDD" style="stroke:#181818;stroke-width:0.5;"/><text fill="#000000" font-family="sans-serif" font-size="13" lengthAdjust="spacing" textLength="281.3203" x="1176" y="348.2689">effect guard; &#1079;&#1072;&#1074;&#1077;&#1088;&#1096;&#1080;&#1090;&#1100; &#1073;&#1077;&#1079; public event row</text><g class="message" data-entity-1="part2" data-entity-2="part1" data-source-line="16" id="msg7"><polygon fill="#181818" points="43.6119,381.784,33.6119,385.784,43.6119,389.784,39.6119,385.784" style="stroke:#181818;stroke-width:1;stroke-linejoin:miter;stroke-miterlimit:10;"/><line style="stroke:#181818;stroke-width:1;stroke-dasharray:2,2;" x1="37.6119" x2="232.8931" y1="385.784" y2="385.784"/><text fill="#000000" font-family="sans-serif" font-size="13" lengthAdjust="spacing" textLength="177.2812" x="49.6119" y="379.975">200 &#1095;&#1077;&#1088;&#1085;&#1086;&#1074;&#1080;&#1082; + &#1085;&#1086;&#1074;&#1099;&#1081; ETag</text></g><?plantuml-src TLB1RjD04BtxAuQUG5LnuHWafAIjK0IXWQOtf6XYRvnLxLspkqw845812P2eE73anXyu4L42eVs6zHynkqv4KOLyMEtulJVptkojN66I8QGubOK1dJ630WDznaME2ZFG8upbX8i4XfXg5XXkKWRTqnw4cFDm8jMPpZ5YuVXUc36jcKYO2cE5GwF3r_xi5mMFtmGO6QbWntwpQxko2tjPlTi1r72GSYPCGEqCZtYEmdZGbGDKvtIkwLjKv_2SQTDCen7BffxOxBQ360qEK3EYVD_0VzaIge-EOI_fEgTchcJdq9NQ98gTF7lY-OUju6N12iVzIitUUpxDHT_A_WJxWzY_wqBrcGeKq42-yjJZqzwM6xEKZvcQzhN0N8-awRCn-NaXk31C2Kn38I4l1YcF86QAZz4GtglqcYUFWze-x3rqVXe-sHodgSGOTg4ztEkWYKO1_NEGmrO3MaUFsayVW5tQqiue6kTuvPtFRKaUBcwu9--4AydGmgwhY-g3BQyBLcy9N1A6VDTy5uDZBgdmXLfTKQEDcWVy7L2nCTTSYgqU1TEeavjvoHhljF_9Ts4NuD_6tIAd5RBu-Zm7nvrEknUGbAkua1h0iwoWJTFJ-q_Uj-ljr1V_uku4GXe6YYSZ0tAu4MB38OiC90MgU1FYtALLVThEEgFfbjkDUJbGSb8FIFFK-sh0_Vtzcq7lGdtnx-MeXyaV?></g></svg>