<svg xmlns="http://www.w3.org/2000/svg" xmlns:xlink="http://www.w3.org/1999/xlink" contentStyleType="text/css" data-diagram-type="SEQUENCE" height="685px" preserveAspectRatio="none" style="width:2844px;height:685px;background:#FFFFFF;" version="1.1" viewBox="0 0 2844 685" width="2844px" zoomAndPan="magnify"><?plantuml 1.2026.6?><defs/><g><g class="title" data-source-line="2"><text fill="#000000" font-family="sans-serif" font-size="14" font-weight="700" lengthAdjust="spacing" textLength="710.2873" x="1063.5461" y="29.9659">POST /api/workspace/v1/messenger/stream_topics/[topic_uuid]/actions/set_summary_prompt/invoke</text></g><g class="participant-lifeline" data-entity-uid="part1" data-qualified-name="Client" data-source-line="3" id="part1-lifeline"><g><title>......</title><rect fill="#000000" fill-opacity="0.00000" height="466.5902" width="8" x="28.6119" y="129.2038"/><line style="stroke:#181818;stroke-width:0.5;stroke-dasharray:5,5;" x1="32" x2="32" y1="129.2038" y2="595.794"/></g></g><g class="participant-lifeline" data-entity-uid="part2" data-qualified-name="API" data-source-line="4" id="part2-lifeline"><g><title>WorkspaceStreamTopicController</title><rect fill="#000000" fill-opacity="0.00000" height="466.5902" width="8" x="674.0642" y="129.2038"/><line style="stroke:#181818;stroke-width:0.5;stroke-dasharray:5,5;" x1="677.4296" x2="677.4296" y1="129.2038" y2="595.794"/></g></g><g class="participant-lifeline" data-entity-uid="part3" data-qualified-name="DB" data-source-line="5" id="part3-lifeline"><g><title>PostgreSQL</title><rect fill="#000000" fill-opacity="0.00000" height="466.5902" width="8" x="1151.6085" y="129.2038"/><line style="stroke:#181818;stroke-width:0.5;stroke-dasharray:5,5;" x1="1154.9209" x2="1154.9209" y1="129.2038" y2="595.794"/></g></g><g class="participant-lifeline" data-entity-uid="part4" data-qualified-name="Outbox" data-source-line="6" id="part4-lifeline"><g><title>Transactional outbox</title><rect fill="#000000" fill-opacity="0.00000" height="466.5902" width="8" x="1399.4126" y="129.2038"/><line style="stroke:#181818;stroke-width:0.5;stroke-dasharray:5,5;" x1="1403.2961" x2="1403.2961" y1="129.2038" y2="595.794"/></g></g><g class="participant-lifeline" data-entity-uid="part5" data-qualified-name="Worker" data-source-line="7" id="part5-lifeline"><g><title>....... ...........</title><rect fill="#000000" fill-opacity="0.00000" height="466.5902" width="8" x="1718.9159" y="129.2038"/><line style="stroke:#181818;stroke-width:0.5;stroke-dasharray:5,5;" x1="1722.1522" x2="1722.1522" y1="129.2038" y2="595.794"/></g></g><g class="participant-lifeline" data-entity-uid="part6" data-qualified-name="Projection" data-source-line="8" id="part6-lifeline"><g><title>....... ........</title><rect fill="#000000" fill-opacity="0.00000" height="466.5902" width="8" x="2052.6021" y="129.2038"/><line style="stroke:#181818;stroke-width:0.5;stroke-dasharray:5,5;" x1="2055.8724" x2="2055.8724" y1="129.2038" y2="595.794"/></g></g><g class="participant-lifeline" data-entity-uid="part7" data-qualified-name="Events" data-source-line="9" id="part7-lifeline"><g><title>......... ......... .......</title><rect fill="#000000" fill-opacity="0.00000" height="466.5902" width="8" x="2260.2474" y="129.2038"/><line style="stroke:#181818;stroke-width:0.5;stroke-dasharray:5,5;" x1="2263.3318" x2="2263.3318" y1="129.2038" y2="595.794"/></g></g><g class="participant-lifeline" data-entity-uid="part8" data-qualified-name="Dispatcher" data-source-line="10" id="part8-lifeline"><g><title>......... WebSocket</title><rect fill="#000000" fill-opacity="0.00000" height="466.5902" width="8" x="2497.7466" y="129.2038"/><line style="stroke:#181818;stroke-width:0.5;stroke-dasharray:5,5;" x1="2501.6228" x2="2501.6228" y1="129.2038" y2="595.794"/></g></g><g class="participant-lifeline" data-entity-uid="part9" data-qualified-name="WS" data-source-line="11" id="part9-lifeline"><g><title>...... WebSocket</title><rect fill="#000000" fill-opacity="0.00000" height="466.5902" width="8" x="2763.5338" y="129.2038"/><line style="stroke:#181818;stroke-width:0.5;stroke-dasharray:5,5;" x1="2766.688" x2="2766.688" y1="129.2038" y2="595.794"/></g></g><g class="participant participant-head" data-entity-uid="part1" data-qualified-name="Client" data-source-line="3" id="part1-head"><text fill="#000000" font-family="sans-serif" font-size="14" lengthAdjust="spacing" textLength="49.2238" x="5" y="125.1018">&#1050;&#1083;&#1080;&#1077;&#1085;&#1090;</text><ellipse cx="32.6119" cy="58.6358" fill="#E2E2F0" rx="8" ry="8" style="stroke:#181818;stroke-width:0.5;"/><path d="M32.6119,66.6358 L32.6119,93.6358 M19.6119,74.6358 L45.6119,74.6358 M32.6119,93.6358 L19.6119,108.6358 M32.6119,93.6358 L45.6119,108.6358" fill="none" style="stroke:#181818;stroke-width:0.5;"/></g><g class="participant participant-tail" data-entity-uid="part1" data-qualified-name="Client" data-source-line="3" id="part1-tail"><text fill="#000000" font-family="sans-serif" font-size="14" lengthAdjust="spacing" textLength="49.2238" x="5" y="609.7599">&#1050;&#1083;&#1080;&#1077;&#1085;&#1090;</text><ellipse cx="32.6119" cy="622.3619" fill="#E2E2F0" rx="8" ry="8" style="stroke:#181818;stroke-width:0.5;"/><path d="M32.6119,630.3619 L32.6119,657.3619 M19.6119,638.3619 L45.6119,638.3619 M32.6119,657.3619 L19.6119,672.3619 M32.6119,657.3619 L45.6119,672.3619" fill="none" style="stroke:#181818;stroke-width:0.5;"/></g><g class="participant participant-head" data-entity-uid="part2" data-qualified-name="API" data-source-line="4" id="part2-head"><rect fill="#E2E2F0" height="52.1358" rx="2.5" ry="2.5" style="stroke:#181818;stroke-width:0.5;" width="235.2692" x="560.4296" y="76.0679"/><text fill="#000000" font-family="sans-serif" font-size="14" lengthAdjust="spacing" textLength="221.2692" x="567.4296" y="98.0339">WorkspaceStreamTopicController</text><text fill="#000000" font-family="sans-serif" font-size="14" lengthAdjust="spacing" textLength="84.4197" x="635.8543" y="117.1018">RestAlchemy</text></g><g class="participant participant-tail" data-entity-uid="part2" data-qualified-name="API" data-source-line="4" id="part2-tail"><rect fill="#E2E2F0" height="52.1358" rx="2.5" ry="2.5" style="stroke:#181818;stroke-width:0.5;" width="235.2692" x="560.4296" y="594.794"/><text fill="#000000" font-family="sans-serif" font-size="14" lengthAdjust="spacing" textLength="221.2692" x="567.4296" y="616.7599">WorkspaceStreamTopicController</text><text fill="#000000" font-family="sans-serif" font-size="14" lengthAdjust="spacing" textLength="84.4197" x="635.8543" y="635.8279">RestAlchemy</text></g><g class="participant participant-head" data-entity-uid="part3" data-qualified-name="DB" data-source-line="5" id="part3-head"><text fill="#000000" font-family="sans-serif" font-size="14" lengthAdjust="spacing" textLength="76.9437" x="1114.1366" y="106.0339">PostgreSQL</text><text fill="#000000" font-family="sans-serif" font-size="14" lengthAdjust="spacing" textLength="229.3751" x="1037.9209" y="125.1018">&#1082;&#1072;&#1085;&#1086;&#1085;&#1080;&#1095;&#1077;&#1089;&#1082;&#1080;&#1077; &#1089;&#1090;&#1088;&#1086;&#1082;&#1080; + &#1087;&#1088;&#1080;&#1074;&#1103;&#1079;&#1082;&#1080;</text><path d="M1137.6085,55.0679 C1137.6085,45.0679 1155.6085,45.0679 1155.6085,45.0679 C1155.6085,45.0679 1173.6085,45.0679 1173.6085,55.0679 L1173.6085,81.0679 C1173.6085,91.0679 1155.6085,91.0679 1155.6085,91.0679 C1155.6085,91.0679 1137.6085,91.0679 1137.6085,81.0679 L1137.6085,55.0679" fill="#E2E2F0" style="stroke:#181818;stroke-width:0.5;"/><path d="M1137.6085,55.0679 C1137.6085,65.0679 1155.6085,65.0679 1155.6085,65.0679 C1155.6085,65.0679 1173.6085,65.0679 1173.6085,55.0679" fill="none" style="stroke:#181818;stroke-width:0.5;"/></g><g class="participant participant-tail" data-entity-uid="part3" data-qualified-name="DB" data-source-line="5" id="part3-tail"><text fill="#000000" font-family="sans-serif" font-size="14" lengthAdjust="spacing" textLength="76.9437" x="1114.1366" y="609.7599">PostgreSQL</text><text fill="#000000" font-family="sans-serif" font-size="14" lengthAdjust="spacing" textLength="229.3751" x="1037.9209" y="628.8279">&#1082;&#1072;&#1085;&#1086;&#1085;&#1080;&#1095;&#1077;&#1089;&#1082;&#1080;&#1077; &#1089;&#1090;&#1088;&#1086;&#1082;&#1080; + &#1087;&#1088;&#1080;&#1074;&#1103;&#1079;&#1082;&#1080;</text><path d="M1137.6085,642.9298 C1137.6085,632.9298 1155.6085,632.9298 1155.6085,632.9298 C1155.6085,632.9298 1173.6085,632.9298 1173.6085,642.9298 L1173.6085,668.9298 C1173.6085,678.9298 1155.6085,678.9298 1155.6085,678.9298 C1155.6085,678.9298 1137.6085,678.9298 1137.6085,668.9298 L1137.6085,642.9298" fill="#E2E2F0" style="stroke:#181818;stroke-width:0.5;"/><path d="M1137.6085,642.9298 C1137.6085,652.9298 1155.6085,652.9298 1155.6085,652.9298 C1155.6085,652.9298 1173.6085,652.9298 1173.6085,642.9298" fill="none" style="stroke:#181818;stroke-width:0.5;"/></g><g class="participant participant-head" data-entity-uid="part4" data-qualified-name="Outbox" data-source-line="6" id="part4-head"><path d="M1288.2961,81.0679 L1518.5292,81.0679 C1523.5292,81.0679 1523.5292,105.1358 1523.5292,105.1358 C1523.5292,105.1358 1523.5292,129.2038 1518.5292,129.2038 L1288.2961,129.2038 C1283.2961,129.2038 1283.2961,105.1358 1283.2961,105.1358 C1283.2961,105.1358 1283.2961,81.0679 1288.2961,81.0679" fill="#E2E2F0" style="stroke:#181818;stroke-width:0.5;"/><path d="M1518.5292,81.0679 C1513.5292,81.0679 1513.5292,105.1358 1513.5292,105.1358 C1513.5292,129.2038 1518.5292,129.2038 1518.5292,129.2038" fill="none" style="stroke:#181818;stroke-width:0.5;"/><text fill="#000000" font-family="sans-serif" font-size="14" lengthAdjust="spacing" textLength="138.9075" x="1328.9589" y="101.0339">Transactional outbox</text><text fill="#000000" font-family="sans-serif" font-size="14" lengthAdjust="spacing" textLength="220.2332" x="1288.2961" y="120.1018">+ &#1074;&#1099;&#1074;&#1086;&#1076; &#1090;&#1080;&#1087;&#1080;&#1079;&#1080;&#1088;&#1086;&#1074;&#1072;&#1085;&#1085;&#1099;&#1093; &#1079;&#1072;&#1076;&#1072;&#1095;</text></g><g class="participant participant-tail" data-entity-uid="part4" data-qualified-name="Outbox" data-source-line="6" id="part4-tail"><path d="M1288.2961,594.794 L1518.5292,594.794 C1523.5292,594.794 1523.5292,618.8619 1523.5292,618.8619 C1523.5292,618.8619 1523.5292,642.9298 1518.5292,642.9298 L1288.2961,642.9298 C1283.2961,642.9298 1283.2961,618.8619 1283.2961,618.8619 C1283.2961,618.8619 1283.2961,594.794 1288.2961,594.794" fill="#E2E2F0" style="stroke:#181818;stroke-width:0.5;"/><path d="M1518.5292,594.794 C1513.5292,594.794 1513.5292,618.8619 1513.5292,618.8619 C1513.5292,642.9298 1518.5292,642.9298 1518.5292,642.9298" fill="none" style="stroke:#181818;stroke-width:0.5;"/><text fill="#000000" font-family="sans-serif" font-size="14" lengthAdjust="spacing" textLength="138.9075" x="1328.9589" y="614.7599">Transactional outbox</text><text fill="#000000" font-family="sans-serif" font-size="14" lengthAdjust="spacing" textLength="220.2332" x="1288.2961" y="633.8279">+ &#1074;&#1099;&#1074;&#1086;&#1076; &#1090;&#1080;&#1087;&#1080;&#1079;&#1080;&#1088;&#1086;&#1074;&#1072;&#1085;&#1085;&#1099;&#1093; &#1079;&#1072;&#1076;&#1072;&#1095;</text></g><g class="participant participant-head" data-entity-uid="part5" data-qualified-name="Worker" data-source-line="7" id="part5-head"><rect fill="#E2E2F0" height="52.1358" rx="2.5" ry="2.5" style="stroke:#181818;stroke-width:0.5;" width="199.5273" x="1623.1522" y="76.0679"/><text fill="#000000" font-family="sans-serif" font-size="14" lengthAdjust="spacing" textLength="158.1994" x="1643.8162" y="98.0339">&#1060;&#1086;&#1085;&#1086;&#1074;&#1099;&#1077; &#1080;&#1089;&#1087;&#1086;&#1083;&#1085;&#1080;&#1090;&#1077;&#1083;&#1080;</text><text fill="#000000" font-family="sans-serif" font-size="14" lengthAdjust="spacing" textLength="185.5273" x="1630.1522" y="117.1018">exact scope leases + fencing</text></g><g class="participant participant-tail" data-entity-uid="part5" data-qualified-name="Worker" data-source-line="7" id="part5-tail"><rect fill="#E2E2F0" height="52.1358" rx="2.5" ry="2.5" style="stroke:#181818;stroke-width:0.5;" width="199.5273" x="1623.1522" y="594.794"/><text fill="#000000" font-family="sans-serif" font-size="14" lengthAdjust="spacing" textLength="158.1994" x="1643.8162" y="616.7599">&#1060;&#1086;&#1085;&#1086;&#1074;&#1099;&#1077; &#1080;&#1089;&#1087;&#1086;&#1083;&#1085;&#1080;&#1090;&#1077;&#1083;&#1080;</text><text fill="#000000" font-family="sans-serif" font-size="14" lengthAdjust="spacing" textLength="185.5273" x="1630.1522" y="635.8279">exact scope leases + fencing</text></g><g class="participant participant-head" data-entity-uid="part6" data-qualified-name="Projection" data-source-line="8" id="part6-head"><text fill="#000000" font-family="sans-serif" font-size="14" lengthAdjust="spacing" textLength="129.4015" x="1988.9014" y="106.0339">&#1043;&#1086;&#1090;&#1086;&#1074;&#1099;&#1077; &#1087;&#1088;&#1086;&#1077;&#1082;&#1094;&#1080;&#1080;</text><text fill="#000000" font-family="sans-serif" font-size="14" lengthAdjust="spacing" textLength="159.4594" x="1973.8724" y="125.1018">&#1087;&#1088;&#1080;&#1074;&#1103;&#1079;&#1082;&#1080; &#1082;&#1086;&#1085;&#1090;&#1077;&#1081;&#1085;&#1077;&#1088;&#1086;&#1074;</text><path d="M2038.6021,55.0679 C2038.6021,45.0679 2056.6021,45.0679 2056.6021,45.0679 C2056.6021,45.0679 2074.6021,45.0679 2074.6021,55.0679 L2074.6021,81.0679 C2074.6021,91.0679 2056.6021,91.0679 2056.6021,91.0679 C2056.6021,91.0679 2038.6021,91.0679 2038.6021,81.0679 L2038.6021,55.0679" fill="#E2E2F0" style="stroke:#181818;stroke-width:0.5;"/><path d="M2038.6021,55.0679 C2038.6021,65.0679 2056.6021,65.0679 2056.6021,65.0679 C2056.6021,65.0679 2074.6021,65.0679 2074.6021,55.0679" fill="none" style="stroke:#181818;stroke-width:0.5;"/></g><g class="participant participant-tail" data-entity-uid="part6" data-qualified-name="Projection" data-source-line="8" id="part6-tail"><text fill="#000000" font-family="sans-serif" font-size="14" lengthAdjust="spacing" textLength="129.4015" x="1988.9014" y="609.7599">&#1043;&#1086;&#1090;&#1086;&#1074;&#1099;&#1077; &#1087;&#1088;&#1086;&#1077;&#1082;&#1094;&#1080;&#1080;</text><text fill="#000000" font-family="sans-serif" font-size="14" lengthAdjust="spacing" textLength="159.4594" x="1973.8724" y="628.8279">&#1087;&#1088;&#1080;&#1074;&#1103;&#1079;&#1082;&#1080; &#1082;&#1086;&#1085;&#1090;&#1077;&#1081;&#1085;&#1077;&#1088;&#1086;&#1074;</text><path d="M2038.6021,642.9298 C2038.6021,632.9298 2056.6021,632.9298 2056.6021,632.9298 C2056.6021,632.9298 2074.6021,632.9298 2074.6021,642.9298 L2074.6021,668.9298 C2074.6021,678.9298 2056.6021,678.9298 2056.6021,678.9298 C2056.6021,678.9298 2038.6021,678.9298 2038.6021,668.9298 L2038.6021,642.9298" fill="#E2E2F0" style="stroke:#181818;stroke-width:0.5;"/><path d="M2038.6021,642.9298 C2038.6021,652.9298 2056.6021,652.9298 2056.6021,652.9298 C2056.6021,652.9298 2074.6021,652.9298 2074.6021,642.9298" fill="none" style="stroke:#181818;stroke-width:0.5;"/></g><g class="participant participant-head" data-entity-uid="part7" data-qualified-name="Events" data-source-line="9" id="part7-head"><text fill="#000000" font-family="sans-serif" font-size="14" lengthAdjust="spacing" textLength="223.8311" x="2149.3318" y="125.1018">&#1061;&#1088;&#1072;&#1085;&#1080;&#1083;&#1080;&#1097;&#1077; &#1087;&#1091;&#1073;&#1083;&#1080;&#1095;&#1085;&#1099;&#1093; &#1089;&#1086;&#1073;&#1099;&#1090;&#1080;&#1081;</text><path d="M2246.2474,74.1358 C2246.2474,64.1358 2264.2474,64.1358 2264.2474,64.1358 C2264.2474,64.1358 2282.2474,64.1358 2282.2474,74.1358 L2282.2474,100.1358 C2282.2474,110.1358 2264.2474,110.1358 2264.2474,110.1358 C2264.2474,110.1358 2246.2474,110.1358 2246.2474,100.1358 L2246.2474,74.1358" fill="#E2E2F0" style="stroke:#181818;stroke-width:0.5;"/><path d="M2246.2474,74.1358 C2246.2474,84.1358 2264.2474,84.1358 2264.2474,84.1358 C2264.2474,84.1358 2282.2474,84.1358 2282.2474,74.1358" fill="none" style="stroke:#181818;stroke-width:0.5;"/></g><g class="participant participant-tail" data-entity-uid="part7" data-qualified-name="Events" data-source-line="9" id="part7-tail"><text fill="#000000" font-family="sans-serif" font-size="14" lengthAdjust="spacing" textLength="223.8311" x="2149.3318" y="609.7599">&#1061;&#1088;&#1072;&#1085;&#1080;&#1083;&#1080;&#1097;&#1077; &#1087;&#1091;&#1073;&#1083;&#1080;&#1095;&#1085;&#1099;&#1093; &#1089;&#1086;&#1073;&#1099;&#1090;&#1080;&#1081;</text><path d="M2246.2474,623.8619 C2246.2474,613.8619 2264.2474,613.8619 2264.2474,613.8619 C2264.2474,613.8619 2282.2474,613.8619 2282.2474,623.8619 L2282.2474,649.8619 C2282.2474,659.8619 2264.2474,659.8619 2264.2474,659.8619 C2264.2474,659.8619 2246.2474,659.8619 2246.2474,649.8619 L2246.2474,623.8619" fill="#E2E2F0" style="stroke:#181818;stroke-width:0.5;"/><path d="M2246.2474,623.8619 C2246.2474,633.8619 2264.2474,633.8619 2264.2474,633.8619 C2264.2474,633.8619 2282.2474,633.8619 2282.2474,623.8619" fill="none" style="stroke:#181818;stroke-width:0.5;"/></g><g class="participant participant-head" data-entity-uid="part8" data-qualified-name="Dispatcher" data-source-line="10" id="part8-head"><rect fill="#E2E2F0" height="33.0679" rx="2.5" ry="2.5" style="stroke:#181818;stroke-width:0.5;" width="164.2474" x="2419.6228" y="95.1358"/><text fill="#000000" font-family="sans-serif" font-size="14" lengthAdjust="spacing" textLength="150.2474" x="2426.6228" y="117.1018">&#1044;&#1080;&#1089;&#1087;&#1077;&#1090;&#1095;&#1077;&#1088; WebSocket</text></g><g class="participant participant-tail" data-entity-uid="part8" data-qualified-name="Dispatcher" data-source-line="10" id="part8-tail"><rect fill="#E2E2F0" height="33.0679" rx="2.5" ry="2.5" style="stroke:#181818;stroke-width:0.5;" width="164.2474" x="2419.6228" y="594.794"/><text fill="#000000" font-family="sans-serif" font-size="14" lengthAdjust="spacing" textLength="150.2474" x="2426.6228" y="616.7599">&#1044;&#1080;&#1089;&#1087;&#1077;&#1090;&#1095;&#1077;&#1088; WebSocket</text></g><g class="participant participant-head" data-entity-uid="part9" data-qualified-name="WS" data-source-line="11" id="part9-head"><text fill="#000000" font-family="sans-serif" font-size="14" lengthAdjust="spacing" textLength="125.6915" x="2701.688" y="125.1018">&#1050;&#1083;&#1080;&#1077;&#1085;&#1090; WebSocket</text><ellipse cx="2767.5338" cy="58.6358" fill="#E2E2F0" rx="8" ry="8" style="stroke:#181818;stroke-width:0.5;"/><path d="M2767.5338,66.6358 L2767.5338,93.6358 M2754.5338,74.6358 L2780.5338,74.6358 M2767.5338,93.6358 L2754.5338,108.6358 M2767.5338,93.6358 L2780.5338,108.6358" fill="none" style="stroke:#181818;stroke-width:0.5;"/></g><g class="participant participant-tail" data-entity-uid="part9" data-qualified-name="WS" data-source-line="11" id="part9-tail"><text fill="#000000" font-family="sans-serif" font-size="14" lengthAdjust="spacing" textLength="125.6915" x="2701.688" y="609.7599">&#1050;&#1083;&#1080;&#1077;&#1085;&#1090; WebSocket</text><ellipse cx="2767.5338" cy="622.3619" fill="#E2E2F0" rx="8" ry="8" style="stroke:#181818;stroke-width:0.5;"/><path d="M2767.5338,630.3619 L2767.5338,657.3619 M2754.5338,638.3619 L2780.5338,638.3619 M2767.5338,657.3619 L2754.5338,672.3619 M2767.5338,657.3619 L2780.5338,672.3619" fill="none" style="stroke:#181818;stroke-width:0.5;"/></g><g class="message" data-entity-1="part1" data-entity-2="part2" data-source-line="12" id="msg1"><polygon fill="#181818" points="666.0642,158.9098,676.0642,162.9098,666.0642,166.9098,670.0642,162.9098" style="stroke:#181818;stroke-width:1;stroke-linejoin:miter;stroke-miterlimit:10;"/><line style="stroke:#181818;stroke-width:1;" x1="32.6119" x2="672.0642" y1="162.9098" y2="162.9098"/><text fill="#000000" font-family="sans-serif" font-size="13" lengthAdjust="spacing" textLength="621.4523" x="39.6119" y="157.1008">POST /api/workspace/v1/messenger/stream_topics/{topic_uuid}/actions/set_summary_prompt/invoke</text></g><g class="message" data-entity-1="part2" data-entity-2="part3" data-source-line="13" id="msg2"><polygon fill="#181818" points="1143.6085,190.6158,1153.6085,194.6158,1143.6085,198.6158,1147.6085,194.6158" style="stroke:#181818;stroke-width:1;stroke-linejoin:miter;stroke-miterlimit:10;"/><line style="stroke:#181818;stroke-width:1;" x1="678.0642" x2="1149.6085" y1="194.6158" y2="194.6158"/><text fill="#000000" font-family="sans-serif" font-size="13" lengthAdjust="spacing" textLength="453.5443" x="685.0642" y="188.8068">&#1085;&#1072;&#1095;&#1072;&#1083;&#1086; &#1090;&#1088;&#1072;&#1085;&#1079;&#1072;&#1082;&#1094;&#1080;&#1080;; &#1082;&#1086;&#1085;&#1092;&#1080;&#1075;&#1091;&#1088;&#1072;&#1094;&#1080;&#1103; &#1089;&#1074;&#1086;&#1076;&#1082;&#1080; TOPIC + transactional outbox</text></g><g class="message" data-entity-1="part2" data-entity-2="part3" data-source-line="14" id="msg3"><polygon fill="#181818" points="1143.6085,222.3218,1153.6085,226.3218,1143.6085,230.3218,1147.6085,226.3218" style="stroke:#181818;stroke-width:1;stroke-linejoin:miter;stroke-miterlimit:10;"/><line style="stroke:#181818;stroke-width:1;" x1="678.0642" x2="1149.6085" y1="226.3218" y2="226.3218"/><text fill="#000000" font-family="sans-serif" font-size="13" lengthAdjust="spacing" textLength="349.2582" x="685.0642" y="220.5128">&#1076;&#1086;&#1073;&#1072;&#1074;&#1080;&#1090;&#1100; &#1085;&#1077;&#1080;&#1079;&#1084;&#1077;&#1085;&#1103;&#1077;&#1084;&#1091;&#1102; &#1079;&#1072;&#1087;&#1080;&#1089;&#1100; &#1074; transactional outbox</text></g><g class="message" data-entity-1="part3" data-entity-2="part2" data-source-line="15" id="msg4"><polygon fill="#181818" points="689.0642,254.0278,679.0642,258.0278,689.0642,262.0278,685.0642,258.0278" style="stroke:#181818;stroke-width:1;stroke-linejoin:miter;stroke-miterlimit:10;"/><line style="stroke:#181818;stroke-width:1;stroke-dasharray:2,2;" x1="683.0642" x2="1154.6085" y1="258.0278" y2="258.0278"/><text fill="#000000" font-family="sans-serif" font-size="13" lengthAdjust="spacing" textLength="140.6471" x="695.0642" y="252.2188">&#1092;&#1080;&#1082;&#1089;&#1072;&#1094;&#1080;&#1103; &#1090;&#1088;&#1072;&#1085;&#1079;&#1072;&#1082;&#1094;&#1080;&#1080;</text></g><g class="message" data-entity-1="part2" data-entity-2="part1" data-source-line="16" id="msg5"><polygon fill="#181818" points="43.6119,285.7338,33.6119,289.7338,43.6119,293.7338,39.6119,289.7338" style="stroke:#181818;stroke-width:1;stroke-linejoin:miter;stroke-miterlimit:10;"/><line style="stroke:#181818;stroke-width:1;stroke-dasharray:2,2;" x1="37.6119" x2="677.0642" y1="289.7338" y2="289.7338"/><text fill="#000000" font-family="sans-serif" font-size="13" lengthAdjust="spacing" textLength="181.6882" x="49.6119" y="283.9248">&#1091;&#1089;&#1087;&#1077;&#1096;&#1085;&#1099;&#1081; &#1087;&#1091;&#1073;&#1083;&#1080;&#1095;&#1085;&#1099;&#1081; &#1086;&#1090;&#1074;&#1077;&#1090;</text></g><g class="message" data-entity-1="part3" data-entity-2="part4" data-source-line="17" id="msg6"><line style="stroke:#181818;stroke-width:1;" x1="1401.4126" x2="1391.4126" y1="321.4398" y2="317.4398"/><line style="stroke:#181818;stroke-width:1;" x1="1401.4126" x2="1391.4126" y1="321.4398" y2="325.4398"/><line style="stroke:#181818;stroke-width:1;" x1="1155.6085" x2="1402.4126" y1="321.4398" y2="321.4398"/><text fill="#000000" font-family="sans-serif" font-size="13" lengthAdjust="spacing" textLength="172.5881" x="1162.6085" y="315.6308">&#1079;&#1072;&#1092;&#1080;&#1082;&#1089;&#1080;&#1088;&#1086;&#1074;&#1072;&#1085;&#1085;&#1086;&#1077; &#1089;&#1086;&#1073;&#1099;&#1090;&#1080;&#1077;</text></g><g class="message" data-entity-1="part4" data-entity-2="part5" data-source-line="18" id="msg7"><line style="stroke:#181818;stroke-width:1;" x1="1720.9159" x2="1710.9159" y1="370.8519" y2="366.8519"/><line style="stroke:#181818;stroke-width:1;" x1="1720.9159" x2="1710.9159" y1="370.8519" y2="374.8519"/><line style="stroke:#181818;stroke-width:1;" x1="1403.4126" x2="1721.9159" y1="370.8519" y2="370.8519"/><text fill="#000000" font-family="sans-serif" font-size="13" lengthAdjust="spacing" textLength="295.5032" x="1410.4126" y="347.3369">topic_state_projection / delivery_snapshot_event</text><text fill="#000000" font-family="sans-serif" font-size="13" lengthAdjust="spacing" textLength="268.8272" x="1410.4126" y="365.0429">&#1082;&#1072;&#1078;&#1076;&#1072;&#1103; task &#1080;&#1084;&#1077;&#1077;&#1090; &#1089;&#1074;&#1086;&#1105; outbox_event_uuid</text></g><g class="message" data-entity-1="part5" data-entity-2="part5" data-source-line="19" id="msg8"><line style="stroke:#181818;stroke-width:1;" x1="1722.9159" x2="1764.9159" y1="420.2639" y2="420.2639"/><line style="stroke:#181818;stroke-width:1;" x1="1764.9159" x2="1764.9159" y1="420.2639" y2="433.2639"/><line style="stroke:#181818;stroke-width:1;" x1="1723.9159" x2="1764.9159" y1="433.2639" y2="433.2639"/><polygon fill="#181818" points="1733.9159,429.2639,1723.9159,433.2639,1733.9159,437.2639,1729.9159,433.2639" style="stroke:#181818;stroke-width:1;stroke-linejoin:miter;stroke-miterlimit:10;"/><text fill="#000000" font-family="sans-serif" font-size="13" lengthAdjust="spacing" textLength="203.7492" x="1729.9159" y="396.7489">claim exact scope; &#1076;&#1083;&#1103; topic work</text><text fill="#000000" font-family="sans-serif" font-size="13" lengthAdjust="spacing" textLength="161.2392" x="1729.9159" y="414.4549">MESSAGE.created_at DESC</text></g><g class="message" data-entity-1="part5" data-entity-2="part6" data-source-line="20" id="msg9"><polygon fill="#181818" points="2044.6021,460.9699,2054.6021,464.9699,2044.6021,468.9699,2048.6021,464.9699" style="stroke:#181818;stroke-width:1;stroke-linejoin:miter;stroke-miterlimit:10;"/><line style="stroke:#181818;stroke-width:1;" x1="1722.9159" x2="2050.6021" y1="464.9699" y2="464.9699"/><text fill="#000000" font-family="sans-serif" font-size="13" lengthAdjust="spacing" textLength="309.6863" x="1729.9159" y="459.1609">&#1089;&#1074;&#1086;&#1076;&#1082;&#1072; &#1090;&#1077;&#1084;&#1099; + &#1087;&#1088;&#1077;&#1076;&#1089;&#1090;&#1072;&#1074;&#1083;&#1077;&#1085;&#1080;&#1103; &#1090;&#1077;&#1084; &#1087;&#1086;&#1083;&#1100;&#1079;&#1086;&#1074;&#1072;&#1090;&#1077;&#1083;&#1103;</text></g><g class="message" data-entity-1="part5" data-entity-2="part7" data-source-line="21" id="msg10"><polygon fill="#181818" points="2252.2474,510.382,2262.2474,514.382,2252.2474,518.382,2256.2474,514.382" style="stroke:#181818;stroke-width:1;stroke-linejoin:miter;stroke-miterlimit:10;"/><line style="stroke:#181818;stroke-width:1;" x1="1722.9159" x2="2258.2474" y1="514.382" y2="514.382"/><text fill="#000000" font-family="sans-serif" font-size="13" lengthAdjust="spacing" textLength="84.9681" x="1729.9159" y="490.8669">topic.updated</text><text fill="#000000" font-family="sans-serif" font-size="13" lengthAdjust="spacing" textLength="293.8913" x="1729.9159" y="508.573">&#1072;&#1090;&#1086;&#1084;&#1072;&#1088;&#1085;&#1086; &#1074; &#1086;&#1076;&#1085;&#1086;&#1081; DB transaction &#1089; &#1087;&#1088;&#1086;&#1077;&#1082;&#1094;&#1080;&#1077;&#1081;</text></g><g class="message" data-entity-1="part7" data-entity-2="part8" data-source-line="22" id="msg11"><line style="stroke:#181818;stroke-width:1;" x1="2499.7466" x2="2489.7466" y1="546.088" y2="542.088"/><line style="stroke:#181818;stroke-width:1;" x1="2499.7466" x2="2489.7466" y1="546.088" y2="550.088"/><line style="stroke:#181818;stroke-width:1;" x1="2264.2474" x2="2500.7466" y1="546.088" y2="546.088"/><text fill="#000000" font-family="sans-serif" font-size="13" lengthAdjust="spacing" textLength="213.4991" x="2271.2474" y="540.279">&#1079;&#1072;&#1092;&#1080;&#1082;&#1089;&#1080;&#1088;&#1086;&#1074;&#1072;&#1085;&#1085;&#1072;&#1103; &#1075;&#1086;&#1090;&#1086;&#1074;&#1072;&#1103; &#1089;&#1090;&#1088;&#1086;&#1082;&#1072;</text></g><g class="message" data-entity-1="part8" data-entity-2="part9" data-source-line="23" id="msg12"><line style="stroke:#181818;stroke-width:1;" x1="2765.5338" x2="2755.5338" y1="577.794" y2="573.794"/><line style="stroke:#181818;stroke-width:1;" x1="2765.5338" x2="2755.5338" y1="577.794" y2="581.794"/><line style="stroke:#181818;stroke-width:1;" x1="2501.7466" x2="2766.5338" y1="577.794" y2="577.794"/><text fill="#000000" font-family="sans-serif" font-size="13" lengthAdjust="spacing" textLength="241.7872" x="2508.7466" y="571.985">&#1086;&#1090;&#1087;&#1088;&#1072;&#1074;&#1082;&#1072; / &#1087;&#1086;&#1074;&#1090;&#1086;&#1088; / &#1074;&#1086;&#1089;&#1087;&#1088;&#1086;&#1080;&#1079;&#1074;&#1077;&#1076;&#1077;&#1085;&#1080;&#1077;</text></g><?plantuml-src bLJBRXD14BplLpIv8bXnDLAal8IGG35if1mmiYRh8LcoBtR6WGWXvG4458I5uCGPxiwIXJpjNvZv8xfxreaJ8WG7hpthcUgQgkg-bXTYEH4GY_Migq4bKejKU3hIiOJcVB00liWZ_tbMhAfSXD9Vk-KdKYcPBil2LxgG8cdhB8z2vJ_YxtQt6tKU-oBKKPOgNqdTLjqa4SLwEo-o9DT-bAvbgzB37La14-QhEJO7fZAdTci2X8APE9Afzd9Hw2YCSf5gc5WSrG-uuW8LcibINMHnB8jM-b0gFHM7Ap9PPuofvbsl8xHO4ah2H3DJUhcGmODxhTGScRuvDGFy7DWTKzbDV8FbmMxQBRk1V-0IheCPukB0bBPdVj4hXfsTzfvrPHSX5mgHAdT74GDAjvIzQALuhBIxfaIKVR1RU7w8drzOYO1BhdngT-qRm9Tzis_wTeU1vndWuftDDsOvOCWA46GJuGQe5b7VGiLGjrOgNo0DK66MIuWbtbSX-oSo3QDqcR59ErcCoM4-cm6UFmCUChlA7Dcto1OXBzyTy34WVt3J8LQlt7KOlLbaJoNhC5xXE-wWonuGH_lULTasUxpSgJN0-mpC7luaeGuPRMuDhLUNTFXINxr2WyYn3LYKIq4MhahjN8am6XhDBwxArANDYu7d0WOt9YacZVzD-SlpbB_wXvHZ2QeqEzq0r0FzHbsEpG0uR2GH1Q5M_lP8wDUu-c6tQGVzOtka5QUAxLYORzwTGPVr5I6yK72V14RyaW9ZFn23YWDvmjhqy7c2PJwwE0v9PzfLNeqyEmqtHg8nnIDaTKRmYliuBdZ4AOwdjciZtr44pE4VgQ1NbCsIpEQ2avDrSpIOv5dT2or5yRqOfyfpfnZ0TK03d7DA2ot9fJgtu4D7nj6QHEzKAdArakcsf23Mq-8dDseFj52hs8Oi7jAhFR6VQdtS6Gw6vogI3wFQOIoY1CQQzJRPSqomn0eeUwtq_bmGJDsPknbYuhJij8M6sRbWPWpllDyQuw7e0tVdYTqTpQxAxDD8O_UFoUxQ9je5Rf3O3oWfY-Z6YUsD5NAjM8jsivjtY10gqkVHSOBV6oGyfOKva0c76Blnx233o-C59uZdeDcQyzxzgxyal_an6bky79lNVUySnXaUD5oEXXpAaWNotQrBmi0PWajoRxFcHrrHacXEAbFz1W00?></g></svg>