<svg xmlns="http://www.w3.org/2000/svg" xmlns:xlink="http://www.w3.org/1999/xlink" contentStyleType="text/css" data-diagram-type="SEQUENCE" height="456px" preserveAspectRatio="none" style="width:903px;height:456px;background:#FFFFFF;" version="1.1" viewBox="0 0 903 456" width="903px" zoomAndPan="magnify"><?plantuml 1.2026.6?><defs/><g><g class="title" data-source-line="2"><text fill="#000000" font-family="sans-serif" font-size="14" font-weight="700" lengthAdjust="spacing" textLength="430.8765" x="232.9774" y="29.9659">GET /api/workspace/v1/messenger/messages/[message_uuid]</text></g><g class="participant-lifeline" data-entity-uid="part1" data-qualified-name="Client" data-source-line="3" id="part1-lifeline"><g><title>Der Client</title><rect fill="#000000" fill-opacity="0.00000" height="237.6481" width="8" x="36.6059" y="129.2038"/><line style="stroke:#181818;stroke-width:0.5;stroke-dasharray:5,5;" x1="40" x2="40" y1="129.2038" y2="366.8519"/></g></g><g class="participant-lifeline" data-entity-uid="part2" data-qualified-name="API" data-source-line="4" id="part2-lifeline"><g><title>WorkspaceMessageController</title><rect fill="#000000" fill-opacity="0.00000" height="237.6481" width="8" x="441.5061" y="129.2038"/><line style="stroke:#181818;stroke-width:0.5;stroke-dasharray:5,5;" x1="444.9675" x2="444.9675" y1="129.2038" y2="366.8519"/></g></g><g class="participant-lifeline" data-entity-uid="part3" data-qualified-name="DB" data-source-line="5" id="part3-lifeline"><g><title>Indexed .ffentliche Darstellung</title><rect fill="#000000" fill-opacity="0.00000" height="237.6481" width="8" x="743.5764" y="129.2038"/><line style="stroke:#181818;stroke-width:0.5;stroke-dasharray:5,5;" x1="746.8049" x2="746.8049" y1="129.2038" y2="366.8519"/></g></g><g class="participant participant-head" data-entity-uid="part1" data-qualified-name="Client" data-source-line="3" id="part1-head"><text fill="#000000" font-family="sans-serif" font-size="14" lengthAdjust="spacing" textLength="65.2117" x="5" y="125.1018">Der Client</text><ellipse cx="40.6059" cy="58.6358" fill="#E2E2F0" rx="8" ry="8" style="stroke:#181818;stroke-width:0.5;"/><path d="M40.6059,66.6358 L40.6059,93.6358 M27.6059,74.6358 L53.6059,74.6358 M40.6059,93.6358 L27.6059,108.6358 M40.6059,93.6358 L53.6059,108.6358" fill="none" style="stroke:#181818;stroke-width:0.5;"/></g><g class="participant participant-tail" data-entity-uid="part1" data-qualified-name="Client" data-source-line="3" id="part1-tail"><text fill="#000000" font-family="sans-serif" font-size="14" lengthAdjust="spacing" textLength="65.2117" x="5" y="380.8178">Der Client</text><ellipse cx="40.6059" cy="393.4198" fill="#E2E2F0" rx="8" ry="8" style="stroke:#181818;stroke-width:0.5;"/><path d="M40.6059,401.4198 L40.6059,428.4198 M27.6059,409.4198 L53.6059,409.4198 M40.6059,428.4198 L27.6059,443.4198 M40.6059,428.4198 L53.6059,443.4198" fill="none" style="stroke:#181818;stroke-width:0.5;"/></g><g class="participant participant-head" data-entity-uid="part2" data-qualified-name="API" data-source-line="4" id="part2-head"><rect fill="#E2E2F0" height="52.1358" rx="2.5" ry="2.5" style="stroke:#181818;stroke-width:0.5;" width="211.0773" x="339.9675" y="76.0679"/><text fill="#000000" font-family="sans-serif" font-size="14" lengthAdjust="spacing" textLength="197.0773" x="346.9675" y="98.0339">WorkspaceMessageController</text><text fill="#000000" font-family="sans-serif" font-size="14" lengthAdjust="spacing" textLength="84.4197" x="403.2963" y="117.1018">RestAlchemy</text></g><g class="participant participant-tail" data-entity-uid="part2" data-qualified-name="API" data-source-line="4" id="part2-tail"><rect fill="#E2E2F0" height="52.1358" rx="2.5" ry="2.5" style="stroke:#181818;stroke-width:0.5;" width="211.0773" x="339.9675" y="365.8519"/><text fill="#000000" font-family="sans-serif" font-size="14" lengthAdjust="spacing" textLength="197.0773" x="346.9675" y="387.8178">WorkspaceMessageController</text><text fill="#000000" font-family="sans-serif" font-size="14" lengthAdjust="spacing" textLength="84.4197" x="403.2963" y="406.8857">RestAlchemy</text></g><g class="participant participant-head" data-entity-uid="part3" data-qualified-name="DB" data-source-line="5" id="part3-head"><text fill="#000000" font-family="sans-serif" font-size="14" lengthAdjust="spacing" textLength="207.9412" x="640.6059" y="106.0339">Indexed &#246;ffentliche Darstellung</text><text fill="#000000" font-family="sans-serif" font-size="14" lengthAdjust="spacing" textLength="243.543" x="622.8049" y="125.1018">+ physische Zeilen externer Schl&#252;ssel</text><path d="M729.5764,55.0679 C729.5764,45.0679 747.5764,45.0679 747.5764,45.0679 C747.5764,45.0679 765.5764,45.0679 765.5764,55.0679 L765.5764,81.0679 C765.5764,91.0679 747.5764,91.0679 747.5764,91.0679 C747.5764,91.0679 729.5764,91.0679 729.5764,81.0679 L729.5764,55.0679" fill="#E2E2F0" style="stroke:#181818;stroke-width:0.5;"/><path d="M729.5764,55.0679 C729.5764,65.0679 747.5764,65.0679 747.5764,65.0679 C747.5764,65.0679 765.5764,65.0679 765.5764,55.0679" fill="none" style="stroke:#181818;stroke-width:0.5;"/></g><g class="participant participant-tail" data-entity-uid="part3" data-qualified-name="DB" data-source-line="5" id="part3-tail"><text fill="#000000" font-family="sans-serif" font-size="14" lengthAdjust="spacing" textLength="207.9412" x="640.6059" y="380.8178">Indexed &#246;ffentliche Darstellung</text><text fill="#000000" font-family="sans-serif" font-size="14" lengthAdjust="spacing" textLength="243.543" x="622.8049" y="399.8857">+ physische Zeilen externer Schl&#252;ssel</text><path d="M729.5764,413.9877 C729.5764,403.9877 747.5764,403.9877 747.5764,403.9877 C747.5764,403.9877 765.5764,403.9877 765.5764,413.9877 L765.5764,439.9877 C765.5764,449.9877 747.5764,449.9877 747.5764,449.9877 C747.5764,449.9877 729.5764,449.9877 729.5764,439.9877 L729.5764,413.9877" fill="#E2E2F0" style="stroke:#181818;stroke-width:0.5;"/><path d="M729.5764,413.9877 C729.5764,423.9877 747.5764,423.9877 747.5764,423.9877 C747.5764,423.9877 765.5764,423.9877 765.5764,413.9877" fill="none" style="stroke:#181818;stroke-width:0.5;"/></g><g class="message" data-entity-1="part1" data-entity-2="part2" data-source-line="6" id="msg1"><polygon fill="#181818" points="433.5061,158.9098,443.5061,162.9098,433.5061,166.9098,437.5061,162.9098" style="stroke:#181818;stroke-width:1;stroke-linejoin:miter;stroke-miterlimit:10;"/><line style="stroke:#181818;stroke-width:1;" x1="40.6059" x2="439.5061" y1="162.9098" y2="162.9098"/><text fill="#000000" font-family="sans-serif" font-size="13" lengthAdjust="spacing" textLength="380.9003" x="47.6059" y="157.1008">GET /api/workspace/v1/messenger/messages/{message_uuid}</text></g><g class="message" data-entity-1="part2" data-entity-2="part3" data-source-line="7" id="msg2"><polygon fill="#181818" points="735.5764,208.3218,745.5764,212.3218,735.5764,216.3218,739.5764,212.3218" style="stroke:#181818;stroke-width:1;stroke-linejoin:miter;stroke-miterlimit:10;"/><line style="stroke:#181818;stroke-width:1;" x1="445.5061" x2="741.5764" y1="212.3218" y2="212.3218"/><text fill="#000000" font-family="sans-serif" font-size="13" lengthAdjust="spacing" textLength="278.0703" x="452.5061" y="188.8068">{message_uuid}=MESSAGE_PLACEMENT.uuid;</text><text fill="#000000" font-family="sans-serif" font-size="13" lengthAdjust="spacing" textLength="270.7772" x="452.5061" y="206.5128">join active stream membership + generation</text></g><g class="message" data-entity-1="part3" data-entity-2="part2" data-source-line="8" id="msg3"><polygon fill="#181818" points="456.5061,240.0278,446.5061,244.0278,456.5061,248.0278,452.5061,244.0278" style="stroke:#181818;stroke-width:1;stroke-linejoin:miter;stroke-miterlimit:10;"/><line style="stroke:#181818;stroke-width:1;stroke-dasharray:2,2;" x1="450.5061" x2="746.5764" y1="244.0278" y2="244.0278"/><text fill="#000000" font-family="sans-serif" font-size="13" lengthAdjust="spacing" textLength="165.0872" x="462.5061" y="238.2188">Zeilen ohne Berechnungen</text></g><g class="message" data-entity-1="part2" data-entity-2="part1" data-source-line="9" id="msg4"><polygon fill="#181818" points="51.6059,271.7338,41.6059,275.7338,51.6059,279.7338,47.6059,275.7338" style="stroke:#181818;stroke-width:1;stroke-linejoin:miter;stroke-miterlimit:10;"/><line style="stroke:#181818;stroke-width:1;stroke-dasharray:2,2;" x1="45.6059" x2="444.5061" y1="275.7338" y2="275.7338"/><text fill="#000000" font-family="sans-serif" font-size="13" lengthAdjust="spacing" textLength="121.1211" x="57.6059" y="269.9248">200, &#246;ffentlich JSON</text></g><path d="M300,288.7338 L300,351.7338 L892,351.7338 L892,298.7338 L882,288.7338 L300,288.7338" fill="#FEFFDD" style="stroke:#181818;stroke-width:0.5;"/><path d="M882,288.7338 L882,298.7338 L892,298.7338 L882,288.7338" fill="#FEFFDD" style="stroke:#181818;stroke-width:0.5;"/><text fill="#000000" font-family="sans-serif" font-size="13" lengthAdjust="spacing" textLength="571.8313" x="306" y="307.6308">Keine Aufzeichnungen / transactional outbox / Aufgaben / Hintergrund-Aussteller / Ereignisse</text><text fill="#000000" font-family="sans-serif" font-size="13" lengthAdjust="spacing" textLength="396.1753" x="306" y="325.3369">Keine Aggregation oder Wiederherstellung w&#228;hrend der Anfrage</text><text fill="#000000" font-family="sans-serif" font-size="13" lengthAdjust="spacing" textLength="334.9843" x="306" y="343.0429">Canonical MESSAGE.uuid und binding_uuid Verborgen.</text><?plantuml-src ZLB1RjD04BtxAuPSszI5On18JcAL0YaLgQW4GTNOdgm7rhFMxhfDGFmDty29MtwCiPEWSkEqevstRzvxiqzQZwP1iBXrNOJGK4J197Aq11Vv3QJOSlhW_DVGOadf_TEqeH183FcXGaCX_NIexhgEgyy9bj5v6Ct9mymoIHm1XaEPjEWZbzoYH1ZT7eaNUuAPa-YTjUHNyfv2p6nPKxCTtcVNbqc54GiC1ADBgMX35Un-hTTAQrc1C4SV8bdRYLd92RJrDd3e6n-9BGdG9f8NbRKiQxlxhJxiG3sV9djrC7xPpvdyl_NlZwt_IFHnpp6VJk3Vpej5lbnc5_dTzTjibY_ogvkp_lxvIhuu5j38-9uWH4_OG4DDGJxKtC8965B56Db9Cf_2-AZmOCdLGZ0bJsKjQfjaBq5HUqSJU7P-Vleu9dYzV7ULY8i4xbwpKFof1l26M9coRlsD-CW5AKIF4dfrJj22_f72RVHQSGQB0V6AHLCrlfDgd7LXM83Iff1xOYEiaHt9ZV5a1YlWAiNSCkbHqz-jmSFkP-r9AkZRcQprTr8oGt72fSu_X3X41peG2fQAnGmPmmVoXVEg-opfANgBVm00?></g></svg>