<svg xmlns="http://www.w3.org/2000/svg" xmlns:xlink="http://www.w3.org/1999/xlink" contentStyleType="text/css" data-diagram-type="SEQUENCE" height="703px" preserveAspectRatio="none" style="width:1942px;height:703px;background:#FFFFFF;" version="1.1" viewBox="0 0 1942 703" width="1942px" zoomAndPan="magnify"><?plantuml 1.2026.6?><defs/><g><g class="title" data-source-line="2"><text fill="#000000" font-family="sans-serif" font-size="14" font-weight="700" lengthAdjust="spacing" textLength="431.3663" x="751.9943" y="29.9659">DELETE /api/workspace/v1/messenger/streams/[stream_uuid]</text></g><g class="participant-lifeline" data-entity-uid="part1" data-qualified-name="Client" data-source-line="3" id="part1-lifeline"><g><title>...</title><rect fill="#000000" fill-opacity="0.00000" height="484.2963" width="8" x="24.9999" y="129.2038"/><line style="stroke:#181818;stroke-width:0.5;stroke-dasharray:5,5;" x1="28" x2="28" y1="129.2038" y2="613.5"/></g></g><g class="participant-lifeline" data-entity-uid="part2" data-qualified-name="API" data-source-line="4" id="part2-lifeline"><g><title>WorkspaceStreamController</title><rect fill="#000000" fill-opacity="0.00000" height="484.2963" width="8" x="428.2102" y="129.2038"/><line style="stroke:#181818;stroke-width:0.5;stroke-dasharray:5,5;" x1="432.1735" x2="432.1735" y1="129.2038" y2="613.5"/></g></g><g class="participant-lifeline" data-entity-uid="part3" data-qualified-name="DB" data-source-line="5" id="part3-lifeline"><g><title>PostgreSQL</title><rect fill="#000000" fill-opacity="0.00000" height="484.2963" width="8" x="799.2585" y="129.2038"/><line style="stroke:#181818;stroke-width:0.5;stroke-dasharray:5,5;" x1="802.6146" x2="802.6146" y1="129.2038" y2="613.5"/></g></g><g class="participant-lifeline" data-entity-uid="part4" data-qualified-name="Outbox" data-source-line="6" id="part4-lifeline"><g><title>Transactional outbox</title><rect fill="#000000" fill-opacity="0.00000" height="484.2963" width="8" x="934.356" y="129.2038"/><line style="stroke:#181818;stroke-width:0.5;stroke-dasharray:5,5;" x1="937.9023" x2="937.9023" y1="129.2038" y2="613.5"/></g></g><g class="participant-lifeline" data-entity-uid="part5" data-qualified-name="Worker" data-source-line="7" id="part5-lifeline"><g><title>.....</title><rect fill="#000000" fill-opacity="0.00000" height="484.2963" width="8" x="1270.0052" y="129.2038"/><line style="stroke:#181818;stroke-width:0.5;stroke-dasharray:5,5;" x1="1273.2416" x2="1273.2416" y1="129.2038" y2="613.5"/></g></g><g class="participant-lifeline" data-entity-uid="part6" data-qualified-name="Projection" data-source-line="8" id="part6-lifeline"><g><title>......</title><rect fill="#000000" fill-opacity="0.00000" height="484.2963" width="8" x="1491.4204" y="129.2038"/><line style="stroke:#181818;stroke-width:0.5;stroke-dasharray:5,5;" x1="1494.4206" x2="1494.4206" y1="129.2038" y2="613.5"/></g></g><g class="participant-lifeline" data-entity-uid="part7" data-qualified-name="Events" data-source-line="9" id="part7-lifeline"><g><title>.......</title><rect fill="#000000" fill-opacity="0.00000" height="484.2963" width="8" x="1598.42" y="129.2038"/><line style="stroke:#181818;stroke-width:0.5;stroke-dasharray:5,5;" x1="1601.4202" x2="1601.4202" y1="129.2038" y2="613.5"/></g></g><g class="participant-lifeline" data-entity-uid="part8" data-qualified-name="Dispatcher" data-source-line="10" id="part8-lifeline"><g><title>... WebSocket</title><rect fill="#000000" fill-opacity="0.00000" height="484.2963" width="8" x="1726.6536" y="129.2038"/><line style="stroke:#181818;stroke-width:0.5;stroke-dasharray:5,5;" x1="1730.4198" x2="1730.4198" y1="129.2038" y2="613.5"/></g></g><g class="participant-lifeline" data-entity-uid="part9" data-qualified-name="WS" data-source-line="11" id="part9-lifeline"><g><title>... WebSocket</title><rect fill="#000000" fill-opacity="0.00000" height="484.2963" width="8" x="1865.1211" y="129.2038"/><line style="stroke:#181818;stroke-width:0.5;stroke-dasharray:5,5;" x1="1868.8873" x2="1868.8873" y1="129.2038" y2="613.5"/></g></g><g class="participant participant-head" data-entity-uid="part1" data-qualified-name="Client" data-source-line="3" id="part1-head"><text fill="#000000" font-family="sans-serif" font-size="14" lengthAdjust="spacing" textLength="41.9998" x="5" y="125.1018">&#23458;&#25143;&#31471;</text><ellipse cx="28.9999" cy="58.6358" fill="#E2E2F0" rx="8" ry="8" style="stroke:#181818;stroke-width:0.5;"/><path d="M28.9999,66.6358 L28.9999,93.6358 M15.9999,74.6358 L41.9999,74.6358 M28.9999,93.6358 L15.9999,108.6358 M28.9999,93.6358 L41.9999,108.6358" fill="none" style="stroke:#181818;stroke-width:0.5;"/></g><g class="participant participant-tail" data-entity-uid="part1" data-qualified-name="Client" data-source-line="3" id="part1-tail"><text fill="#000000" font-family="sans-serif" font-size="14" lengthAdjust="spacing" textLength="41.9998" x="5" y="627.466">&#23458;&#25143;&#31471;</text><ellipse cx="28.9999" cy="640.0679" fill="#E2E2F0" rx="8" ry="8" style="stroke:#181818;stroke-width:0.5;"/><path d="M28.9999,648.0679 L28.9999,675.0679 M15.9999,656.0679 L41.9999,656.0679 M28.9999,675.0679 L15.9999,690.0679 M28.9999,675.0679 L41.9999,690.0679" fill="none" style="stroke:#181818;stroke-width:0.5;"/></g><g class="participant participant-head" data-entity-uid="part2" data-qualified-name="API" data-source-line="4" id="part2-head"><rect fill="#E2E2F0" height="52.1358" rx="2.5" ry="2.5" style="stroke:#181818;stroke-width:0.5;" width="200.0733" x="332.1735" y="76.0679"/><text fill="#000000" font-family="sans-serif" font-size="14" lengthAdjust="spacing" textLength="186.0733" x="339.1735" y="98.0339">WorkspaceStreamController</text><text fill="#000000" font-family="sans-serif" font-size="14" lengthAdjust="spacing" textLength="84.4197" x="390.0003" y="117.1018">RestAlchemy</text></g><g class="participant participant-tail" data-entity-uid="part2" data-qualified-name="API" data-source-line="4" id="part2-tail"><rect fill="#E2E2F0" height="52.1358" rx="2.5" ry="2.5" style="stroke:#181818;stroke-width:0.5;" width="200.0733" x="332.1735" y="612.5"/><text fill="#000000" font-family="sans-serif" font-size="14" lengthAdjust="spacing" textLength="186.0733" x="339.1735" y="634.466">WorkspaceStreamController</text><text fill="#000000" font-family="sans-serif" font-size="14" lengthAdjust="spacing" textLength="84.4197" x="390.0003" y="653.5339">RestAlchemy</text></g><g class="participant participant-head" data-entity-uid="part3" data-qualified-name="DB" data-source-line="5" id="part3-head"><text fill="#000000" font-family="sans-serif" font-size="14" lengthAdjust="spacing" textLength="76.9437" x="761.7866" y="106.0339">PostgreSQL</text><text fill="#000000" font-family="sans-serif" font-size="14" lengthAdjust="spacing" textLength="85.2876" x="757.6146" y="125.1018">&#35268;&#21017;&#34892; + &#32465;&#23450;</text><path d="M785.2585,55.0679 C785.2585,45.0679 803.2585,45.0679 803.2585,45.0679 C803.2585,45.0679 821.2585,45.0679 821.2585,55.0679 L821.2585,81.0679 C821.2585,91.0679 803.2585,91.0679 803.2585,91.0679 C803.2585,91.0679 785.2585,91.0679 785.2585,81.0679 L785.2585,55.0679" fill="#E2E2F0" style="stroke:#181818;stroke-width:0.5;"/><path d="M785.2585,55.0679 C785.2585,65.0679 803.2585,65.0679 803.2585,65.0679 C803.2585,65.0679 821.2585,65.0679 821.2585,55.0679" fill="none" style="stroke:#181818;stroke-width:0.5;"/></g><g class="participant participant-tail" data-entity-uid="part3" data-qualified-name="DB" data-source-line="5" id="part3-tail"><text fill="#000000" font-family="sans-serif" font-size="14" lengthAdjust="spacing" textLength="76.9437" x="761.7866" y="627.466">PostgreSQL</text><text fill="#000000" font-family="sans-serif" font-size="14" lengthAdjust="spacing" textLength="85.2876" x="757.6146" y="646.5339">&#35268;&#21017;&#34892; + &#32465;&#23450;</text><path d="M785.2585,660.6358 C785.2585,650.6358 803.2585,650.6358 803.2585,650.6358 C803.2585,650.6358 821.2585,650.6358 821.2585,660.6358 L821.2585,686.6358 C821.2585,696.6358 803.2585,696.6358 803.2585,696.6358 C803.2585,696.6358 785.2585,696.6358 785.2585,686.6358 L785.2585,660.6358" fill="#E2E2F0" style="stroke:#181818;stroke-width:0.5;"/><path d="M785.2585,660.6358 C785.2585,670.6358 803.2585,670.6358 803.2585,670.6358 C803.2585,670.6358 821.2585,670.6358 821.2585,660.6358" fill="none" style="stroke:#181818;stroke-width:0.5;"/></g><g class="participant participant-head" data-entity-uid="part4" data-qualified-name="Outbox" data-source-line="6" id="part4-head"><path d="M863.9023,81.0679 L1012.8098,81.0679 C1017.8098,81.0679 1017.8098,105.1358 1017.8098,105.1358 C1017.8098,105.1358 1017.8098,129.2038 1012.8098,129.2038 L863.9023,129.2038 C858.9023,129.2038 858.9023,105.1358 858.9023,105.1358 C858.9023,105.1358 858.9023,81.0679 863.9023,81.0679" fill="#E2E2F0" style="stroke:#181818;stroke-width:0.5;"/><path d="M1012.8098,81.0679 C1007.8098,81.0679 1007.8098,105.1358 1007.8098,105.1358 C1007.8098,129.2038 1012.8098,129.2038 1012.8098,129.2038" fill="none" style="stroke:#181818;stroke-width:0.5;"/><text fill="#000000" font-family="sans-serif" font-size="14" lengthAdjust="spacing" textLength="138.9075" x="863.9023" y="101.0339">Transactional outbox</text><text fill="#000000" font-family="sans-serif" font-size="14" lengthAdjust="spacing" textLength="123.6475" x="871.5323" y="120.1018">+ &#31867;&#22411;&#21270;&#20219;&#21153;&#30340;&#36755;&#20986;</text></g><g class="participant participant-tail" data-entity-uid="part4" data-qualified-name="Outbox" data-source-line="6" id="part4-tail"><path d="M863.9023,612.5 L1012.8098,612.5 C1017.8098,612.5 1017.8098,636.5679 1017.8098,636.5679 C1017.8098,636.5679 1017.8098,660.6358 1012.8098,660.6358 L863.9023,660.6358 C858.9023,660.6358 858.9023,636.5679 858.9023,636.5679 C858.9023,636.5679 858.9023,612.5 863.9023,612.5" fill="#E2E2F0" style="stroke:#181818;stroke-width:0.5;"/><path d="M1012.8098,612.5 C1007.8098,612.5 1007.8098,636.5679 1007.8098,636.5679 C1007.8098,660.6358 1012.8098,660.6358 1012.8098,660.6358" fill="none" style="stroke:#181818;stroke-width:0.5;"/><text fill="#000000" font-family="sans-serif" font-size="14" lengthAdjust="spacing" textLength="138.9075" x="863.9023" y="632.466">Transactional outbox</text><text fill="#000000" font-family="sans-serif" font-size="14" lengthAdjust="spacing" textLength="123.6475" x="871.5323" y="651.5339">+ &#31867;&#22411;&#21270;&#20219;&#21153;&#30340;&#36755;&#20986;</text></g><g class="participant participant-head" data-entity-uid="part5" data-qualified-name="Worker" data-source-line="7" id="part5-head"><rect fill="#E2E2F0" height="52.1358" rx="2.5" ry="2.5" style="stroke:#181818;stroke-width:0.5;" width="199.5273" x="1174.2416" y="76.0679"/><text fill="#000000" font-family="sans-serif" font-size="14" lengthAdjust="spacing" textLength="69.9997" x="1239.0054" y="98.0339">&#32972;&#26223;&#34920;&#28436;&#32773;</text><text fill="#000000" font-family="sans-serif" font-size="14" lengthAdjust="spacing" textLength="185.5273" x="1181.2416" y="117.1018">exact scope leases + fencing</text></g><g class="participant participant-tail" data-entity-uid="part5" data-qualified-name="Worker" data-source-line="7" id="part5-tail"><rect fill="#E2E2F0" height="52.1358" rx="2.5" ry="2.5" style="stroke:#181818;stroke-width:0.5;" width="199.5273" x="1174.2416" y="612.5"/><text fill="#000000" font-family="sans-serif" font-size="14" lengthAdjust="spacing" textLength="69.9997" x="1239.0054" y="634.466">&#32972;&#26223;&#34920;&#28436;&#32773;</text><text fill="#000000" font-family="sans-serif" font-size="14" lengthAdjust="spacing" textLength="185.5273" x="1181.2416" y="653.5339">exact scope leases + fencing</text></g><g class="participant participant-head" data-entity-uid="part6" data-qualified-name="Projection" data-source-line="8" id="part6-head"><text fill="#000000" font-family="sans-serif" font-size="14" lengthAdjust="spacing" textLength="83.9996" x="1450.4206" y="106.0339">&#24050;&#20934;&#22791;&#30340;&#25237;&#24433;</text><text fill="#000000" font-family="sans-serif" font-size="14" lengthAdjust="spacing" textLength="55.9998" x="1464.4205" y="125.1018">&#36830;&#25509;&#23481;&#22120;</text><path d="M1477.4204,55.0679 C1477.4204,45.0679 1495.4204,45.0679 1495.4204,45.0679 C1495.4204,45.0679 1513.4204,45.0679 1513.4204,55.0679 L1513.4204,81.0679 C1513.4204,91.0679 1495.4204,91.0679 1495.4204,91.0679 C1495.4204,91.0679 1477.4204,91.0679 1477.4204,81.0679 L1477.4204,55.0679" fill="#E2E2F0" style="stroke:#181818;stroke-width:0.5;"/><path d="M1477.4204,55.0679 C1477.4204,65.0679 1495.4204,65.0679 1495.4204,65.0679 C1495.4204,65.0679 1513.4204,65.0679 1513.4204,55.0679" fill="none" style="stroke:#181818;stroke-width:0.5;"/></g><g class="participant participant-tail" data-entity-uid="part6" data-qualified-name="Projection" data-source-line="8" id="part6-tail"><text fill="#000000" font-family="sans-serif" font-size="14" lengthAdjust="spacing" textLength="83.9996" x="1450.4206" y="627.466">&#24050;&#20934;&#22791;&#30340;&#25237;&#24433;</text><text fill="#000000" font-family="sans-serif" font-size="14" lengthAdjust="spacing" textLength="55.9998" x="1464.4205" y="646.5339">&#36830;&#25509;&#23481;&#22120;</text><path d="M1477.4204,660.6358 C1477.4204,650.6358 1495.4204,650.6358 1495.4204,650.6358 C1495.4204,650.6358 1513.4204,650.6358 1513.4204,660.6358 L1513.4204,686.6358 C1513.4204,696.6358 1495.4204,696.6358 1495.4204,696.6358 C1495.4204,696.6358 1477.4204,696.6358 1477.4204,686.6358 L1477.4204,660.6358" fill="#E2E2F0" style="stroke:#181818;stroke-width:0.5;"/><path d="M1477.4204,660.6358 C1477.4204,670.6358 1495.4204,670.6358 1495.4204,670.6358 C1495.4204,670.6358 1513.4204,670.6358 1513.4204,660.6358" fill="none" style="stroke:#181818;stroke-width:0.5;"/></g><g class="participant participant-head" data-entity-uid="part7" data-qualified-name="Events" data-source-line="9" id="part7-head"><text fill="#000000" font-family="sans-serif" font-size="14" lengthAdjust="spacing" textLength="97.9996" x="1550.4202" y="125.1018">&#20844;&#20247;&#27963;&#21160;&#23384;&#20648;&#22120;</text><path d="M1584.42,74.1358 C1584.42,64.1358 1602.42,64.1358 1602.42,64.1358 C1602.42,64.1358 1620.42,64.1358 1620.42,74.1358 L1620.42,100.1358 C1620.42,110.1358 1602.42,110.1358 1602.42,110.1358 C1602.42,110.1358 1584.42,110.1358 1584.42,100.1358 L1584.42,74.1358" fill="#E2E2F0" style="stroke:#181818;stroke-width:0.5;"/><path d="M1584.42,74.1358 C1584.42,84.1358 1602.42,84.1358 1602.42,84.1358 C1602.42,84.1358 1620.42,84.1358 1620.42,74.1358" fill="none" style="stroke:#181818;stroke-width:0.5;"/></g><g class="participant participant-tail" data-entity-uid="part7" data-qualified-name="Events" data-source-line="9" id="part7-tail"><text fill="#000000" font-family="sans-serif" font-size="14" lengthAdjust="spacing" textLength="97.9996" x="1550.4202" y="627.466">&#20844;&#20247;&#27963;&#21160;&#23384;&#20648;&#22120;</text><path d="M1584.42,641.5679 C1584.42,631.5679 1602.42,631.5679 1602.42,631.5679 C1602.42,631.5679 1620.42,631.5679 1620.42,641.5679 L1620.42,667.5679 C1620.42,677.5679 1602.42,677.5679 1602.42,677.5679 C1602.42,677.5679 1584.42,677.5679 1584.42,667.5679 L1584.42,641.5679" fill="#E2E2F0" style="stroke:#181818;stroke-width:0.5;"/><path d="M1584.42,641.5679 C1584.42,651.5679 1602.42,651.5679 1602.42,651.5679 C1602.42,651.5679 1620.42,651.5679 1620.42,641.5679" fill="none" style="stroke:#181818;stroke-width:0.5;"/></g><g class="participant participant-head" data-entity-uid="part8" data-qualified-name="Dispatcher" data-source-line="10" id="part8-head"><rect fill="#E2E2F0" height="33.0679" rx="2.5" ry="2.5" style="stroke:#181818;stroke-width:0.5;" width="132.4675" x="1664.4198" y="95.1358"/><text fill="#000000" font-family="sans-serif" font-size="14" lengthAdjust="spacing" textLength="118.4675" x="1671.4198" y="117.1018">&#25511;&#21046;&#22120; WebSocket</text></g><g class="participant participant-tail" data-entity-uid="part8" data-qualified-name="Dispatcher" data-source-line="10" id="part8-tail"><rect fill="#E2E2F0" height="33.0679" rx="2.5" ry="2.5" style="stroke:#181818;stroke-width:0.5;" width="132.4675" x="1664.4198" y="612.5"/><text fill="#000000" font-family="sans-serif" font-size="14" lengthAdjust="spacing" textLength="118.4675" x="1671.4198" y="634.466">&#25511;&#21046;&#22120; WebSocket</text></g><g class="participant participant-head" data-entity-uid="part9" data-qualified-name="WS" data-source-line="11" id="part9-head"><text fill="#000000" font-family="sans-serif" font-size="14" lengthAdjust="spacing" textLength="118.4675" x="1806.8873" y="125.1018">&#23458;&#25143;&#31471; WebSocket</text><ellipse cx="1869.1211" cy="58.6358" fill="#E2E2F0" rx="8" ry="8" style="stroke:#181818;stroke-width:0.5;"/><path d="M1869.1211,66.6358 L1869.1211,93.6358 M1856.1211,74.6358 L1882.1211,74.6358 M1869.1211,93.6358 L1856.1211,108.6358 M1869.1211,93.6358 L1882.1211,108.6358" fill="none" style="stroke:#181818;stroke-width:0.5;"/></g><g class="participant participant-tail" data-entity-uid="part9" data-qualified-name="WS" data-source-line="11" id="part9-tail"><text fill="#000000" font-family="sans-serif" font-size="14" lengthAdjust="spacing" textLength="118.4675" x="1806.8873" y="627.466">&#23458;&#25143;&#31471; WebSocket</text><ellipse cx="1869.1211" cy="640.0679" fill="#E2E2F0" rx="8" ry="8" style="stroke:#181818;stroke-width:0.5;"/><path d="M1869.1211,648.0679 L1869.1211,675.0679 M1856.1211,656.0679 L1882.1211,656.0679 M1869.1211,675.0679 L1856.1211,690.0679 M1869.1211,675.0679 L1882.1211,690.0679" fill="none" style="stroke:#181818;stroke-width:0.5;"/></g><g class="message" data-entity-1="part1" data-entity-2="part2" data-source-line="12" id="msg1"><polygon fill="#181818" points="420.2102,158.9098,430.2102,162.9098,420.2102,166.9098,424.2102,162.9098" style="stroke:#181818;stroke-width:1;stroke-linejoin:miter;stroke-miterlimit:10;"/><line style="stroke:#181818;stroke-width:1;" x1="28.9999" x2="426.2102" y1="162.9098" y2="162.9098"/><text fill="#000000" font-family="sans-serif" font-size="13" lengthAdjust="spacing" textLength="379.2103" x="35.9999" y="157.1008">DELETE /api/workspace/v1/messenger/streams/{stream_uuid}</text></g><g class="message" data-entity-1="part2" data-entity-2="part3" data-source-line="13" id="msg2"><polygon fill="#181818" points="791.2585,190.6158,801.2585,194.6158,791.2585,198.6158,795.2585,194.6158" style="stroke:#181818;stroke-width:1;stroke-linejoin:miter;stroke-miterlimit:10;"/><line style="stroke:#181818;stroke-width:1;" x1="432.2102" x2="797.2585" y1="194.6158" y2="194.6158"/><text fill="#000000" font-family="sans-serif" font-size="13" lengthAdjust="spacing" textLength="347.0483" x="439.2102" y="188.8068">&#20132;&#26131;&#24320;&#22987;; &#21024;&#38500;&#26681; STREAM + &#21548;&#20247;&#24405;&#38899; transactional outbox</text></g><g class="message" data-entity-1="part2" data-entity-2="part3" data-source-line="14" id="msg3"><polygon fill="#181818" points="791.2585,222.3218,801.2585,226.3218,791.2585,230.3218,795.2585,226.3218" style="stroke:#181818;stroke-width:1;stroke-linejoin:miter;stroke-miterlimit:10;"/><line style="stroke:#181818;stroke-width:1;" x1="432.2102" x2="797.2585" y1="226.3218" y2="226.3218"/><text fill="#000000" font-family="sans-serif" font-size="13" lengthAdjust="spacing" textLength="285.8313" x="439.2102" y="220.5128">&#22312;&#27492;&#20013;&#28155;&#21152;&#19981;&#21487;&#26356;&#25913;&#30340;&#35760;&#24405; transactional outbox</text></g><g class="message" data-entity-1="part3" data-entity-2="part2" data-source-line="15" id="msg4"><polygon fill="#181818" points="443.2102,254.0278,433.2102,258.0278,443.2102,262.0278,439.2102,258.0278" style="stroke:#181818;stroke-width:1;stroke-linejoin:miter;stroke-miterlimit:10;"/><line style="stroke:#181818;stroke-width:1;stroke-dasharray:2,2;" x1="437.2102" x2="802.2585" y1="258.0278" y2="258.0278"/><text fill="#000000" font-family="sans-serif" font-size="13" lengthAdjust="spacing" textLength="65.0001" x="449.2102" y="252.2188">&#20132;&#26131;&#30340;&#22266;&#23450;</text></g><g class="message" data-entity-1="part2" data-entity-2="part1" data-source-line="16" id="msg5"><polygon fill="#181818" points="39.9999,285.7338,29.9999,289.7338,39.9999,293.7338,35.9999,289.7338" style="stroke:#181818;stroke-width:1;stroke-linejoin:miter;stroke-miterlimit:10;"/><line style="stroke:#181818;stroke-width:1;stroke-dasharray:2,2;" x1="33.9999" x2="431.2102" y1="289.7338" y2="289.7338"/><text fill="#000000" font-family="sans-serif" font-size="13" lengthAdjust="spacing" textLength="91.0001" x="45.9999" y="283.9248">&#25104;&#21151;&#30340;&#20844;&#24320;&#22238;&#22797;</text></g><g class="message" data-entity-1="part3" data-entity-2="part4" data-source-line="17" id="msg6"><line style="stroke:#181818;stroke-width:1;" x1="936.356" x2="926.356" y1="321.4398" y2="317.4398"/><line style="stroke:#181818;stroke-width:1;" x1="936.356" x2="926.356" y1="321.4398" y2="325.4398"/><line style="stroke:#181818;stroke-width:1;" x1="803.2585" x2="937.356" y1="321.4398" y2="321.4398"/><text fill="#000000" font-family="sans-serif" font-size="13" lengthAdjust="spacing" textLength="78.0001" x="810.2585" y="315.6308">&#24050;&#35760;&#24405;&#30340;&#20107;&#20214;</text></g><g class="message" data-entity-1="part4" data-entity-2="part5" data-source-line="18" id="msg7"><line style="stroke:#181818;stroke-width:1;" x1="1272.0052" x2="1262.0052" y1="388.5579" y2="384.5579"/><line style="stroke:#181818;stroke-width:1;" x1="1272.0052" x2="1262.0052" y1="388.5579" y2="392.5579"/><line style="stroke:#181818;stroke-width:1;" x1="938.356" x2="1273.0052" y1="388.5579" y2="388.5579"/><text fill="#000000" font-family="sans-serif" font-size="13" lengthAdjust="spacing" textLength="311.6492" x="945.356" y="347.3369">topic_membership_policy_rebuild / read_counters /</text><text fill="#000000" font-family="sans-serif" font-size="13" lengthAdjust="spacing" textLength="265.7332" x="945.356" y="365.0429">folder_projection / delivery_snapshot_event</text><text fill="#000000" font-family="sans-serif" font-size="13" lengthAdjust="spacing" textLength="242.5802" x="945.356" y="382.7489">&#27599;&#19968;&#20010; task &#26377;&#33258;&#24049;&#30340; outbox_event_uuid</text></g><g class="message" data-entity-1="part5" data-entity-2="part5" data-source-line="19" id="msg8"><line style="stroke:#181818;stroke-width:1;" x1="1274.0052" x2="1316.0052" y1="437.9699" y2="437.9699"/><line style="stroke:#181818;stroke-width:1;" x1="1316.0052" x2="1316.0052" y1="437.9699" y2="450.9699"/><line style="stroke:#181818;stroke-width:1;" x1="1275.0052" x2="1316.0052" y1="450.9699" y2="450.9699"/><polygon fill="#181818" points="1285.0052,446.9699,1275.0052,450.9699,1285.0052,454.9699,1281.0052,450.9699" style="stroke:#181818;stroke-width:1;stroke-linejoin:miter;stroke-miterlimit:10;"/><text fill="#000000" font-family="sans-serif" font-size="13" lengthAdjust="spacing" textLength="207.4152" x="1281.0052" y="414.4549">claim exact scope; &#20026;&#20102; topic work</text><text fill="#000000" font-family="sans-serif" font-size="13" lengthAdjust="spacing" textLength="161.2392" x="1281.0052" y="432.1609">MESSAGE.created_at DESC</text></g><g class="message" data-entity-1="part5" data-entity-2="part6" data-source-line="20" id="msg9"><polygon fill="#181818" points="1483.4204,478.6759,1493.4204,482.6759,1483.4204,486.6759,1487.4204,482.6759" style="stroke:#181818;stroke-width:1;stroke-linejoin:miter;stroke-miterlimit:10;"/><line style="stroke:#181818;stroke-width:1;" x1="1274.0052" x2="1489.4204" y1="482.6759" y2="482.6759"/><text fill="#000000" font-family="sans-serif" font-size="13" lengthAdjust="spacing" textLength="121.8361" x="1281.0052" y="476.8669">&#21097;&#19979;&#30340;&#25991;&#20214;/&#23481;&#22120;&#32465;&#23450;</text></g><g class="message" data-entity-1="part5" data-entity-2="part7" data-source-line="21" id="msg10"><polygon fill="#181818" points="1590.42,528.088,1600.42,532.088,1590.42,536.088,1594.42,532.088" style="stroke:#181818;stroke-width:1;stroke-linejoin:miter;stroke-miterlimit:10;"/><line style="stroke:#181818;stroke-width:1;" x1="1274.0052" x2="1596.42" y1="532.088" y2="532.088"/><text fill="#000000" font-family="sans-serif" font-size="13" lengthAdjust="spacing" textLength="197.9902" x="1281.0052" y="508.573">stream.deleted + folder.updated</text><text fill="#000000" font-family="sans-serif" font-size="13" lengthAdjust="spacing" textLength="188.1752" x="1281.0052" y="526.279">&#21407;&#23376;&#22312;&#19968;&#20010; DB transaction &#25237;&#24433;</text></g><g class="message" data-entity-1="part7" data-entity-2="part8" data-source-line="22" id="msg11"><line style="stroke:#181818;stroke-width:1;" x1="1728.6536" x2="1718.6536" y1="563.794" y2="559.794"/><line style="stroke:#181818;stroke-width:1;" x1="1728.6536" x2="1718.6536" y1="563.794" y2="567.794"/><line style="stroke:#181818;stroke-width:1;" x1="1602.42" x2="1729.6536" y1="563.794" y2="563.794"/><text fill="#000000" font-family="sans-serif" font-size="13" lengthAdjust="spacing" textLength="91.0001" x="1609.42" y="557.985">&#24050;&#22266;&#23450;&#30340;&#20934;&#22791;&#34892;</text></g><g class="message" data-entity-1="part8" data-entity-2="part9" data-source-line="23" id="msg12"><line style="stroke:#181818;stroke-width:1;" x1="1867.1211" x2="1857.1211" y1="595.5" y2="591.5"/><line style="stroke:#181818;stroke-width:1;" x1="1867.1211" x2="1857.1211" y1="595.5" y2="599.5"/><line style="stroke:#181818;stroke-width:1;" x1="1730.6536" x2="1868.1211" y1="595.5" y2="595.5"/><text fill="#000000" font-family="sans-serif" font-size="13" lengthAdjust="spacing" textLength="101.1921" x="1737.6536" y="589.691">&#21457;&#36865; / &#37325;&#22797; / &#22797;&#21046;</text></g><?plantuml-src bLHRJnD167tVN_79gv6DhpKXuT8O4udeal1WpMQw7M1bExlEJ55YJ531Lku6K172nTHGBu2eiQL5_JCxI_aNVhi3KYyllZIRpFdEdE-SCpqNS3AK9-2HCRyWGUIf98mOqfKUXPxqrNH_6amIkEPTdu-8W3ZK7BrevgaGb0rHRWh9ASaBywR-i0i5DtVB88xqERIftTTHgNhqVgyDY81kpwLC6W7XqdNSW309RGEdh5OotkqpoNtFepp3Rb0XEprdcER7al7ElYj6ZaYI9O92Mvylv12drlMh6TRSdb2bbURM39o7eyOpjVig6UZfCkuKQ071_PmmWPfSdn4FSC-iVo_34BpVKElJQkPvs6YegQsZLnFDxukgM4_6hoMmt-Ks7yz4AtlDhKfqkDGSdymmUWzfGJX-GC6Zg4oWXa7A79SD9IpnWfIt25VLJwhuH9MBU5iqjQo-xUC2FzQZkJTgzq2jL9AfFkxVfedUrid93-7XY-WBIgsedPVgKUKKdXv5OyNlKgEvRLNwYWWOe5dBTqQerAwuwBT4M_bVAVs17B0C7HbSw8ZTJ_rF7-wtzE61WTCnIKzN2i9wENgvg0x7rVRq9L2bpUELShHv05R_ZNHdBxgd5k8rrRVbuutF8F-HN2kRMgj4E-MmjXDLqPRDi3QhvlUYrI_Hqa6Svkv7vFatIKyNN3ZTIsl20RLQn_Re2_1Ghv-2gBIWfZRYyyaFiVBLTLMUJHWwEavwWbAgd_HzY0lhqs7Zgw6F4fJkGGga7xYEdQVvBELYs0timFTSPypcD5jmlHoOWBRbRCSlC8a8C3DiqFTobDl1hquWA4SzTvJoCLim4eXXNzeqxa26HNlpOMqyhBq3ISG8H6jFcyLtghgFeausryWa64EhYiqyrUTunCr3IwqlGLYhX_KdMZd4iMTORzgoEY-dsnqKAsdE9XAxONMty9qr69rv-ZQiJSTzVrv4MqnTTFrIMqPqYrEWczEEArBaZjzJOa1x8SZ5bsMOcjjGEmiO_Scc64HBnA1VbQ7f4lFFEf_4f5EEuqmU8lvn66S8dPQ5mFbdn-CFqUlZuYp6ZH_uYq_g9m00?></g></svg>