<svg xmlns="http://www.w3.org/2000/svg" xmlns:xlink="http://www.w3.org/1999/xlink" contentStyleType="text/css" data-diagram-type="SEQUENCE" height="727px" preserveAspectRatio="none" style="width:2094px;height:727px;background:#FFFFFF;" version="1.1" viewBox="0 0 2094 727" width="2094px" zoomAndPan="magnify"><?plantuml 1.2026.6?><defs/><g><g class="title" data-source-line="2"><text fill="#000000" font-family="sans-serif" font-size="14" font-weight="700" lengthAdjust="spacing" textLength="590.4199" x="748.7775" y="29.9659">POST /api/workspace/v1/messenger/stream_topics/[topic_uuid]/actions/read/invoke</text></g><g class="participant-lifeline" data-entity-uid="part1" data-qualified-name="Client" data-source-line="3" id="part1-lifeline"><g><title>...</title><rect fill="#000000" fill-opacity="0.00000" height="508.0023" width="8" x="24.9999" y="129.2038"/><line style="stroke:#181818;stroke-width:0.5;stroke-dasharray:5,5;" x1="28" x2="28" y1="129.2038" y2="637.206"/></g></g><g class="participant-lifeline" data-entity-uid="part2" data-qualified-name="API" data-source-line="4" id="part2-lifeline"><g><title>WorkspaceStreamTopicController</title><rect fill="#000000" fill-opacity="0.00000" height="508.0023" width="8" x="564.7101" y="129.2038"/><line style="stroke:#181818;stroke-width:0.5;stroke-dasharray:5,5;" x1="568.0755" x2="568.0755" y1="129.2038" y2="637.206"/></g></g><g class="participant-lifeline" data-entity-uid="part3" data-qualified-name="DB" data-source-line="5" id="part3-lifeline"><g><title>PostgreSQL</title><rect fill="#000000" fill-opacity="0.00000" height="508.0023" width="8" x="805.3553" y="129.2038"/><line style="stroke:#181818;stroke-width:0.5;stroke-dasharray:5,5;" x1="808.7115" x2="808.7115" y1="129.2038" y2="637.206"/></g></g><g class="participant-lifeline" data-entity-uid="part4" data-qualified-name="Outbox" data-source-line="6" id="part4-lifeline"><g><title>Transactional outbox</title><rect fill="#000000" fill-opacity="0.00000" height="508.0023" width="8" x="940.4529" y="129.2038"/><line style="stroke:#181818;stroke-width:0.5;stroke-dasharray:5,5;" x1="943.9991" x2="943.9991" y1="129.2038" y2="637.206"/></g></g><g class="participant-lifeline" data-entity-uid="part5" data-qualified-name="Worker" data-source-line="7" id="part5-lifeline"><g><title>Scope workers</title><rect fill="#000000" fill-opacity="0.00000" height="508.0023" width="8" x="1282.6932" y="129.2038"/><line style="stroke:#181818;stroke-width:0.5;stroke-dasharray:5,5;" x1="1286.5884" x2="1286.5884" y1="129.2038" y2="637.206"/></g></g><g class="participant-lifeline" data-entity-uid="part6" data-qualified-name="Projection" data-source-line="8" id="part6-lifeline"><g><title>......</title><rect fill="#000000" fill-opacity="0.00000" height="508.0023" width="8" x="1644.0404" y="129.2038"/><line style="stroke:#181818;stroke-width:0.5;stroke-dasharray:5,5;" x1="1647.0406" x2="1647.0406" y1="129.2038" y2="637.206"/></g></g><g class="participant-lifeline" data-entity-uid="part7" data-qualified-name="Events" data-source-line="9" id="part7-lifeline"><g><title>.......</title><rect fill="#000000" fill-opacity="0.00000" height="508.0023" width="8" x="1751.04" y="129.2038"/><line style="stroke:#181818;stroke-width:0.5;stroke-dasharray:5,5;" x1="1754.0402" x2="1754.0402" y1="129.2038" y2="637.206"/></g></g><g class="participant-lifeline" data-entity-uid="part8" data-qualified-name="Dispatcher" data-source-line="10" id="part8-lifeline"><g><title>... WebSocket</title><rect fill="#000000" fill-opacity="0.00000" height="508.0023" width="8" x="1879.2736" y="129.2038"/><line style="stroke:#181818;stroke-width:0.5;stroke-dasharray:5,5;" x1="1883.0398" x2="1883.0398" y1="129.2038" y2="637.206"/></g></g><g class="participant-lifeline" data-entity-uid="part9" data-qualified-name="WS" data-source-line="11" id="part9-lifeline"><g><title>... WebSocket</title><rect fill="#000000" fill-opacity="0.00000" height="508.0023" width="8" x="2017.7411" y="129.2038"/><line style="stroke:#181818;stroke-width:0.5;stroke-dasharray:5,5;" x1="2021.5073" x2="2021.5073" y1="129.2038" y2="637.206"/></g></g><g class="participant participant-head" data-entity-uid="part1" data-qualified-name="Client" data-source-line="3" id="part1-head"><text fill="#000000" font-family="sans-serif" font-size="14" lengthAdjust="spacing" textLength="41.9998" x="5" y="125.1018">&#23458;&#25143;&#31471;</text><ellipse cx="28.9999" cy="58.6358" fill="#E2E2F0" rx="8" ry="8" style="stroke:#181818;stroke-width:0.5;"/><path d="M28.9999,66.6358 L28.9999,93.6358 M15.9999,74.6358 L41.9999,74.6358 M28.9999,93.6358 L15.9999,108.6358 M28.9999,93.6358 L41.9999,108.6358" fill="none" style="stroke:#181818;stroke-width:0.5;"/></g><g class="participant participant-tail" data-entity-uid="part1" data-qualified-name="Client" data-source-line="3" id="part1-tail"><text fill="#000000" font-family="sans-serif" font-size="14" lengthAdjust="spacing" textLength="41.9998" x="5" y="651.172">&#23458;&#25143;&#31471;</text><ellipse cx="28.9999" cy="663.7739" fill="#E2E2F0" rx="8" ry="8" style="stroke:#181818;stroke-width:0.5;"/><path d="M28.9999,671.7739 L28.9999,698.7739 M15.9999,679.7739 L41.9999,679.7739 M28.9999,698.7739 L15.9999,713.7739 M28.9999,698.7739 L41.9999,713.7739" fill="none" style="stroke:#181818;stroke-width:0.5;"/></g><g class="participant participant-head" data-entity-uid="part2" data-qualified-name="API" data-source-line="4" id="part2-head"><rect fill="#E2E2F0" height="52.1358" rx="2.5" ry="2.5" style="stroke:#181818;stroke-width:0.5;" width="235.2692" x="451.0755" y="76.0679"/><text fill="#000000" font-family="sans-serif" font-size="14" lengthAdjust="spacing" textLength="221.2692" x="458.0755" y="98.0339">WorkspaceStreamTopicController</text><text fill="#000000" font-family="sans-serif" font-size="14" lengthAdjust="spacing" textLength="84.4197" x="526.5003" y="117.1018">RestAlchemy</text></g><g class="participant participant-tail" data-entity-uid="part2" data-qualified-name="API" data-source-line="4" id="part2-tail"><rect fill="#E2E2F0" height="52.1358" rx="2.5" ry="2.5" style="stroke:#181818;stroke-width:0.5;" width="235.2692" x="451.0755" y="636.206"/><text fill="#000000" font-family="sans-serif" font-size="14" lengthAdjust="spacing" textLength="221.2692" x="458.0755" y="658.172">WorkspaceStreamTopicController</text><text fill="#000000" font-family="sans-serif" font-size="14" lengthAdjust="spacing" textLength="84.4197" x="526.5003" y="677.2399">RestAlchemy</text></g><g class="participant participant-head" data-entity-uid="part3" data-qualified-name="DB" data-source-line="5" id="part3-head"><text fill="#000000" font-family="sans-serif" font-size="14" lengthAdjust="spacing" textLength="76.9437" x="767.8835" y="106.0339">PostgreSQL</text><text fill="#000000" font-family="sans-serif" font-size="14" lengthAdjust="spacing" textLength="85.2876" x="763.7115" y="125.1018">&#35268;&#21017;&#34892; + &#32465;&#23450;</text><path d="M791.3553,55.0679 C791.3553,45.0679 809.3553,45.0679 809.3553,45.0679 C809.3553,45.0679 827.3553,45.0679 827.3553,55.0679 L827.3553,81.0679 C827.3553,91.0679 809.3553,91.0679 809.3553,91.0679 C809.3553,91.0679 791.3553,91.0679 791.3553,81.0679 L791.3553,55.0679" fill="#E2E2F0" style="stroke:#181818;stroke-width:0.5;"/><path d="M791.3553,55.0679 C791.3553,65.0679 809.3553,65.0679 809.3553,65.0679 C809.3553,65.0679 827.3553,65.0679 827.3553,55.0679" fill="none" style="stroke:#181818;stroke-width:0.5;"/></g><g class="participant participant-tail" data-entity-uid="part3" data-qualified-name="DB" data-source-line="5" id="part3-tail"><text fill="#000000" font-family="sans-serif" font-size="14" lengthAdjust="spacing" textLength="76.9437" x="767.8835" y="651.172">PostgreSQL</text><text fill="#000000" font-family="sans-serif" font-size="14" lengthAdjust="spacing" textLength="85.2876" x="763.7115" y="670.2399">&#35268;&#21017;&#34892; + &#32465;&#23450;</text><path d="M791.3553,684.3419 C791.3553,674.3419 809.3553,674.3419 809.3553,674.3419 C809.3553,674.3419 827.3553,674.3419 827.3553,684.3419 L827.3553,710.3419 C827.3553,720.3419 809.3553,720.3419 809.3553,720.3419 C809.3553,720.3419 791.3553,720.3419 791.3553,710.3419 L791.3553,684.3419" fill="#E2E2F0" style="stroke:#181818;stroke-width:0.5;"/><path d="M791.3553,684.3419 C791.3553,694.3419 809.3553,694.3419 809.3553,694.3419 C809.3553,694.3419 827.3553,694.3419 827.3553,684.3419" fill="none" style="stroke:#181818;stroke-width:0.5;"/></g><g class="participant participant-head" data-entity-uid="part4" data-qualified-name="Outbox" data-source-line="6" id="part4-head"><path d="M869.9991,81.0679 L1018.9066,81.0679 C1023.9066,81.0679 1023.9066,105.1358 1023.9066,105.1358 C1023.9066,105.1358 1023.9066,129.2038 1018.9066,129.2038 L869.9991,129.2038 C864.9991,129.2038 864.9991,105.1358 864.9991,105.1358 C864.9991,105.1358 864.9991,81.0679 869.9991,81.0679" fill="#E2E2F0" style="stroke:#181818;stroke-width:0.5;"/><path d="M1018.9066,81.0679 C1013.9066,81.0679 1013.9066,105.1358 1013.9066,105.1358 C1013.9066,129.2038 1018.9066,129.2038 1018.9066,129.2038" fill="none" style="stroke:#181818;stroke-width:0.5;"/><text fill="#000000" font-family="sans-serif" font-size="14" lengthAdjust="spacing" textLength="138.9075" x="869.9991" y="101.0339">Transactional outbox</text><text fill="#000000" font-family="sans-serif" font-size="14" lengthAdjust="spacing" textLength="123.6475" x="877.6292" y="120.1018">+ &#31867;&#22411;&#21270;&#20219;&#21153;&#30340;&#36755;&#20986;</text></g><g class="participant participant-tail" data-entity-uid="part4" data-qualified-name="Outbox" data-source-line="6" id="part4-tail"><path d="M869.9991,636.206 L1018.9066,636.206 C1023.9066,636.206 1023.9066,660.2739 1023.9066,660.2739 C1023.9066,660.2739 1023.9066,684.3419 1018.9066,684.3419 L869.9991,684.3419 C864.9991,684.3419 864.9991,660.2739 864.9991,660.2739 C864.9991,660.2739 864.9991,636.206 869.9991,636.206" fill="#E2E2F0" style="stroke:#181818;stroke-width:0.5;"/><path d="M1018.9066,636.206 C1013.9066,636.206 1013.9066,660.2739 1013.9066,660.2739 C1013.9066,684.3419 1018.9066,684.3419 1018.9066,684.3419" fill="none" style="stroke:#181818;stroke-width:0.5;"/><text fill="#000000" font-family="sans-serif" font-size="14" lengthAdjust="spacing" textLength="138.9075" x="869.9991" y="656.172">Transactional outbox</text><text fill="#000000" font-family="sans-serif" font-size="14" lengthAdjust="spacing" textLength="123.6475" x="877.6292" y="675.2399">+ &#31867;&#22411;&#21270;&#20219;&#21153;&#30340;&#36755;&#20986;</text></g><g class="participant participant-head" data-entity-uid="part5" data-qualified-name="Worker" data-source-line="7" id="part5-head"><rect fill="#E2E2F0" height="52.1358" rx="2.5" ry="2.5" style="stroke:#181818;stroke-width:0.5;" width="112.2096" x="1230.5884" y="76.0679"/><text fill="#000000" font-family="sans-serif" font-size="14" lengthAdjust="spacing" textLength="96.1376" x="1238.6244" y="98.0339">Scope workers</text><text fill="#000000" font-family="sans-serif" font-size="14" lengthAdjust="spacing" textLength="98.2096" x="1237.5884" y="117.1018">lease + fencing</text></g><g class="participant participant-tail" data-entity-uid="part5" data-qualified-name="Worker" data-source-line="7" id="part5-tail"><rect fill="#E2E2F0" height="52.1358" rx="2.5" ry="2.5" style="stroke:#181818;stroke-width:0.5;" width="112.2096" x="1230.5884" y="636.206"/><text fill="#000000" font-family="sans-serif" font-size="14" lengthAdjust="spacing" textLength="96.1376" x="1238.6244" y="658.172">Scope workers</text><text fill="#000000" font-family="sans-serif" font-size="14" lengthAdjust="spacing" textLength="98.2096" x="1237.5884" y="677.2399">lease + fencing</text></g><g class="participant participant-head" data-entity-uid="part6" data-qualified-name="Projection" data-source-line="8" id="part6-head"><text fill="#000000" font-family="sans-serif" font-size="14" lengthAdjust="spacing" textLength="83.9996" x="1603.0406" y="106.0339">&#24050;&#20934;&#22791;&#30340;&#25237;&#24433;</text><text fill="#000000" font-family="sans-serif" font-size="14" lengthAdjust="spacing" textLength="55.9998" x="1617.0405" y="125.1018">&#36830;&#25509;&#23481;&#22120;</text><path d="M1630.0404,55.0679 C1630.0404,45.0679 1648.0404,45.0679 1648.0404,45.0679 C1648.0404,45.0679 1666.0404,45.0679 1666.0404,55.0679 L1666.0404,81.0679 C1666.0404,91.0679 1648.0404,91.0679 1648.0404,91.0679 C1648.0404,91.0679 1630.0404,91.0679 1630.0404,81.0679 L1630.0404,55.0679" fill="#E2E2F0" style="stroke:#181818;stroke-width:0.5;"/><path d="M1630.0404,55.0679 C1630.0404,65.0679 1648.0404,65.0679 1648.0404,65.0679 C1648.0404,65.0679 1666.0404,65.0679 1666.0404,55.0679" fill="none" style="stroke:#181818;stroke-width:0.5;"/></g><g class="participant participant-tail" data-entity-uid="part6" data-qualified-name="Projection" data-source-line="8" id="part6-tail"><text fill="#000000" font-family="sans-serif" font-size="14" lengthAdjust="spacing" textLength="83.9996" x="1603.0406" y="651.172">&#24050;&#20934;&#22791;&#30340;&#25237;&#24433;</text><text fill="#000000" font-family="sans-serif" font-size="14" lengthAdjust="spacing" textLength="55.9998" x="1617.0405" y="670.2399">&#36830;&#25509;&#23481;&#22120;</text><path d="M1630.0404,684.3419 C1630.0404,674.3419 1648.0404,674.3419 1648.0404,674.3419 C1648.0404,674.3419 1666.0404,674.3419 1666.0404,684.3419 L1666.0404,710.3419 C1666.0404,720.3419 1648.0404,720.3419 1648.0404,720.3419 C1648.0404,720.3419 1630.0404,720.3419 1630.0404,710.3419 L1630.0404,684.3419" fill="#E2E2F0" style="stroke:#181818;stroke-width:0.5;"/><path d="M1630.0404,684.3419 C1630.0404,694.3419 1648.0404,694.3419 1648.0404,694.3419 C1648.0404,694.3419 1666.0404,694.3419 1666.0404,684.3419" fill="none" style="stroke:#181818;stroke-width:0.5;"/></g><g class="participant participant-head" data-entity-uid="part7" data-qualified-name="Events" data-source-line="9" id="part7-head"><text fill="#000000" font-family="sans-serif" font-size="14" lengthAdjust="spacing" textLength="97.9996" x="1703.0402" y="125.1018">&#20844;&#20247;&#27963;&#21160;&#23384;&#20648;&#22120;</text><path d="M1737.04,74.1358 C1737.04,64.1358 1755.04,64.1358 1755.04,64.1358 C1755.04,64.1358 1773.04,64.1358 1773.04,74.1358 L1773.04,100.1358 C1773.04,110.1358 1755.04,110.1358 1755.04,110.1358 C1755.04,110.1358 1737.04,110.1358 1737.04,100.1358 L1737.04,74.1358" fill="#E2E2F0" style="stroke:#181818;stroke-width:0.5;"/><path d="M1737.04,74.1358 C1737.04,84.1358 1755.04,84.1358 1755.04,84.1358 C1755.04,84.1358 1773.04,84.1358 1773.04,74.1358" fill="none" style="stroke:#181818;stroke-width:0.5;"/></g><g class="participant participant-tail" data-entity-uid="part7" data-qualified-name="Events" data-source-line="9" id="part7-tail"><text fill="#000000" font-family="sans-serif" font-size="14" lengthAdjust="spacing" textLength="97.9996" x="1703.0402" y="651.172">&#20844;&#20247;&#27963;&#21160;&#23384;&#20648;&#22120;</text><path d="M1737.04,665.2739 C1737.04,655.2739 1755.04,655.2739 1755.04,655.2739 C1755.04,655.2739 1773.04,655.2739 1773.04,665.2739 L1773.04,691.2739 C1773.04,701.2739 1755.04,701.2739 1755.04,701.2739 C1755.04,701.2739 1737.04,701.2739 1737.04,691.2739 L1737.04,665.2739" fill="#E2E2F0" style="stroke:#181818;stroke-width:0.5;"/><path d="M1737.04,665.2739 C1737.04,675.2739 1755.04,675.2739 1755.04,675.2739 C1755.04,675.2739 1773.04,675.2739 1773.04,665.2739" fill="none" style="stroke:#181818;stroke-width:0.5;"/></g><g class="participant participant-head" data-entity-uid="part8" data-qualified-name="Dispatcher" data-source-line="10" id="part8-head"><rect fill="#E2E2F0" height="33.0679" rx="2.5" ry="2.5" style="stroke:#181818;stroke-width:0.5;" width="132.4675" x="1817.0398" y="95.1358"/><text fill="#000000" font-family="sans-serif" font-size="14" lengthAdjust="spacing" textLength="118.4675" x="1824.0398" y="117.1018">&#25511;&#21046;&#22120; WebSocket</text></g><g class="participant participant-tail" data-entity-uid="part8" data-qualified-name="Dispatcher" data-source-line="10" id="part8-tail"><rect fill="#E2E2F0" height="33.0679" rx="2.5" ry="2.5" style="stroke:#181818;stroke-width:0.5;" width="132.4675" x="1817.0398" y="636.206"/><text fill="#000000" font-family="sans-serif" font-size="14" lengthAdjust="spacing" textLength="118.4675" x="1824.0398" y="658.172">&#25511;&#21046;&#22120; WebSocket</text></g><g class="participant participant-head" data-entity-uid="part9" data-qualified-name="WS" data-source-line="11" id="part9-head"><text fill="#000000" font-family="sans-serif" font-size="14" lengthAdjust="spacing" textLength="118.4675" x="1959.5073" y="125.1018">&#23458;&#25143;&#31471; WebSocket</text><ellipse cx="2021.7411" cy="58.6358" fill="#E2E2F0" rx="8" ry="8" style="stroke:#181818;stroke-width:0.5;"/><path d="M2021.7411,66.6358 L2021.7411,93.6358 M2008.7411,74.6358 L2034.7411,74.6358 M2021.7411,93.6358 L2008.7411,108.6358 M2021.7411,93.6358 L2034.7411,108.6358" fill="none" style="stroke:#181818;stroke-width:0.5;"/></g><g class="participant participant-tail" data-entity-uid="part9" data-qualified-name="WS" data-source-line="11" id="part9-tail"><text fill="#000000" font-family="sans-serif" font-size="14" lengthAdjust="spacing" textLength="118.4675" x="1959.5073" y="651.172">&#23458;&#25143;&#31471; WebSocket</text><ellipse cx="2021.7411" cy="663.7739" fill="#E2E2F0" rx="8" ry="8" style="stroke:#181818;stroke-width:0.5;"/><path d="M2021.7411,671.7739 L2021.7411,698.7739 M2008.7411,679.7739 L2034.7411,679.7739 M2021.7411,698.7739 L2008.7411,713.7739 M2021.7411,698.7739 L2034.7411,713.7739" fill="none" style="stroke:#181818;stroke-width:0.5;"/></g><g class="message" data-entity-1="part1" data-entity-2="part2" data-source-line="12" id="msg1"><polygon fill="#181818" points="556.7101,158.9098,566.7101,162.9098,556.7101,166.9098,560.7101,162.9098" style="stroke:#181818;stroke-width:1;stroke-linejoin:miter;stroke-miterlimit:10;"/><line style="stroke:#181818;stroke-width:1;" x1="28.9999" x2="562.7101" y1="162.9098" y2="162.9098"/><text fill="#000000" font-family="sans-serif" font-size="13" lengthAdjust="spacing" textLength="515.7102" x="35.9999" y="157.1008">POST /api/workspace/v1/messenger/stream_topics/{topic_uuid}/actions/read/invoke</text></g><g class="message" data-entity-1="part2" data-entity-2="part3" data-source-line="13" id="msg2"><polygon fill="#181818" points="797.3553,208.3218,807.3553,212.3218,797.3553,216.3218,801.3553,212.3218" style="stroke:#181818;stroke-width:1;stroke-linejoin:miter;stroke-miterlimit:10;"/><line style="stroke:#181818;stroke-width:1;" x1="568.7101" x2="803.3553" y1="212.3218" y2="212.3218"/><text fill="#000000" font-family="sans-serif" font-size="13" lengthAdjust="spacing" textLength="216.6452" x="575.7101" y="188.8068">&#35835;&#21462;&#29366;&#24577; + immutable outbox event</text><text fill="#000000" font-family="sans-serif" font-size="13" lengthAdjust="spacing" textLength="143.1951" x="575.7101" y="206.5128">&#27599;&#19968;&#20010; exact-scope task</text></g><g class="message" data-entity-1="part3" data-entity-2="part2" data-source-line="14" id="msg3"><polygon fill="#181818" points="579.7101,240.0278,569.7101,244.0278,579.7101,248.0278,575.7101,244.0278" style="stroke:#181818;stroke-width:1;stroke-linejoin:miter;stroke-miterlimit:10;"/><line style="stroke:#181818;stroke-width:1;stroke-dasharray:2,2;" x1="573.7101" x2="808.3553" y1="244.0278" y2="244.0278"/><text fill="#000000" font-family="sans-serif" font-size="13" lengthAdjust="spacing" textLength="65.0001" x="585.7101" y="238.2188">&#20132;&#26131;&#30340;&#22266;&#23450;</text></g><g class="message" data-entity-1="part2" data-entity-2="part1" data-source-line="15" id="msg4"><polygon fill="#181818" points="39.9999,271.7338,29.9999,275.7338,39.9999,279.7338,35.9999,275.7338" style="stroke:#181818;stroke-width:1;stroke-linejoin:miter;stroke-miterlimit:10;"/><line style="stroke:#181818;stroke-width:1;stroke-dasharray:2,2;" x1="33.9999" x2="567.7101" y1="275.7338" y2="275.7338"/><text fill="#000000" font-family="sans-serif" font-size="13" lengthAdjust="spacing" textLength="91.0001" x="45.9999" y="269.9248">&#25104;&#21151;&#30340;&#20844;&#24320;&#22238;&#22797;</text></g><g class="message" data-entity-1="part3" data-entity-2="part4" data-source-line="16" id="msg5"><line style="stroke:#181818;stroke-width:1;" x1="942.4529" x2="932.4529" y1="307.4398" y2="303.4398"/><line style="stroke:#181818;stroke-width:1;" x1="942.4529" x2="932.4529" y1="307.4398" y2="311.4398"/><line style="stroke:#181818;stroke-width:1;" x1="809.3553" x2="943.4529" y1="307.4398" y2="307.4398"/><text fill="#000000" font-family="sans-serif" font-size="13" lengthAdjust="spacing" textLength="78.0001" x="816.3553" y="301.6308">&#24050;&#35760;&#24405;&#30340;&#20107;&#20214;</text></g><g class="message" data-entity-1="part4" data-entity-2="part5" data-source-line="17" id="msg6"><line style="stroke:#181818;stroke-width:1;" x1="1284.6932" x2="1274.6932" y1="356.8519" y2="352.8519"/><line style="stroke:#181818;stroke-width:1;" x1="1284.6932" x2="1274.6932" y1="356.8519" y2="360.8519"/><line style="stroke:#181818;stroke-width:1;" x1="944.4529" x2="1285.6932" y1="356.8519" y2="356.8519"/><text fill="#000000" font-family="sans-serif" font-size="13" lengthAdjust="spacing" textLength="203.4112" x="951.4529" y="333.3369">read_counters / folder_projection</text><text fill="#000000" font-family="sans-serif" font-size="13" lengthAdjust="spacing" textLength="318.2403" x="951.4529" y="351.0429">&#27599;&#19968;&#20010; exact-scope task &#26377;&#33258;&#24049;&#30340; outbox_event_uuid</text></g><g class="message" data-entity-1="part5" data-entity-2="part5" data-source-line="18" id="msg7"><line style="stroke:#181818;stroke-width:1;" x1="1286.6932" x2="1328.6932" y1="388.5579" y2="388.5579"/><line style="stroke:#181818;stroke-width:1;" x1="1328.6932" x2="1328.6932" y1="388.5579" y2="401.5579"/><line style="stroke:#181818;stroke-width:1;" x1="1287.6932" x2="1328.6932" y1="401.5579" y2="401.5579"/><polygon fill="#181818" points="1297.6932,397.5579,1287.6932,401.5579,1297.6932,405.5579,1293.6932,401.5579" style="stroke:#181818;stroke-width:1;stroke-linejoin:miter;stroke-miterlimit:10;"/><text fill="#000000" font-family="sans-serif" font-size="13" lengthAdjust="spacing" textLength="347.3472" x="1293.6932" y="382.7489">&#19968;&#20010; fenced owner exact scope; &#20854;&#20182; scopes &#23427;&#20204;&#26159;&#24179;&#34892;&#30340;</text></g><g class="message" data-entity-1="part5" data-entity-2="part6" data-source-line="19" id="msg8"><polygon fill="#181818" points="1636.0404,429.2639,1646.0404,433.2639,1636.0404,437.2639,1640.0404,433.2639" style="stroke:#181818;stroke-width:1;stroke-linejoin:miter;stroke-miterlimit:10;"/><line style="stroke:#181818;stroke-width:1;" x1="1286.6932" x2="1642.0404" y1="433.2639" y2="433.2639"/><text fill="#000000" font-family="sans-serif" font-size="13" lengthAdjust="spacing" textLength="139.6721" x="1293.6932" y="427.4549">&#20027;&#39064;/&#27969;/&#25991;&#20214;&#36830;&#25509;&#35745;&#25968;&#22120;</text></g><g class="message" data-entity-1="part5" data-entity-2="part7" data-source-line="20" id="msg9"><polygon fill="#181818" points="1743.04,478.6759,1753.04,482.6759,1743.04,486.6759,1747.04,482.6759" style="stroke:#181818;stroke-width:1;stroke-linejoin:miter;stroke-miterlimit:10;"/><line style="stroke:#181818;stroke-width:1;" x1="1286.6932" x2="1749.04" y1="482.6759" y2="482.6759"/><text fill="#000000" font-family="sans-serif" font-size="13" lengthAdjust="spacing" textLength="127.8161" x="1293.6932" y="459.1609">topic.read + &#23481;&#22120;&#20107;&#20214;</text><text fill="#000000" font-family="sans-serif" font-size="13" lengthAdjust="spacing" textLength="188.1752" x="1293.6932" y="476.8669">&#21407;&#23376;&#22312;&#19968;&#20010; DB transaction &#25237;&#24433;</text></g><g class="message" data-entity-1="part7" data-entity-2="part8" data-source-line="21" id="msg10"><line style="stroke:#181818;stroke-width:1;" x1="1881.2736" x2="1871.2736" y1="514.382" y2="510.382"/><line style="stroke:#181818;stroke-width:1;" x1="1881.2736" x2="1871.2736" y1="514.382" y2="518.382"/><line style="stroke:#181818;stroke-width:1;" x1="1755.04" x2="1882.2736" y1="514.382" y2="514.382"/><text fill="#000000" font-family="sans-serif" font-size="13" lengthAdjust="spacing" textLength="91.0001" x="1762.04" y="508.573">&#24050;&#22266;&#23450;&#30340;&#20934;&#22791;&#34892;</text></g><g class="message" data-entity-1="part8" data-entity-2="part9" data-source-line="22" id="msg11"><line style="stroke:#181818;stroke-width:1;" x1="2019.7411" x2="2009.7411" y1="546.088" y2="542.088"/><line style="stroke:#181818;stroke-width:1;" x1="2019.7411" x2="2009.7411" y1="546.088" y2="550.088"/><line style="stroke:#181818;stroke-width:1;" x1="1883.2736" x2="2020.7411" y1="546.088" y2="546.088"/><text fill="#000000" font-family="sans-serif" font-size="13" lengthAdjust="spacing" textLength="101.1921" x="1890.2736" y="540.279">&#21457;&#36865; / &#37325;&#22797; / &#22797;&#21046;</text></g><path d="M1238,559.088 L1238,622.088 L1695,622.088 L1695,569.088 L1685,559.088 L1238,559.088" fill="#FEFFDD" style="stroke:#181818;stroke-width:0.5;"/><path d="M1685,559.088 L1685,569.088 L1695,569.088 L1685,559.088" fill="#FEFFDD" style="stroke:#181818;stroke-width:0.5;"/><text fill="#000000" font-family="sans-serif" font-size="13" lengthAdjust="spacing" textLength="240.8252" x="1278.1718" y="577.985">Topic worker shared counters &#20182;&#27809;&#26377;&#20889;.</text><text fill="#000000" font-family="sans-serif" font-size="13" lengthAdjust="spacing" textLength="368.1083" x="1278.1718" y="595.691">Atomic delta &#35201;&#27714; exactly-once guard; &#21542;&#21017; recompute/write.</text><text fill="#000000" font-family="sans-serif" font-size="13" lengthAdjust="spacing" textLength="193.9342" x="1278.1718" y="613.397">Retry/backoff, DLQ/reaper &#24517;&#39035;.</text><?plantuml-src bLHTJnH957tlNt6NLuMEhsD20kA3YOdeaF3WR2P5Jp6sqrtLLbM3P6C2hZY82XW3WXhC65IYE8WVeBIkVwQh6Vx5tguQc77NcFW237Ngt7FFEJL_H89KGm81cUAn0XbIHHXnbAy22iCNYYFWaiXt9xceoOXur9quvOPKIiggLBXI2Kh2ikAHxqdtilbTZcE_ygTBFELp9bq4L5oVJV0QTV1_N42FRZxFvlOEtcpt095m9l0fKqv4XF8zFo9CGS_eqRYY6J2IyvxXJ0aU15IKs2KgrK3WNQ7XbE4O63xdL8WYOqHIw1dcKbK5BLuyNsAjLxVqt5ghSGzEm47oG3SVcmj3WywrcCO87X64IIkM180UZF7h9ORWdKIltzNtLj8aqVEDWyUtMlyyrFLzS_s2WVsekUZnY49k51Mon0AQQpa1uvHvFgkQQwFci4kftdklwxVrHXtfi_bb_Mq75NzVpnPUwEONlRPfRWqBVfKQWTqtPxVIhu-oZwXjKxzTrJStZ-1d9z1E-QEsRE6Ldjj518pIiIBtQbHP6tnqMQ6Fud_P_0SvMdHiKD3RdzjT-Dro_DKfnusVbWD9S-wXmGAqjXEzk78mlvjDpw25VXZ6k3SMqiO3D5-nnBBjnVJpTFhvDT3hoDWhJGAAo9epD0YzHqBJ_OrizI4wh9_iO_vs41xQVGgGpItf-MVv-UoM_ZgjdwphZVk6eR-_dNG1CAbMyvt-jeouTFzkckmwziYWRB05oFSfUpnc2Zi0Beppe495EJfEy5UY8NjwfrL_hVTsS4PxrR9PrRZcs26vHqVZsaHvnMW5-2J3OyCAXlKqwDdTD5cndoJevjzfifMjRkil7_15u9GkpaxBSjxayFcgctsQSRELEkvgEzbgDhBbTzYYhcksRGKmwVRb-sDWjhpMfXBJ2y_qsoNzTBCj5vrLdKS7jlUE9J9kTbffVBUnvVcOfuBAdGx2sbz4uEA3GsoB2uVr-vWV_e4_iVGEumgBCu5Gg_farti2C5yjxLSByWeHQEHnWEXTzhw1iUZRQtq87b0yH7I51ef0w-LCjdFJ-XrCzNBC0Aen4HMqVUabVkbW6pmUHh6YxgJm5SqPBb4bfjmnujNu-FX963f_CNy34SxMtsSF6qcVGra5Sid_0W00?></g></svg>