<svg xmlns="http://www.w3.org/2000/svg" xmlns:xlink="http://www.w3.org/1999/xlink" contentStyleType="text/css" data-diagram-type="SEQUENCE" height="494px" preserveAspectRatio="none" style="width:602px;height:494px;background:#FFFFFF;" version="1.1" viewBox="0 0 602 494" width="602px" zoomAndPan="magnify"><?plantuml 1.2026.6?><defs/><g><g class="title" data-source-line="4"><text fill="#000000" font-family="sans-serif" font-size="14" font-weight="700" lengthAdjust="spacing" textLength="575.538" x="10" y="29.9659">POST /api/workspace/v1/messenger/external_operations/actions/preflight/invoke</text></g><g><title>REST . RestAlchemy</title><rect fill="#FFFFFF" height="168.2361" style="stroke:#181818;stroke-width:1;" width="10" x="300.998" y="162.9098"/></g><g class="participant-lifeline" data-entity-uid="part1" data-qualified-name="C" data-source-line="5" id="part1-lifeline"><g><title>...</title><rect fill="#000000" fill-opacity="0.00000" height="275.3541" width="8" x="90.2778" y="129.2038"/><line style="stroke:#181818;stroke-width:0.5;stroke-dasharray:5,5;" x1="93.2779" x2="93.2779" y1="129.2038" y2="404.5579"/></g></g><g class="participant-lifeline" data-entity-uid="part2" data-qualified-name="API" data-source-line="6" id="part2-lifeline"><g><title>REST . RestAlchemy</title><rect fill="#000000" fill-opacity="0.00000" height="275.3541" width="8" x="301.998" y="129.2038"/><line style="stroke:#181818;stroke-width:0.5;stroke-dasharray:5,5;" x1="305.5633" x2="305.5633" y1="129.2038" y2="404.5579"/></g></g><g class="participant-lifeline" data-entity-uid="part3" data-qualified-name="DB" data-source-line="7" id="part3-lifeline"><g><title>PostgreSQL</title><rect fill="#000000" fill-opacity="0.00000" height="275.3541" width="8" x="465.8341" y="129.2038"/><line style="stroke:#181818;stroke-width:0.5;stroke-dasharray:5,5;" x1="469.2303" x2="469.2303" y1="129.2038" y2="404.5579"/></g></g><g class="participant participant-head" data-entity-uid="part1" data-qualified-name="C" data-source-line="5" id="part1-head"><text fill="#000000" font-family="sans-serif" font-size="14" lengthAdjust="spacing" textLength="41.9998" x="70.2779" y="125.1018">&#23458;&#25143;&#31471;</text><ellipse cx="94.2778" cy="58.6358" fill="#E2E2F0" rx="8" ry="8" style="stroke:#181818;stroke-width:0.5;"/><path d="M94.2778,66.6358 L94.2778,93.6358 M81.2778,74.6358 L107.2778,74.6358 M94.2778,93.6358 L81.2778,108.6358 M94.2778,93.6358 L107.2778,108.6358" fill="none" style="stroke:#181818;stroke-width:0.5;"/></g><g class="participant participant-tail" data-entity-uid="part1" data-qualified-name="C" data-source-line="5" id="part1-tail"><text fill="#000000" font-family="sans-serif" font-size="14" lengthAdjust="spacing" textLength="41.9998" x="70.2779" y="418.5238">&#23458;&#25143;&#31471;</text><ellipse cx="94.2778" cy="431.1258" fill="#E2E2F0" rx="8" ry="8" style="stroke:#181818;stroke-width:0.5;"/><path d="M94.2778,439.1258 L94.2778,466.1258 M81.2778,447.1258 L107.2778,447.1258 M94.2778,466.1258 L81.2778,481.1258 M94.2778,466.1258 L107.2778,481.1258" fill="none" style="stroke:#181818;stroke-width:0.5;"/></g><g class="participant participant-head" data-entity-uid="part2" data-qualified-name="API" data-source-line="6" id="part2-head"><rect fill="#E2E2F0" height="52.1358" rx="2.5" ry="2.5" style="stroke:#181818;stroke-width:0.5;" width="142.8695" x="234.5633" y="76.0679"/><text fill="#000000" font-family="sans-serif" font-size="14" lengthAdjust="spacing" textLength="128.8695" x="241.5633" y="98.0339">REST / RestAlchemy</text><text fill="#000000" font-family="sans-serif" font-size="14" lengthAdjust="spacing" textLength="41.9998" x="284.9981" y="117.1018">&#25511;&#21046;&#22120;</text></g><g class="participant participant-tail" data-entity-uid="part2" data-qualified-name="API" data-source-line="6" id="part2-tail"><rect fill="#E2E2F0" height="52.1358" rx="2.5" ry="2.5" style="stroke:#181818;stroke-width:0.5;" width="142.8695" x="234.5633" y="403.5579"/><text fill="#000000" font-family="sans-serif" font-size="14" lengthAdjust="spacing" textLength="128.8695" x="241.5633" y="425.5238">REST / RestAlchemy</text><text fill="#000000" font-family="sans-serif" font-size="14" lengthAdjust="spacing" textLength="41.9998" x="284.9981" y="444.5918">&#25511;&#21046;&#22120;</text></g><g class="participant participant-head" data-entity-uid="part3" data-qualified-name="DB" data-source-line="7" id="part3-head"><text fill="#000000" font-family="sans-serif" font-size="14" lengthAdjust="spacing" textLength="76.9437" x="428.3623" y="106.0339">PostgreSQL</text><text fill="#000000" font-family="sans-serif" font-size="14" lengthAdjust="spacing" textLength="89.2076" x="422.2303" y="125.1018">&#23450;&#24459;&#34892;/&#38405;&#35835;&#34892;</text><path d="M451.8341,55.0679 C451.8341,45.0679 469.8341,45.0679 469.8341,45.0679 C469.8341,45.0679 487.8341,45.0679 487.8341,55.0679 L487.8341,81.0679 C487.8341,91.0679 469.8341,91.0679 469.8341,91.0679 C469.8341,91.0679 451.8341,91.0679 451.8341,81.0679 L451.8341,55.0679" fill="#E2E2F0" style="stroke:#181818;stroke-width:0.5;"/><path d="M451.8341,55.0679 C451.8341,65.0679 469.8341,65.0679 469.8341,65.0679 C469.8341,65.0679 487.8341,65.0679 487.8341,55.0679" fill="none" style="stroke:#181818;stroke-width:0.5;"/></g><g class="participant participant-tail" data-entity-uid="part3" data-qualified-name="DB" data-source-line="7" id="part3-tail"><text fill="#000000" font-family="sans-serif" font-size="14" lengthAdjust="spacing" textLength="76.9437" x="428.3623" y="418.5238">PostgreSQL</text><text fill="#000000" font-family="sans-serif" font-size="14" lengthAdjust="spacing" textLength="89.2076" x="422.2303" y="437.5918">&#23450;&#24459;&#34892;/&#38405;&#35835;&#34892;</text><path d="M451.8341,451.6937 C451.8341,441.6937 469.8341,441.6937 469.8341,441.6937 C469.8341,441.6937 487.8341,441.6937 487.8341,451.6937 L487.8341,477.6937 C487.8341,487.6937 469.8341,487.6937 469.8341,487.6937 C469.8341,487.6937 451.8341,487.6937 451.8341,477.6937 L451.8341,451.6937" fill="#E2E2F0" style="stroke:#181818;stroke-width:0.5;"/><path d="M451.8341,451.6937 C451.8341,461.6937 469.8341,461.6937 469.8341,461.6937 C469.8341,461.6937 487.8341,461.6937 487.8341,451.6937" fill="none" style="stroke:#181818;stroke-width:0.5;"/></g><g><title>REST . RestAlchemy</title><rect fill="#FFFFFF" height="168.2361" style="stroke:#181818;stroke-width:1;" width="10" x="300.998" y="162.9098"/></g><g class="message" data-entity-1="part1" data-entity-2="part2" data-source-line="9" id="msg1"><polygon fill="#181818" points="288.998,158.9098,298.998,162.9098,288.998,166.9098,292.998,162.9098" style="stroke:#181818;stroke-width:1;stroke-linejoin:miter;stroke-miterlimit:10;"/><line style="stroke:#181818;stroke-width:1;" x1="94.2778" x2="294.998" y1="162.9098" y2="162.9098"/><text fill="#000000" font-family="sans-serif" font-size="13" lengthAdjust="spacing" textLength="187.7202" x="103.7778" y="157.1008">&#26597;&#35810; POST + bearer-&#26631;&#24535;&#29289; IAM</text></g><g class="message" data-entity-1="part2" data-entity-2="part3" data-source-line="11" id="msg2"><polygon fill="#181818" points="457.8341,190.6158,467.8341,194.6158,457.8341,198.6158,461.8341,194.6158" style="stroke:#181818;stroke-width:1;stroke-linejoin:miter;stroke-miterlimit:10;"/><line style="stroke:#181818;stroke-width:1;" x1="310.998" x2="463.8341" y1="194.6158" y2="194.6158"/><text fill="#000000" font-family="sans-serif" font-size="13" lengthAdjust="spacing" textLength="130.0002" x="325.416" y="188.8068">&#32473;&#23450;&#30340;&#21306;&#22495;&#30340;&#32034;&#24341;&#35835;&#25968;</text></g><g class="message" data-entity-1="part3" data-entity-2="part2" data-source-line="12" id="msg3"><polygon fill="#181818" points="321.998,222.3218,311.998,226.3218,321.998,230.3218,317.998,226.3218" style="stroke:#181818;stroke-width:1;stroke-linejoin:miter;stroke-miterlimit:10;"/><line style="stroke:#181818;stroke-width:1;stroke-dasharray:2,2;" x1="315.998" x2="468.8341" y1="226.3218" y2="226.3218"/><text fill="#000000" font-family="sans-serif" font-size="13" lengthAdjust="spacing" textLength="134.8362" x="322.998" y="220.5128">&#21355;&#29983;&#21270;&#35268;&#33539;/&#29289;&#36136;&#21270;&#30340;&#34892;</text></g><path d="M315.2779,239.3218 L315.2779,302.3218 L525.2779,302.3218 L525.2779,249.3218 L515.2779,239.3218 L315.2779,239.3218" fill="#FEFFDD" style="stroke:#181818;stroke-width:0.5;"/><path d="M515.2779,239.3218 L515.2779,249.3218 L525.2779,249.3218 L515.2779,239.3218" fill="#FEFFDD" style="stroke:#181818;stroke-width:0.5;"/><text fill="#000000" font-family="sans-serif" font-size="13" lengthAdjust="spacing" textLength="189.9822" x="321.2779" y="258.2188">&#27809;&#26377;&#35760;&#24405;, outbox, &#20219;&#21153;, fan-out,</text><text fill="#000000" font-family="sans-serif" font-size="13" lengthAdjust="spacing" textLength="185.9392" x="321.2779" y="275.9248">&#25552;&#20379;&#21830;&#35843;&#29992;, COUNT/GROUP BY</text><text fill="#000000" font-family="sans-serif" font-size="13" lengthAdjust="spacing" textLength="120.4841" x="321.2779" y="293.6308">&#25110;&#22312;&#26597;&#35810;&#36335;&#24452;&#20013;&#20462;&#25913;.</text><g class="message" data-entity-1="part2" data-entity-2="part1" data-source-line="18" id="msg4"><polygon fill="#181818" points="105.2778,327.1459,95.2778,331.1459,105.2778,335.1459,101.2778,331.1459" style="stroke:#181818;stroke-width:1;stroke-linejoin:miter;stroke-miterlimit:10;"/><line style="stroke:#181818;stroke-width:1;stroke-dasharray:2,2;" x1="99.2778" x2="304.998" y1="331.1459" y2="331.1459"/><text fill="#000000" font-family="sans-serif" font-size="13" lengthAdjust="spacing" textLength="90.6881" x="154.7939" y="325.3369">&#20844;&#24320;&#30340;&#31572;&#26696; 200</text></g><path d="M248.2779,344.1459 L248.2779,389.1459 L525.2779,389.1459 L525.2779,354.1459 L515.2779,344.1459 L248.2779,344.1459" fill="#FEFFDD" style="stroke:#181818;stroke-width:0.5;"/><path d="M515.2779,344.1459 L515.2779,354.1459 L525.2779,354.1459 L515.2779,344.1459" fill="#FEFFDD" style="stroke:#181818;stroke-width:0.5;"/><text fill="#000000" font-family="sans-serif" font-size="13" lengthAdjust="spacing" textLength="226.6162" x="269.4071" y="363.0429">&#20844;&#24320;&#38142;&#25509; UUID &#26159;&#19968;&#20010;&#30452;&#35282; UUID-&#23646;&#24615;.</text><text fill="#000000" font-family="sans-serif" font-size="13" lengthAdjust="spacing" textLength="172.7702" x="269.4071" y="380.7489">&#29289;&#29702;&#21015; *_uuid &#20173;&#28982;&#26159;&#32034;&#24341; FK.</text><?plantuml-src LL5RJnD157xVNt7iexOi-iY3IIzgY28Lw8C92HdQGzdGpgwpqm9l91GiMf1eoptMaf1MaHOD0RHO_andT_aNdcqbwiDavioSxtoNkMC9biuooB15CoV1pg9ad6dsdC4j9bWMx5cMCkSDdeOPbh7ntnTybKEUn16qRPR6SCP8SqWYboWqQSWCGdnqV09qPXdwl2dcR8ibKS_VrxC4G9v6eUC2DNEMcJ8j54mQ9hTrbkplbi0P6ZahTOFdpJdKwC4K453DGwTuuHwt0i1iY6eaHXf9ms9SGc3iaSy8OsZBS2OvYzd5IUvir5NnNEqsUe1mV5XBCScccOqGY9ksJ0iSV_5iaglcdkgyzMeb_MPdnMkrwTH3n2AQ5eNGGnyw14xro6iTzgtTWsba0aN8-VHQNM-xQvzXE3pY2pNoJ6AFYvQFZKM6m6tl4eUxLr2bdwfQfODxTgYkAiJbL4wrM0H2jong_TWjLrLfowiNlDAoJgEzimRL129T6ZTflF3J0NEcnmFWVAyv1sjUyrJzgWI1VdFQN0X2jzrMRsf1-ZqUehkWt_XkizlPLvLLxtJPBJU241rDF9_GduoD9k8GUUbt5BVKGQDlrRjegKwXUtdIlMuwvHy36l8K-FnzQwGuIdfNlggh9T_HITcf5U71uA2Mml-2w6isyoZyCaYfmX_OpOUEit44YSHm39oTLlTogNlvnTq_y-hlUvSXzUsZirGV803bu6wkgk8st9tAvOmKsLjt2-U4waS9Zv_-5VWR?></g></svg>