<svg xmlns="http://www.w3.org/2000/svg" xmlns:xlink="http://www.w3.org/1999/xlink" contentStyleType="text/css" data-diagram-type="SEQUENCE" height="625px" preserveAspectRatio="none" style="width:1401px;height:625px;background:#FFFFFF;" version="1.1" viewBox="0 0 1401 625" width="1401px" zoomAndPan="magnify"><?plantuml 1.2026.6?><defs/><g><g class="title" data-source-line="2"><text fill="#000000" font-family="sans-serif" font-size="14" font-weight="700" lengthAdjust="spacing" textLength="277.5349" x="558.4952" y="29.9659">&#26631;&#24335;&#21270;&#25237;&#24433;&#20219;&#21153;: delivery_snapshot_event</text></g><rect fill="none" height="83.118" style="stroke:#000000;stroke-width:1.5;" width="389.1219" x="785.9775" y="335.0779"/><g class="participant-lifeline" data-entity-uid="part1" data-qualified-name="SOURCE" data-source-line="7" id="part1-lifeline"><g><title>.... exact resource scope</title><rect fill="#000000" fill-opacity="0.00000" height="500.7083" width="8" x="103.0776" y="124.1358"/><line style="stroke:#181818;stroke-width:0.5;stroke-dasharray:5,5;" x1="107" x2="107" y1="124.1358" y2="624.8441"/></g></g><g class="participant-lifeline" data-entity-uid="part2" data-qualified-name="OUTBOX" data-source-line="8" id="part2-lifeline"><g><title>.... outbox</title><rect fill="#000000" fill-opacity="0.00000" height="500.7083" width="8" x="271.306" y="124.1358"/><line style="stroke:#181818;stroke-width:0.5;stroke-dasharray:5,5;" x1="275.1552" x2="275.1552" y1="124.1358" y2="624.8441"/></g></g><g class="participant-lifeline" data-entity-uid="part3" data-qualified-name="PROJECTOR" data-source-line="9" id="part3-lifeline"><g><title>.....</title><rect fill="#000000" fill-opacity="0.00000" height="500.7083" width="8" x="386.3061" y="124.1358"/><line style="stroke:#181818;stroke-width:0.5;stroke-dasharray:5,5;" x1="389.3063" x2="389.3063" y1="124.1358" y2="624.8441"/></g></g><g class="participant-lifeline" data-entity-uid="part4" data-qualified-name="TASKS" data-source-line="10" id="part4-lifeline"><g><title>....</title><rect fill="#000000" fill-opacity="0.00000" height="500.7083" width="8" x="629.9283" y="124.1358"/><line style="stroke:#181818;stroke-width:0.5;stroke-dasharray:5,5;" x1="632.9284" x2="632.9284" y1="124.1358" y2="624.8441"/></g></g><g class="participant-lifeline" data-entity-uid="part5" data-qualified-name="WORKER" data-source-line="11" id="part5-lifeline"><g><title>...</title><rect fill="#000000" fill-opacity="0.00000" height="500.7083" width="8" x="819.9774" y="124.1358"/><line style="stroke:#181818;stroke-width:0.5;stroke-dasharray:5,5;" x1="822.9775" x2="822.9775" y1="124.1358" y2="624.8441"/></g></g><g class="participant-lifeline" data-entity-uid="part6" data-qualified-name="PROJECTION" data-source-line="12" id="part6-lifeline"><g><title>......</title><rect fill="#000000" fill-opacity="0.00000" height="500.7083" width="8" x="947.9775" y="124.1358"/><line style="stroke:#181818;stroke-width:0.5;stroke-dasharray:5,5;" x1="950.9777" x2="950.9777" y1="124.1358" y2="624.8441"/></g></g><g class="participant-lifeline" data-entity-uid="part7" data-qualified-name="EVENTS" data-source-line="13" id="part7-lifeline"><g><title>.......</title><rect fill="#000000" fill-opacity="0.00000" height="500.7083" width="8" x="1109.0997" y="124.1358"/><line style="stroke:#181818;stroke-width:0.5;stroke-dasharray:5,5;" x1="1112.0999" x2="1112.0999" y1="124.1358" y2="624.8441"/></g></g><g class="participant-lifeline" data-entity-uid="part8" data-qualified-name="DISPATCHER" data-source-line="14" id="part8-lifeline"><g><title>... WebSocket</title><rect fill="#000000" fill-opacity="0.00000" height="500.7083" width="8" x="1237.3332" y="124.1358"/><line style="stroke:#181818;stroke-width:0.5;stroke-dasharray:5,5;" x1="1241.0995" x2="1241.0995" y1="124.1358" y2="624.8441"/></g></g><g class="participant-lifeline" data-entity-uid="part9" data-qualified-name="Client" data-source-line="15" id="part9-lifeline"><g><title>...</title><rect fill="#000000" fill-opacity="0.00000" height="500.7083" width="8" x="1362.5253" y="124.1358"/><line style="stroke:#181818;stroke-width:0.5;stroke-dasharray:5,5;" x1="1365.5254" x2="1365.5254" y1="124.1358" y2="624.8441"/></g></g><g class="participant participant-head" data-entity-uid="part1" data-qualified-name="SOURCE" data-source-line="7" id="part1-head"><text fill="#000000" font-family="sans-serif" font-size="14" lengthAdjust="spacing" textLength="198.1552" x="5" y="120.0339">&#24320;&#22987;&#29366;&#24577; exact resource scope</text><path d="M89.0776,69.0679 C89.0776,59.0679 107.0776,59.0679 107.0776,59.0679 C107.0776,59.0679 125.0776,59.0679 125.0776,69.0679 L125.0776,95.0679 C125.0776,105.0679 107.0776,105.0679 107.0776,105.0679 C107.0776,105.0679 89.0776,105.0679 89.0776,95.0679 L89.0776,69.0679" fill="#E2E2F0" style="stroke:#181818;stroke-width:0.5;"/><path d="M89.0776,69.0679 C89.0776,79.0679 107.0776,79.0679 107.0776,79.0679 C107.0776,79.0679 125.0776,79.0679 125.0776,69.0679" fill="none" style="stroke:#181818;stroke-width:0.5;"/></g><g class="participant participant-head" data-entity-uid="part2" data-qualified-name="OUTBOX" data-source-line="8" id="part2-head"><text fill="#000000" font-family="sans-serif" font-size="14" lengthAdjust="spacing" textLength="106.3016" x="219.1552" y="120.0339">&#27809;&#26377;&#21464;&#21270; outbox</text><path d="M257.306,69.0679 C257.306,59.0679 275.306,59.0679 275.306,59.0679 C275.306,59.0679 293.306,59.0679 293.306,69.0679 L293.306,95.0679 C293.306,105.0679 275.306,105.0679 275.306,105.0679 C275.306,105.0679 257.306,105.0679 257.306,95.0679 L257.306,69.0679" fill="#E2E2F0" style="stroke:#181818;stroke-width:0.5;"/><path d="M257.306,69.0679 C257.306,79.0679 275.306,79.0679 275.306,79.0679 C275.306,79.0679 293.306,79.0679 293.306,69.0679" fill="none" style="stroke:#181818;stroke-width:0.5;"/></g><g class="participant participant-head" data-entity-uid="part3" data-qualified-name="PROJECTOR" data-source-line="9" id="part3-head"><rect fill="#E2E2F0" height="33.0679" rx="2.5" ry="2.5" style="stroke:#181818;stroke-width:0.5;" width="83.9997" x="348.3063" y="90.0679"/><text fill="#000000" font-family="sans-serif" font-size="14" lengthAdjust="spacing" textLength="69.9997" x="355.3063" y="112.0339">&#20219;&#21153;&#25237;&#24433;&#22120;</text></g><g class="participant participant-head" data-entity-uid="part4" data-qualified-name="TASKS" data-source-line="10" id="part4-head"><text fill="#000000" font-family="sans-serif" font-size="14" lengthAdjust="spacing" textLength="55.9998" x="602.9284" y="120.0339">&#31867;&#22411;&#20219;&#21153;</text><path d="M615.9283,69.0679 C615.9283,59.0679 633.9283,59.0679 633.9283,59.0679 C633.9283,59.0679 651.9283,59.0679 651.9283,69.0679 L651.9283,95.0679 C651.9283,105.0679 633.9283,105.0679 633.9283,105.0679 C633.9283,105.0679 615.9283,105.0679 615.9283,95.0679 L615.9283,69.0679" fill="#E2E2F0" style="stroke:#181818;stroke-width:0.5;"/><path d="M615.9283,69.0679 C615.9283,79.0679 633.9283,79.0679 633.9283,79.0679 C633.9283,79.0679 651.9283,79.0679 651.9283,69.0679" fill="none" style="stroke:#181818;stroke-width:0.5;"/></g><g class="participant participant-head" data-entity-uid="part5" data-qualified-name="WORKER" data-source-line="11" id="part5-head"><rect fill="#E2E2F0" height="33.0679" rx="2.5" ry="2.5" style="stroke:#181818;stroke-width:0.5;" width="55.9998" x="795.9775" y="90.0679"/><text fill="#000000" font-family="sans-serif" font-size="14" lengthAdjust="spacing" textLength="41.9998" x="802.9775" y="112.0339">&#24037;&#20154;&#26426;</text></g><g class="participant participant-head" data-entity-uid="part6" data-qualified-name="PROJECTION" data-source-line="12" id="part6-head"><text fill="#000000" font-family="sans-serif" font-size="14" lengthAdjust="spacing" textLength="83.9996" x="906.9777" y="120.0339">&#21355;&#29983;&#20844;&#20849;&#25237;&#24433;</text><path d="M933.9775,69.0679 C933.9775,59.0679 951.9775,59.0679 951.9775,59.0679 C951.9775,59.0679 969.9775,59.0679 969.9775,69.0679 L969.9775,95.0679 C969.9775,105.0679 951.9775,105.0679 951.9775,105.0679 C951.9775,105.0679 933.9775,105.0679 933.9775,95.0679 L933.9775,69.0679" fill="#E2E2F0" style="stroke:#181818;stroke-width:0.5;"/><path d="M933.9775,69.0679 C933.9775,79.0679 951.9775,79.0679 951.9775,79.0679 C951.9775,79.0679 969.9775,79.0679 969.9775,69.0679" fill="none" style="stroke:#181818;stroke-width:0.5;"/></g><g class="participant participant-head" data-entity-uid="part7" data-qualified-name="EVENTS" data-source-line="13" id="part7-head"><text fill="#000000" font-family="sans-serif" font-size="14" lengthAdjust="spacing" textLength="97.9996" x="1061.0999" y="120.0339">&#20844;&#20247;&#27963;&#21160;&#23384;&#20648;&#22120;</text><path d="M1095.0997,69.0679 C1095.0997,59.0679 1113.0997,59.0679 1113.0997,59.0679 C1113.0997,59.0679 1131.0997,59.0679 1131.0997,69.0679 L1131.0997,95.0679 C1131.0997,105.0679 1113.0997,105.0679 1113.0997,105.0679 C1113.0997,105.0679 1095.0997,105.0679 1095.0997,95.0679 L1095.0997,69.0679" fill="#E2E2F0" style="stroke:#181818;stroke-width:0.5;"/><path d="M1095.0997,69.0679 C1095.0997,79.0679 1113.0997,79.0679 1113.0997,79.0679 C1113.0997,79.0679 1131.0997,79.0679 1131.0997,69.0679" fill="none" style="stroke:#181818;stroke-width:0.5;"/></g><g class="participant participant-head" data-entity-uid="part8" data-qualified-name="DISPATCHER" data-source-line="14" id="part8-head"><rect fill="#E2E2F0" height="33.0679" rx="2.5" ry="2.5" style="stroke:#181818;stroke-width:0.5;" width="132.4675" x="1175.0995" y="90.0679"/><text fill="#000000" font-family="sans-serif" font-size="14" lengthAdjust="spacing" textLength="118.4675" x="1182.0995" y="112.0339">&#25511;&#21046;&#22120; WebSocket</text></g><g class="participant participant-head" data-entity-uid="part9" data-qualified-name="Client" data-source-line="15" id="part9-head"><text fill="#000000" font-family="sans-serif" font-size="14" lengthAdjust="spacing" textLength="41.9998" x="1342.5254" y="120.0339">&#23458;&#25143;&#31471;</text><ellipse cx="1366.5253" cy="53.5679" fill="#E2E2F0" rx="8" ry="8" style="stroke:#181818;stroke-width:0.5;"/><path d="M1366.5253,61.5679 L1366.5253,88.5679 M1353.5253,69.5679 L1379.5253,69.5679 M1366.5253,88.5679 L1353.5253,103.5679 M1366.5253,88.5679 L1379.5253,103.5679" fill="none" style="stroke:#181818;stroke-width:0.5;"/></g><g class="message" data-entity-1="part1" data-entity-2="part2" data-source-line="17" id="msg1"><polygon fill="#181818" points="263.306,153.8419,273.306,157.8419,263.306,161.8419,267.306,157.8419" style="stroke:#181818;stroke-width:1;stroke-linejoin:miter;stroke-miterlimit:10;"/><line style="stroke:#181818;stroke-width:1;" x1="107.0776" x2="269.306" y1="157.8419" y2="157.8419"/><text fill="#000000" font-family="sans-serif" font-size="13" lengthAdjust="spacing" textLength="91.0001" x="114.0776" y="152.0328">&#24050;&#22266;&#23450;&#22495;&#21517;&#20107;&#20214;</text></g><g class="message" data-entity-1="part2" data-entity-2="part3" data-source-line="18" id="msg2"><polygon fill="#181818" points="378.3061,185.5479,388.3061,189.5479,378.3061,193.5479,382.3061,189.5479" style="stroke:#181818;stroke-width:1;stroke-linejoin:miter;stroke-miterlimit:10;"/><line style="stroke:#181818;stroke-width:1;" x1="275.306" x2="384.3061" y1="189.5479" y2="189.5479"/><text fill="#000000" font-family="sans-serif" font-size="13" lengthAdjust="spacing" textLength="91.0001" x="282.306" y="183.7389">&#27809;&#26377;&#21464;&#21270;&#30340;&#20107;&#20214;</text></g><g class="message" data-entity-1="part3" data-entity-2="part4" data-source-line="19" id="msg3"><polygon fill="#181818" points="621.9283,252.6659,631.9283,256.6659,621.9283,260.6659,625.9283,256.6659" style="stroke:#181818;stroke-width:1;stroke-linejoin:miter;stroke-miterlimit:10;"/><line style="stroke:#181818;stroke-width:1;" x1="390.3061" x2="627.9283" y1="256.6659" y2="256.6659"/><text fill="#000000" font-family="sans-serif" font-size="13" lengthAdjust="spacing" textLength="219.6222" x="397.3061" y="215.4449">immutable delivery_snapshot_event</text><text fill="#000000" font-family="sans-serif" font-size="13" lengthAdjust="spacing" textLength="202.4232" x="397.3061" y="233.1509">(outbox_event_uuid, exact scope)</text><text fill="#000000" font-family="sans-serif" font-size="13" lengthAdjust="spacing" textLength="208.2342" x="397.3061" y="250.8569">unique derivation; &#27809;&#26377; coalescing</text></g><g class="message" data-entity-1="part4" data-entity-2="part5" data-source-line="20" id="msg4"><polygon fill="#181818" points="811.9774,284.3719,821.9774,288.3719,811.9774,292.3719,815.9774,288.3719" style="stroke:#181818;stroke-width:1;stroke-linejoin:miter;stroke-miterlimit:10;"/><line style="stroke:#181818;stroke-width:1;" x1="633.9283" x2="817.9774" y1="288.3719" y2="288.3719"/><text fill="#000000" font-family="sans-serif" font-size="13" lengthAdjust="spacing" textLength="166.0491" x="640.9283" y="282.5629">exact scope lease + fencing</text></g><g class="message" data-entity-1="part5" data-entity-2="part1" data-source-line="21" id="msg5"><polygon fill="#181818" points="118.0776,316.0779,108.0776,320.0779,118.0776,324.0779,114.0776,320.0779" style="stroke:#181818;stroke-width:1;stroke-linejoin:miter;stroke-miterlimit:10;"/><line style="stroke:#181818;stroke-width:1;" x1="112.0776" x2="822.9774" y1="320.0779" y2="320.0779"/><text fill="#000000" font-family="sans-serif" font-size="13" lengthAdjust="spacing" textLength="183.0402" x="124.0776" y="314.2689">&#38405;&#35835;&#26368;&#21518;&#19968;&#20010; exact-scope &#24773;&#20917;</text></g><path d="M785.9775,335.0779 L957.2206,335.0779 L957.2206,344.784 L947.2206,354.784 L785.9775,354.784 L785.9775,335.0779" fill="#EEEEEE" style="stroke:#000000;stroke-width:1.5;"/><rect fill="none" height="83.118" style="stroke:#000000;stroke-width:1.5;" width="389.1219" x="785.9775" y="335.0779"/><text fill="#000000" font-family="sans-serif" font-size="13" font-weight="700" lengthAdjust="spacing" textLength="126.2431" x="800.9775" y="349.975">&#19968;&#20010; DB transaction</text><g class="message" data-entity-1="part5" data-entity-2="part6" data-source-line="23" id="msg6"><polygon fill="#181818" points="939.9775,374.49,949.9775,378.49,939.9775,382.49,943.9775,378.49" style="stroke:#181818;stroke-width:1;stroke-linejoin:miter;stroke-miterlimit:10;"/><line style="stroke:#181818;stroke-width:1;" x1="823.9774" x2="945.9775" y1="378.49" y2="378.49"/><text fill="#000000" font-family="sans-serif" font-size="13" lengthAdjust="spacing" textLength="104.0001" x="830.9774" y="372.681">&#20855;&#26377;&#28508;&#21147;&#30340;&#21355;&#29983;&#29031;</text></g><g class="message" data-entity-1="part5" data-entity-2="part7" data-source-line="24" id="msg7"><polygon fill="#181818" points="1101.0997,406.196,1111.0997,410.196,1101.0997,414.196,1105.0997,410.196" style="stroke:#181818;stroke-width:1;stroke-linejoin:miter;stroke-miterlimit:10;"/><line style="stroke:#181818;stroke-width:1;" x1="823.9774" x2="1107.0997" y1="410.196" y2="410.196"/><text fill="#000000" font-family="sans-serif" font-size="13" lengthAdjust="spacing" textLength="265.1223" x="830.9774" y="404.387">durable ready event, &#22914;&#26524;&#23459;&#24067; contract kind</text></g><g class="message" data-entity-1="part7" data-entity-2="part8" data-source-line="26" id="msg8"><polygon fill="#181818" points="1229.3332,444.902,1239.3332,448.902,1229.3332,452.902,1233.3332,448.902" style="stroke:#181818;stroke-width:1;stroke-linejoin:miter;stroke-miterlimit:10;"/><line style="stroke:#181818;stroke-width:1;" x1="1113.0997" x2="1235.3332" y1="448.902" y2="448.902"/><text fill="#000000" font-family="sans-serif" font-size="13" lengthAdjust="spacing" textLength="65.0001" x="1120.0997" y="443.093">&#31283;&#23450;&#30340;&#35760;&#24405;</text></g><g class="message" data-entity-1="part8" data-entity-2="part9" data-source-line="27" id="msg9"><polygon fill="#181818" points="1354.5253,476.608,1364.5253,480.608,1354.5253,484.608,1358.5253,480.608" style="stroke:#181818;stroke-width:1;stroke-linejoin:miter;stroke-miterlimit:10;"/><line style="stroke:#181818;stroke-width:1;" x1="1241.3332" x2="1360.5253" y1="480.608" y2="480.608"/><text fill="#000000" font-family="sans-serif" font-size="13" lengthAdjust="spacing" textLength="101.1921" x="1248.3332" y="474.799">&#21457;&#36865; / &#37325;&#22797; / &#25773;&#25918;</text></g><path d="M36,493.608 L36,609.608 L1022,609.608 L1022,503.608 L1012,493.608 L36,493.608" fill="#FEFFDD" style="stroke:#181818;stroke-width:0.5;"/><path d="M1012,493.608 L1012,503.608 L1022,503.608 L1012,493.608" fill="#FEFFDD" style="stroke:#181818;stroke-width:0.5;"/><text fill="#000000" font-family="sans-serif" font-size="13" lengthAdjust="spacing" textLength="226.7852" x="356.32" y="512.505">Provider JSON &#21482;&#26377; provider/delivery.</text><text fill="#000000" font-family="sans-serif" font-size="13" lengthAdjust="spacing" textLength="337.3373" x="356.32" y="530.2111">&#20026;&#20102; draft/push &#27809;&#26377; public event task &#35760;&#24405; effect guard</text><text fill="#000000" font-family="sans-serif" font-size="13" lengthAdjust="spacing" textLength="93.6911" x="356.32" y="547.9171">&#27809;&#26377; event row.</text><text fill="#000000" font-family="sans-serif" font-size="13" lengthAdjust="spacing" textLength="211.4843" x="356.32" y="565.6231">&#21327;&#35758;&#21407;&#22987;&#20803;&#25968;&#25454;&#21644;&#24080;&#25143;&#25968;&#25454;&#20445;&#25345;&#38544;&#34255;.</text><text fill="#000000" font-family="sans-serif" font-size="13" lengthAdjust="spacing" textLength="299.8062" x="356.32" y="583.3291">Lifecycle: lease expiry, retry/backoff, DLQ/reaper;</text><text fill="#000000" font-family="sans-serif" font-size="13" lengthAdjust="spacing" textLength="301.9643" x="356.32" y="601.0351">idempotent effect guard &#26681;&#25454; outbox_event_uuid.</text><?plantuml-src TLHTJnj757tVNt7BKwiwyJkHAYN6KlEXc6AdwKCaDDuTunNhdUtiBE0t4kea9HZJA3IKkA7f5oWVJaXRS0sqVyPt3FyYTtUMicdL1qlUlMVEkVUSk_D18DbCWu77cY9I43QuOZwpbAiy3lg7UtZOmPLlzV8w7kqE3mvm-TauEDnpvxXiJeS-2yAwKDDyZllAghiEXveGgYeMh73MzGCcMGEgp9wTaIBodOBmX8JvkgjufXxMcIFcNNy6QimBkMKvJB4g2pcCuU4YRZyOBU_fnTl05vYjGF9GHDBc4DeYu6F0GYYNRamLYfbZ-kqptVqQEnlKEj1Or4y2BDseN2fzOP6iScqtOBw2CJEK6H2_sqbmarEbAyL2fJILuHpj7k3J1mQTW2eNorVBxtFX_Y_3mK1t1mdWPcdgQZ5BWUqNeqTRs7g9hLqZc5MxNBgUnRPU3WyVwzz9RWTVRU2TdTFcYfyNhrV-9QnNj_7-7Y7W9g-MXJtBLOATk5oUl5WfV4fja7Va_HZsVjJtzqSlNYVrWkV6mLd6GJZtIMeHZ0FklyKd0-njujOMhhM70vfzpqhB1Fp78y9c_HvjVfLYpn04JzmYgDjeH3GZBTV_RD4j_qEJc7cSZYBNoQNP9v5_TCkFVFVBA6QGxXnJhl0lf2s0BPZ7GvkMoJAA96ro8EqC2NWyjlbZg74_GQSWWgTUZCF9HkluzO7kBkBQwh2_EEm_Dmpd38DUQk7TFwnuimD8wnENG4dcXuIYhYo0Czgpb6DpM_lKhJxgul8JCimingYr_Tu94pIXdKWcZadEd2OajkG0VxsZdtQnznFsbsXidtHfEFge78lJBprCD6SxG5IZdTyeKf8yxht1etKhKoIeMOUulyut9_J5vU7aNXj_RjCV_V2LVlINPVb2SH2KM-fJBhEz09DIpD4b8E5AcUR4plCuao1zcJzD_3mXX_t1S70N7CbgAXz4OVqqmI2gUgvjfWJ5mbamhGAlrJXDE1CnwH112ZSuAUPZKcntZdizNDsYImDRIthzZMxtyE4AzjTewStZyE_lzShjaysruyUT-CmrbsYRjiV7qvtW2u4hcpboMybcFhwyHAsMWubhd-KfW83B2tIAvca4P0LfP_kY6_DFqe3_RF3vE1I8pRFU0G00?></g></svg>