<svg xmlns="http://www.w3.org/2000/svg" xmlns:xlink="http://www.w3.org/1999/xlink" contentStyleType="text/css" data-diagram-type="SEQUENCE" height="744px" preserveAspectRatio="none" style="width:1755px;height:744px;background:#FFFFFF;" version="1.1" viewBox="0 0 1755 744" width="1755px" zoomAndPan="magnify"><?plantuml 1.2026.6?><defs/><g><g class="title" data-source-line="3"><text fill="#000000" font-family="sans-serif" font-size="14" font-weight="700" lengthAdjust="spacing" textLength="417.0864" x="665.7797" y="29.9659">DELETE /api/workspace/v1/messenger/folders/{folder_uuid}</text></g><rect fill="none" height="83.118" style="stroke:#000000;stroke-width:1.5;" width="1240.5023" x="277.6763" y="490.6759"/><g class="participant-lifeline" data-entity-uid="part1" data-qualified-name="Client" data-source-line="4" id="part1-lifeline"><g><title>...</title><rect fill="#000000" fill-opacity="0.00000" height="525.0023" width="8" x="24.9999" y="129.2038"/><line style="stroke:#181818;stroke-width:0.5;stroke-dasharray:5,5;" x1="28" x2="28" y1="129.2038" y2="654.206"/></g></g><g class="participant-lifeline" data-entity-uid="part2" data-qualified-name="API" data-source-line="5" id="part2-lifeline"><g><title>... RestAlchemy</title><rect fill="#000000" fill-opacity="0.00000" height="525.0023" width="8" x="131.0295" y="129.2038"/><line style="stroke:#181818;stroke-width:0.5;stroke-dasharray:5,5;" x1="134.9998" x2="134.9998" y1="129.2038" y2="654.206"/></g></g><g class="participant-lifeline" data-entity-uid="part3" data-qualified-name="DB" data-source-line="6" id="part3-lifeline"><g><title>PostgreSQL</title><rect fill="#000000" fill-opacity="0.00000" height="525.0023" width="8" x="400.1318" y="129.2038"/><line style="stroke:#181818;stroke-width:0.5;stroke-dasharray:5,5;" x1="403.6763" x2="403.6763" y1="129.2038" y2="654.206"/></g></g><g class="participant-lifeline" data-entity-uid="part4" data-qualified-name="OUT" data-source-line="7" id="part4-lifeline"><g><title>.. outbox</title><rect fill="#000000" fill-opacity="0.00000" height="525.0023" width="8" x="575.7382" y="129.2038"/><line style="stroke:#181818;stroke-width:0.5;stroke-dasharray:5,5;" x1="579.5874" x2="579.5874" y1="129.2038" y2="654.206"/></g></g><g class="participant-lifeline" data-entity-uid="part5" data-qualified-name="TASK" data-source-line="8" id="part5-lifeline"><g><title>.......</title><rect fill="#000000" fill-opacity="0.00000" height="525.0023" width="8" x="1015.3225" y="129.2038"/><line style="stroke:#181818;stroke-width:0.5;stroke-dasharray:5,5;" x1="1018.3227" x2="1018.3227" y1="129.2038" y2="654.206"/></g></g><g class="participant-lifeline" data-entity-uid="part6" data-qualified-name="WORKER" data-source-line="9" id="part6-lifeline"><g><title>......</title><rect fill="#000000" fill-opacity="0.00000" height="525.0023" width="8" x="1263.5987" y="129.2038"/><line style="stroke:#181818;stroke-width:0.5;stroke-dasharray:5,5;" x1="1266.5988" x2="1266.5988" y1="129.2038" y2="654.206"/></g></g><g class="participant-lifeline" data-entity-uid="part7" data-qualified-name="EVENT" data-source-line="10" id="part7-lifeline"><g><title>.......</title><rect fill="#000000" fill-opacity="0.00000" height="525.0023" width="8" x="1452.1788" y="129.2038"/><line style="stroke:#181818;stroke-width:0.5;stroke-dasharray:5,5;" x1="1455.179" x2="1455.179" y1="129.2038" y2="654.206"/></g></g><g class="participant-lifeline" data-entity-uid="part8" data-qualified-name="DISP" data-source-line="11" id="part8-lifeline"><g><title>... WebSocket</title><rect fill="#000000" fill-opacity="0.00000" height="525.0023" width="8" x="1580.4123" y="129.2038"/><line style="stroke:#181818;stroke-width:0.5;stroke-dasharray:5,5;" x1="1584.1786" x2="1584.1786" y1="129.2038" y2="654.206"/></g></g><g class="participant-lifeline" data-entity-uid="part9" data-qualified-name="WS" data-source-line="12" id="part9-lifeline"><g><title>.....</title><rect fill="#000000" fill-opacity="0.00000" height="525.0023" width="8" x="1698.6459" y="129.2038"/><line style="stroke:#181818;stroke-width:0.5;stroke-dasharray:5,5;" x1="1701.6461" x2="1701.6461" y1="129.2038" y2="654.206"/></g></g><g class="participant participant-head" data-entity-uid="part1" data-qualified-name="Client" data-source-line="4" id="part1-head"><text fill="#000000" font-family="sans-serif" font-size="14" lengthAdjust="spacing" textLength="41.9998" x="5" y="125.1018">&#23458;&#25143;&#31471;</text><ellipse cx="28.9999" cy="58.6358" fill="#E2E2F0" rx="8" ry="8" style="stroke:#181818;stroke-width:0.5;"/><path d="M28.9999,66.6358 L28.9999,93.6358 M15.9999,74.6358 L41.9999,74.6358 M28.9999,93.6358 L15.9999,108.6358 M28.9999,93.6358 L41.9999,108.6358" fill="none" style="stroke:#181818;stroke-width:0.5;"/></g><g class="participant participant-tail" data-entity-uid="part1" data-qualified-name="Client" data-source-line="4" id="part1-tail"><text fill="#000000" font-family="sans-serif" font-size="14" lengthAdjust="spacing" textLength="41.9998" x="5" y="668.172">&#23458;&#25143;&#31471;</text><ellipse cx="28.9999" cy="680.7739" fill="#E2E2F0" rx="8" ry="8" style="stroke:#181818;stroke-width:0.5;"/><path d="M28.9999,688.7739 L28.9999,715.7739 M15.9999,696.7739 L41.9999,696.7739 M28.9999,715.7739 L15.9999,730.7739 M28.9999,715.7739 L41.9999,730.7739" fill="none" style="stroke:#181818;stroke-width:0.5;"/></g><g class="participant participant-head" data-entity-uid="part2" data-qualified-name="API" data-source-line="5" id="part2-head"><rect fill="#E2E2F0" height="33.0679" rx="2.5" ry="2.5" style="stroke:#181818;stroke-width:0.5;" width="144.0595" x="62.9998" y="95.1358"/><text fill="#000000" font-family="sans-serif" font-size="14" lengthAdjust="spacing" textLength="130.0595" x="69.9998" y="117.1018">&#25511;&#21046;&#22120; RestAlchemy</text></g><g class="participant participant-tail" data-entity-uid="part2" data-qualified-name="API" data-source-line="5" id="part2-tail"><rect fill="#E2E2F0" height="33.0679" rx="2.5" ry="2.5" style="stroke:#181818;stroke-width:0.5;" width="144.0595" x="62.9998" y="653.206"/><text fill="#000000" font-family="sans-serif" font-size="14" lengthAdjust="spacing" textLength="130.0595" x="69.9998" y="675.172">&#25511;&#21046;&#22120; RestAlchemy</text></g><g class="participant participant-head" data-entity-uid="part3" data-qualified-name="DB" data-source-line="6" id="part3-head"><text fill="#000000" font-family="sans-serif" font-size="14" lengthAdjust="spacing" textLength="76.9437" x="362.66" y="106.0339">PostgreSQL</text><text fill="#000000" font-family="sans-serif" font-size="14" lengthAdjust="spacing" textLength="226.9111" x="287.6763" y="125.1018">FOLDER + USER_FOLDER_BINDING</text><path d="M386.1318,55.0679 C386.1318,45.0679 404.1318,45.0679 404.1318,45.0679 C404.1318,45.0679 422.1318,45.0679 422.1318,55.0679 L422.1318,81.0679 C422.1318,91.0679 404.1318,91.0679 404.1318,91.0679 C404.1318,91.0679 386.1318,91.0679 386.1318,81.0679 L386.1318,55.0679" fill="#E2E2F0" style="stroke:#181818;stroke-width:0.5;"/><path d="M386.1318,55.0679 C386.1318,65.0679 404.1318,65.0679 404.1318,65.0679 C404.1318,65.0679 422.1318,65.0679 422.1318,55.0679" fill="none" style="stroke:#181818;stroke-width:0.5;"/></g><g class="participant participant-tail" data-entity-uid="part3" data-qualified-name="DB" data-source-line="6" id="part3-tail"><text fill="#000000" font-family="sans-serif" font-size="14" lengthAdjust="spacing" textLength="76.9437" x="362.66" y="668.172">PostgreSQL</text><text fill="#000000" font-family="sans-serif" font-size="14" lengthAdjust="spacing" textLength="226.9111" x="287.6763" y="687.2399">FOLDER + USER_FOLDER_BINDING</text><path d="M386.1318,701.3419 C386.1318,691.3419 404.1318,691.3419 404.1318,691.3419 C404.1318,691.3419 422.1318,691.3419 422.1318,701.3419 L422.1318,727.3419 C422.1318,737.3419 404.1318,737.3419 404.1318,737.3419 C404.1318,737.3419 386.1318,737.3419 386.1318,727.3419 L386.1318,701.3419" fill="#E2E2F0" style="stroke:#181818;stroke-width:0.5;"/><path d="M386.1318,701.3419 C386.1318,711.3419 404.1318,711.3419 404.1318,711.3419 C404.1318,711.3419 422.1318,711.3419 422.1318,701.3419" fill="none" style="stroke:#181818;stroke-width:0.5;"/></g><g class="participant participant-head" data-entity-uid="part4" data-qualified-name="OUT" data-source-line="7" id="part4-head"><path d="M535.5874,100.1358 L623.8891,100.1358 C628.8891,100.1358 628.8891,114.6698 628.8891,114.6698 C628.8891,114.6698 628.8891,129.2038 623.8891,129.2038 L535.5874,129.2038 C530.5874,129.2038 530.5874,114.6698 530.5874,114.6698 C530.5874,114.6698 530.5874,100.1358 535.5874,100.1358" fill="#E2E2F0" style="stroke:#181818;stroke-width:0.5;"/><path d="M623.8891,100.1358 C618.8891,100.1358 618.8891,114.6698 618.8891,114.6698 C618.8891,129.2038 623.8891,129.2038 623.8891,129.2038" fill="none" style="stroke:#181818;stroke-width:0.5;"/><text fill="#000000" font-family="sans-serif" font-size="14" lengthAdjust="spacing" textLength="78.3017" x="535.5874" y="120.1018">&#20132;&#26131; outbox</text></g><g class="participant participant-tail" data-entity-uid="part4" data-qualified-name="OUT" data-source-line="7" id="part4-tail"><path d="M535.5874,653.206 L623.8891,653.206 C628.8891,653.206 628.8891,667.74 628.8891,667.74 C628.8891,667.74 628.8891,682.2739 623.8891,682.2739 L535.5874,682.2739 C530.5874,682.2739 530.5874,667.74 530.5874,667.74 C530.5874,667.74 530.5874,653.206 535.5874,653.206" fill="#E2E2F0" style="stroke:#181818;stroke-width:0.5;"/><path d="M623.8891,653.206 C618.8891,653.206 618.8891,667.74 618.8891,667.74 C618.8891,682.2739 623.8891,682.2739 623.8891,682.2739" fill="none" style="stroke:#181818;stroke-width:0.5;"/><text fill="#000000" font-family="sans-serif" font-size="14" lengthAdjust="spacing" textLength="78.3017" x="535.5874" y="673.172">&#20132;&#26131; outbox</text></g><g class="participant participant-head" data-entity-uid="part5" data-qualified-name="TASK" data-source-line="8" id="part5-head"><path d="M965.3227,100.1358 L1073.3222,100.1358 C1078.3222,100.1358 1078.3222,114.6698 1078.3222,114.6698 C1078.3222,114.6698 1078.3222,129.2038 1073.3222,129.2038 L965.3227,129.2038 C960.3227,129.2038 960.3227,114.6698 960.3227,114.6698 C960.3227,114.6698 960.3227,100.1358 965.3227,100.1358" fill="#E2E2F0" style="stroke:#181818;stroke-width:0.5;"/><path d="M1073.3222,100.1358 C1068.3222,100.1358 1068.3222,114.6698 1068.3222,114.6698 C1068.3222,129.2038 1073.3222,129.2038 1073.3222,129.2038" fill="none" style="stroke:#181818;stroke-width:0.5;"/><text fill="#000000" font-family="sans-serif" font-size="14" lengthAdjust="spacing" textLength="97.9996" x="965.3227" y="120.1018">&#26631;&#24335;&#21270;&#25237;&#24433;&#20219;&#21153;</text></g><g class="participant participant-tail" data-entity-uid="part5" data-qualified-name="TASK" data-source-line="8" id="part5-tail"><path d="M965.3227,653.206 L1073.3222,653.206 C1078.3222,653.206 1078.3222,667.74 1078.3222,667.74 C1078.3222,667.74 1078.3222,682.2739 1073.3222,682.2739 L965.3227,682.2739 C960.3227,682.2739 960.3227,667.74 960.3227,667.74 C960.3227,667.74 960.3227,653.206 965.3227,653.206" fill="#E2E2F0" style="stroke:#181818;stroke-width:0.5;"/><path d="M1073.3222,653.206 C1068.3222,653.206 1068.3222,667.74 1068.3222,667.74 C1068.3222,682.2739 1073.3222,682.2739 1073.3222,682.2739" fill="none" style="stroke:#181818;stroke-width:0.5;"/><text fill="#000000" font-family="sans-serif" font-size="14" lengthAdjust="spacing" textLength="97.9996" x="965.3227" y="673.172">&#26631;&#24335;&#21270;&#25237;&#24433;&#20219;&#21153;</text></g><g class="participant participant-head" data-entity-uid="part6" data-qualified-name="WORKER" data-source-line="9" id="part6-head"><rect fill="#E2E2F0" height="33.0679" rx="2.5" ry="2.5" style="stroke:#181818;stroke-width:0.5;" width="97.9996" x="1218.5988" y="95.1358"/><text fill="#000000" font-family="sans-serif" font-size="14" lengthAdjust="spacing" textLength="83.9996" x="1225.5988" y="117.1018">&#27779;&#20811;&#20154;&#28216;&#27891;&#27744;</text></g><g class="participant participant-tail" data-entity-uid="part6" data-qualified-name="WORKER" data-source-line="9" id="part6-tail"><rect fill="#E2E2F0" height="33.0679" rx="2.5" ry="2.5" style="stroke:#181818;stroke-width:0.5;" width="97.9996" x="1218.5988" y="653.206"/><text fill="#000000" font-family="sans-serif" font-size="14" lengthAdjust="spacing" textLength="83.9996" x="1225.5988" y="675.172">&#27779;&#20811;&#20154;&#28216;&#27891;&#27744;</text></g><g class="participant participant-head" data-entity-uid="part7" data-qualified-name="EVENT" data-source-line="10" id="part7-head"><text fill="#000000" font-family="sans-serif" font-size="14" lengthAdjust="spacing" textLength="97.9996" x="1404.179" y="125.1018">&#20844;&#20247;&#27963;&#21160;&#23384;&#20648;&#22120;</text><path d="M1438.1788,74.1358 C1438.1788,64.1358 1456.1788,64.1358 1456.1788,64.1358 C1456.1788,64.1358 1474.1788,64.1358 1474.1788,74.1358 L1474.1788,100.1358 C1474.1788,110.1358 1456.1788,110.1358 1456.1788,110.1358 C1456.1788,110.1358 1438.1788,110.1358 1438.1788,100.1358 L1438.1788,74.1358" fill="#E2E2F0" style="stroke:#181818;stroke-width:0.5;"/><path d="M1438.1788,74.1358 C1438.1788,84.1358 1456.1788,84.1358 1456.1788,84.1358 C1456.1788,84.1358 1474.1788,84.1358 1474.1788,74.1358" fill="none" style="stroke:#181818;stroke-width:0.5;"/></g><g class="participant participant-tail" data-entity-uid="part7" data-qualified-name="EVENT" data-source-line="10" id="part7-tail"><text fill="#000000" font-family="sans-serif" font-size="14" lengthAdjust="spacing" textLength="97.9996" x="1404.179" y="668.172">&#20844;&#20247;&#27963;&#21160;&#23384;&#20648;&#22120;</text><path d="M1438.1788,682.2739 C1438.1788,672.2739 1456.1788,672.2739 1456.1788,672.2739 C1456.1788,672.2739 1474.1788,672.2739 1474.1788,682.2739 L1474.1788,708.2739 C1474.1788,718.2739 1456.1788,718.2739 1456.1788,718.2739 C1456.1788,718.2739 1438.1788,718.2739 1438.1788,708.2739 L1438.1788,682.2739" fill="#E2E2F0" style="stroke:#181818;stroke-width:0.5;"/><path d="M1438.1788,682.2739 C1438.1788,692.2739 1456.1788,692.2739 1456.1788,692.2739 C1456.1788,692.2739 1474.1788,692.2739 1474.1788,682.2739" fill="none" style="stroke:#181818;stroke-width:0.5;"/></g><g class="participant participant-head" data-entity-uid="part8" data-qualified-name="DISP" data-source-line="11" id="part8-head"><rect fill="#E2E2F0" height="33.0679" rx="2.5" ry="2.5" style="stroke:#181818;stroke-width:0.5;" width="132.4675" x="1518.1786" y="95.1358"/><text fill="#000000" font-family="sans-serif" font-size="14" lengthAdjust="spacing" textLength="118.4675" x="1525.1786" y="117.1018">&#25511;&#21046;&#22120; WebSocket</text></g><g class="participant participant-tail" data-entity-uid="part8" data-qualified-name="DISP" data-source-line="11" id="part8-tail"><rect fill="#E2E2F0" height="33.0679" rx="2.5" ry="2.5" style="stroke:#181818;stroke-width:0.5;" width="132.4675" x="1518.1786" y="653.206"/><text fill="#000000" font-family="sans-serif" font-size="14" lengthAdjust="spacing" textLength="118.4675" x="1525.1786" y="675.172">&#25511;&#21046;&#22120; WebSocket</text></g><g class="participant participant-head" data-entity-uid="part9" data-qualified-name="WS" data-source-line="12" id="part9-head"><rect fill="#E2E2F0" height="33.0679" rx="2.5" ry="2.5" style="stroke:#181818;stroke-width:0.5;" width="83.9997" x="1660.6461" y="95.1358"/><text fill="#000000" font-family="sans-serif" font-size="14" lengthAdjust="spacing" textLength="69.9997" x="1667.6461" y="117.1018">&#31614;&#21517;&#23458;&#25143;&#31471;</text></g><g class="participant participant-tail" data-entity-uid="part9" data-qualified-name="WS" data-source-line="12" id="part9-tail"><rect fill="#E2E2F0" height="33.0679" rx="2.5" ry="2.5" style="stroke:#181818;stroke-width:0.5;" width="83.9997" x="1660.6461" y="653.206"/><text fill="#000000" font-family="sans-serif" font-size="14" lengthAdjust="spacing" textLength="69.9997" x="1667.6461" y="675.172">&#31614;&#21517;&#23458;&#25143;&#31471;</text></g><g class="message" data-entity-1="part1" data-entity-2="part2" data-source-line="13" id="msg1"><polygon fill="#181818" points="123.0295,158.9098,133.0295,162.9098,123.0295,166.9098,127.0295,162.9098" style="stroke:#181818;stroke-width:1;stroke-linejoin:miter;stroke-miterlimit:10;"/><line style="stroke:#181818;stroke-width:1;" x1="28.9999" x2="129.0295" y1="162.9098" y2="162.9098"/><text fill="#000000" font-family="sans-serif" font-size="13" lengthAdjust="spacing" textLength="74.5941" x="35.9999" y="157.1008">DELETE &#25991;&#20214;</text></g><path d="M140,175.9098 L140,238.9098 L694,238.9098 L694,185.9098 L684,175.9098 L140,175.9098" fill="#FEFFDD" style="stroke:#181818;stroke-width:0.5;"/><path d="M684,175.9098 L684,185.9098 L694,185.9098 L684,175.9098" fill="#FEFFDD" style="stroke:#181818;stroke-width:0.5;"/><text fill="#000000" font-family="sans-serif" font-size="13" lengthAdjust="spacing" textLength="301.2363" x="146" y="194.8068">&#31995;&#32479;&#24615; USER_FOLDER_BINDING &#36825;&#26465;&#36335;&#32447;&#19981;&#20250;&#21024;&#38500;.</text><text fill="#000000" font-family="sans-serif" font-size="13" lengthAdjust="spacing" textLength="448.2665" x="146" y="212.5128">&#25237;&#24433;: &#27963;&#36291;&#30340; USER_STREAM_BINDING + &#35268;&#33539;&#24615; STREAM.is_archived = false.</text><text fill="#000000" font-family="sans-serif" font-size="13" lengthAdjust="spacing" textLength="533.8455" x="146" y="230.2188">All chats = &#25152;&#26377;&#30340;; Personal = STREAM.private = true; Channels = STREAM.private = false.</text><g class="message" data-entity-1="part2" data-entity-2="part3" data-source-line="19" id="msg2"><polygon fill="#181818" points="392.1318,263.7338,402.1318,267.7338,392.1318,271.7338,396.1318,267.7338" style="stroke:#181818;stroke-width:1;stroke-linejoin:miter;stroke-miterlimit:10;"/><line style="stroke:#181818;stroke-width:1;" x1="135.0295" x2="398.1318" y1="267.7338" y2="267.7338"/><text fill="#000000" font-family="sans-serif" font-size="13" lengthAdjust="spacing" textLength="176.2932" x="142.0295" y="261.9248">BEGIN; &#22312;&#25351;&#23450;&#21306;&#22495;&#20013;&#38145;&#23450;&#25991;&#20214;</text></g><g class="message" data-entity-1="part2" data-entity-2="part3" data-source-line="20" id="msg3"><polygon fill="#181818" points="392.1318,295.4398,402.1318,299.4398,392.1318,303.4398,396.1318,299.4398" style="stroke:#181818;stroke-width:1;stroke-linejoin:miter;stroke-miterlimit:10;"/><line style="stroke:#181818;stroke-width:1;" x1="135.0295" x2="398.1318" y1="299.4398" y2="299.4398"/><text fill="#000000" font-family="sans-serif" font-size="13" lengthAdjust="spacing" textLength="245.1023" x="142.0295" y="293.6308">&#21024;&#38500;&#32465;&#23450;/&#20803;&#32032; + FOLDER &#36890;&#36807;&#29983;&#21629;&#21608;&#26399; FK</text></g><g class="message" data-entity-1="part2" data-entity-2="part4" data-source-line="21" id="msg4"><polygon fill="#181818" points="567.7382,327.1459,577.7382,331.1459,567.7382,335.1459,571.7382,331.1459" style="stroke:#181818;stroke-width:1;stroke-linejoin:miter;stroke-miterlimit:10;"/><line style="stroke:#181818;stroke-width:1;" x1="135.0295" x2="573.7382" y1="331.1459" y2="331.1459"/><text fill="#000000" font-family="sans-serif" font-size="13" lengthAdjust="spacing" textLength="115.2841" x="142.0295" y="325.3369">&#28155;&#21152; folder.deleted</text></g><g class="message" data-entity-1="part2" data-entity-2="part3" data-source-line="22" id="msg5"><polygon fill="#181818" points="392.1318,358.8519,402.1318,362.8519,392.1318,366.8519,396.1318,362.8519" style="stroke:#181818;stroke-width:1;stroke-linejoin:miter;stroke-miterlimit:10;"/><line style="stroke:#181818;stroke-width:1;" x1="135.0295" x2="398.1318" y1="362.8519" y2="362.8519"/><text fill="#000000" font-family="sans-serif" font-size="13" lengthAdjust="spacing" textLength="53.5861" x="142.0295" y="357.0429">COMMIT</text></g><g class="message" data-entity-1="part2" data-entity-2="part1" data-source-line="23" id="msg6"><polygon fill="#181818" points="39.9999,390.5579,29.9999,394.5579,39.9999,398.5579,35.9999,394.5579" style="stroke:#181818;stroke-width:1;stroke-linejoin:miter;stroke-miterlimit:10;"/><line style="stroke:#181818;stroke-width:1;stroke-dasharray:2,2;" x1="33.9999" x2="134.0295" y1="394.5579" y2="394.5579"/><text fill="#000000" font-family="sans-serif" font-size="13" lengthAdjust="spacing" textLength="77.6881" x="45.9999" y="388.7489">204 &#27809;&#26377;&#31572;&#26696;</text></g><g class="message" data-entity-1="part4" data-entity-2="part5" data-source-line="24" id="msg7"><polygon fill="#181818" points="1007.3225,422.2639,1017.3225,426.2639,1007.3225,430.2639,1011.3225,426.2639" style="stroke:#181818;stroke-width:1;stroke-linejoin:miter;stroke-miterlimit:10;"/><line style="stroke:#181818;stroke-width:1;" x1="579.7382" x2="1013.3225" y1="426.2639" y2="426.2639"/><text fill="#000000" font-family="sans-serif" font-size="13" lengthAdjust="spacing" textLength="415.5842" x="586.7382" y="420.4549">immutable folder_projection(outbox_event_uuid, scope=user-folder)</text></g><g class="message" data-entity-1="part5" data-entity-2="part6" data-source-line="25" id="msg8"><polygon fill="#181818" points="1255.5987,471.6759,1265.5987,475.6759,1255.5987,479.6759,1259.5987,475.6759" style="stroke:#181818;stroke-width:1;stroke-linejoin:miter;stroke-miterlimit:10;"/><line style="stroke:#181818;stroke-width:1;" x1="1019.3225" x2="1261.5987" y1="475.6759" y2="475.6759"/><text fill="#000000" font-family="sans-serif" font-size="13" lengthAdjust="spacing" textLength="224.2762" x="1026.3225" y="452.1609">claim user-folder(project,user,folder)</text><text fill="#000000" font-family="sans-serif" font-size="13" lengthAdjust="spacing" textLength="91.1951" x="1026.3225" y="469.8669">lease + fencing</text></g><path d="M277.6763,490.6759 L499.0215,490.6759 L499.0215,500.382 L489.0215,510.382 L277.6763,510.382 L277.6763,490.6759" fill="#EEEEEE" style="stroke:#000000;stroke-width:1.5;"/><rect fill="none" height="83.118" style="stroke:#000000;stroke-width:1.5;" width="1240.5023" x="277.6763" y="490.6759"/><text fill="#000000" font-family="sans-serif" font-size="13" font-weight="700" lengthAdjust="spacing" textLength="176.3452" x="292.6763" y="505.573">&#19968;&#20010; worker DB transaction</text><g class="message" data-entity-1="part6" data-entity-2="part3" data-source-line="27" id="msg9"><polygon fill="#181818" points="415.1318,530.088,405.1318,534.088,415.1318,538.088,411.1318,534.088" style="stroke:#181818;stroke-width:1;stroke-linejoin:miter;stroke-miterlimit:10;"/><line style="stroke:#181818;stroke-width:1;" x1="409.1318" x2="1266.5987" y1="534.088" y2="534.088"/><text fill="#000000" font-family="sans-serif" font-size="13" lengthAdjust="spacing" textLength="219.6742" x="421.1318" y="528.279">idempotent tombstone effect guard</text></g><g class="message" data-entity-1="part6" data-entity-2="part7" data-source-line="28" id="msg10"><polygon fill="#181818" points="1444.1788,561.794,1454.1788,565.794,1444.1788,569.794,1448.1788,565.794" style="stroke:#181818;stroke-width:1;stroke-linejoin:miter;stroke-miterlimit:10;"/><line style="stroke:#181818;stroke-width:1;" x1="1267.5987" x2="1450.1788" y1="565.794" y2="565.794"/><text fill="#000000" font-family="sans-serif" font-size="13" lengthAdjust="spacing" textLength="164.5801" x="1274.5987" y="559.985">ready folder.deleted {uuid}</text></g><g class="message" data-entity-1="part8" data-entity-2="part7" data-source-line="30" id="msg11"><polygon fill="#181818" points="1467.1788,600.5,1457.1788,604.5,1467.1788,608.5,1463.1788,604.5" style="stroke:#181818;stroke-width:1;stroke-linejoin:miter;stroke-miterlimit:10;"/><line style="stroke:#181818;stroke-width:1;" x1="1461.1788" x2="1583.4123" y1="604.5" y2="604.5"/><text fill="#000000" font-family="sans-serif" font-size="13" lengthAdjust="spacing" textLength="87.6721" x="1473.1788" y="598.691">&#38405;&#35835;/&#37325;&#22797;/&#25773;&#25918;</text></g><g class="message" data-entity-1="part8" data-entity-2="part9" data-source-line="31" id="msg12"><polygon fill="#181818" points="1690.6459,632.206,1700.6459,636.206,1690.6459,640.206,1694.6459,636.206" style="stroke:#181818;stroke-width:1;stroke-linejoin:miter;stroke-miterlimit:10;"/><line style="stroke:#181818;stroke-width:1;" x1="1584.4123" x2="1696.6459" y1="636.206" y2="636.206"/><text fill="#000000" font-family="sans-serif" font-size="13" lengthAdjust="spacing" textLength="85.9041" x="1591.4123" y="630.397">folder.deleted</text></g><?plantuml-src TLHTJnj757tVNt7BKoe8srPzCgAImPl8uhEsKruYMSFkjRrblxepIugYIhG4cQJGbfQcWAXiAYIijWvAY89ba_1dTiRsl-ZiheaCIjzsPyuzC-VSS-SZpoTbcu15rjo00RMH4OSeTCLqFE8J6sY56EuZqob3YLWK5MOo2o6ZpMe53LJYcUeZrr-X7j5HNVrKjP5ITChegoNNCj2dwkFaenW4fl6TGdJc-Z32N_mbjYww_voD0A4mRPdeC4KUo4pTz8Z3O4JyTCgttl231kIGihIbLz1UYz7fnQnY44QM2KKOMNGfA_kO_tBseNDlOJQZvM0K7kIrN37vAqvbvpFP-VjnQMPA-IR0G9Q5xHEn_nj8pSlkj_7UmeF2zQQeL_dbptpxkNZsEt_xCknq-BFZ65H8vsTktVFL1j_yCMotHQibpi_5oteCN5h8pMYveNlopN_3op_4QqdLuCrz_aD3QekXsbVQVE7_n2_XSjxLLv0bzy_c5syYkyrt_9UTctOkvPN4KRZxHUHMwhfTudarxBnH79SX-6Qvmi0jnNO2TCyxtKvDh9z-o3leNHs8Fuzx5sVTzbNOsWal3_bMlNzmCYuh4uzI8ANrBZQwXqyIXdmXfwNdtZECGk_qIMzx8peXsHetQP7uUiLSHGCcatH5V6dB0hr269MBukcwE7egEITWKMR9TOWbLmVrdc-k4gba4fWVu0HCLuZZe4K_X1YmesD0f5wHeYDpCbCfcDBkP-SdW1yrn7QLlpZassrUguMjPd_lU_axy6oe897UxUpANPLlRdHVrwMyGVRwwuUzgsfthyPtt_BTXZYgmRsPwsePCUdJXOn07PAf63VGGeR6CF_qmjnSjf2ioAMabIdux9FFGRmwZlnexedZBKMoHILH95DWsdOWeoP7Sp1kdkz-ZJepNUTE4l8YhagUU0p7WEgkXvC1HVzkWlzOYNWYlYIvAT0jOjem1Bape1oBriO6PGyT2wDyZq897Lq-4qhPTmCFmjPwsFeRehS1VIbBzeWubCGNaarE3hbMR1feUx8jCh7CjPSfSnq4B9NaOL0EY6_Sg8Zd9GK-4cFjbetmE7bbP9-LQ5Q6uFtzpTvPH-rNT_Z9ZYf-ROgzT-ynI_dKBQR_0000?></g></svg>