<svg xmlns="http://www.w3.org/2000/svg" xmlns:xlink="http://www.w3.org/1999/xlink" contentStyleType="text/css" data-diagram-type="SEQUENCE" height="488px" preserveAspectRatio="none" style="width:1170px;height:488px;background:#FFFFFF;" version="1.1" viewBox="0 0 1170 488" width="1170px" zoomAndPan="magnify"><?plantuml 1.2026.6?><defs/><g><g class="title" data-source-line="3"><text fill="#000000" font-family="sans-serif" font-size="14" font-weight="700" lengthAdjust="spacing" textLength="306.1089" x="428.4607" y="29.9659">POST /api/workspace/v1/messenger/drafts/</text></g><g class="participant-lifeline" data-entity-uid="part1" data-qualified-name="Client" data-source-line="4" id="part1-lifeline"><g><title>...</title><rect fill="#000000" fill-opacity="0.00000" height="279.6481" width="8" x="24.9999" y="124.1358"/><line style="stroke:#181818;stroke-width:0.5;stroke-dasharray:5,5;" x1="28" x2="28" y1="124.1358" y2="403.784"/></g></g><g class="participant-lifeline" data-entity-uid="part2" data-qualified-name="API" data-source-line="5" id="part2-lifeline"><g><title>... RestAlchemy</title><rect fill="#000000" fill-opacity="0.00000" height="279.6481" width="8" x="222.3161" y="124.1358"/><line style="stroke:#181818;stroke-width:0.5;stroke-dasharray:5,5;" x1="226.2864" x2="226.2864" y1="124.1358" y2="403.784"/></g></g><g class="participant-lifeline" data-entity-uid="part3" data-qualified-name="DB" data-source-line="6" id="part3-lifeline"><g><title>... PostgreSQL</title><rect fill="#000000" fill-opacity="0.00000" height="279.6481" width="8" x="386.5992" y="124.1358"/><line style="stroke:#181818;stroke-width:0.5;stroke-dasharray:5,5;" x1="390.3075" x2="390.3075" y1="124.1358" y2="403.784"/></g></g><g class="participant-lifeline" data-entity-uid="part4" data-qualified-name="OUT" data-source-line="7" id="part4-lifeline"><g><title>.... outbox</title><rect fill="#000000" fill-opacity="0.00000" height="279.6481" width="8" x="524.0418" y="124.1358"/><line style="stroke:#181818;stroke-width:0.5;stroke-dasharray:5,5;" x1="527.891" x2="527.891" y1="124.1358" y2="403.784"/></g></g><g class="participant-lifeline" data-entity-uid="part5" data-qualified-name="TASK" data-source-line="8" id="part5-lifeline"><g><title>delivery_snapshot_event</title><rect fill="#000000" fill-opacity="0.00000" height="279.6481" width="8" x="891.7491" y="124.1358"/><line style="stroke:#181818;stroke-width:0.5;stroke-dasharray:5,5;" x1="895.2095" x2="895.2095" y1="124.1358" y2="403.784"/></g></g><g class="participant participant-head" data-entity-uid="part1" data-qualified-name="Client" data-source-line="4" id="part1-head"><text fill="#000000" font-family="sans-serif" font-size="14" lengthAdjust="spacing" textLength="41.9998" x="5" y="120.0339">&#23458;&#25143;&#31471;</text><ellipse cx="28.9999" cy="53.5679" fill="#E2E2F0" rx="8" ry="8" style="stroke:#181818;stroke-width:0.5;"/><path d="M28.9999,61.5679 L28.9999,88.5679 M15.9999,69.5679 L41.9999,69.5679 M28.9999,88.5679 L15.9999,103.5679 M28.9999,88.5679 L41.9999,103.5679" fill="none" style="stroke:#181818;stroke-width:0.5;"/></g><g class="participant participant-tail" data-entity-uid="part1" data-qualified-name="Client" data-source-line="4" id="part1-tail"><text fill="#000000" font-family="sans-serif" font-size="14" lengthAdjust="spacing" textLength="41.9998" x="5" y="417.7499">&#23458;&#25143;&#31471;</text><ellipse cx="28.9999" cy="430.3519" fill="#E2E2F0" rx="8" ry="8" style="stroke:#181818;stroke-width:0.5;"/><path d="M28.9999,438.3519 L28.9999,465.3519 M15.9999,446.3519 L41.9999,446.3519 M28.9999,465.3519 L15.9999,480.3519 M28.9999,465.3519 L41.9999,480.3519" fill="none" style="stroke:#181818;stroke-width:0.5;"/></g><g class="participant participant-head" data-entity-uid="part2" data-qualified-name="API" data-source-line="5" id="part2-head"><rect fill="#E2E2F0" height="33.0679" rx="2.5" ry="2.5" style="stroke:#181818;stroke-width:0.5;" width="144.0595" x="154.2864" y="90.0679"/><text fill="#000000" font-family="sans-serif" font-size="14" lengthAdjust="spacing" textLength="130.0595" x="161.2864" y="112.0339">&#25511;&#21046;&#22120; RestAlchemy</text></g><g class="participant participant-tail" data-entity-uid="part2" data-qualified-name="API" data-source-line="5" id="part2-tail"><rect fill="#E2E2F0" height="33.0679" rx="2.5" ry="2.5" style="stroke:#181818;stroke-width:0.5;" width="144.0595" x="154.2864" y="402.784"/><text fill="#000000" font-family="sans-serif" font-size="14" lengthAdjust="spacing" textLength="130.0595" x="161.2864" y="424.7499">&#25511;&#21046;&#22120; RestAlchemy</text></g><g class="participant participant-head" data-entity-uid="part3" data-qualified-name="DB" data-source-line="6" id="part3-head"><text fill="#000000" font-family="sans-serif" font-size="14" lengthAdjust="spacing" textLength="122.5835" x="326.3075" y="120.0339">&#33609;&#31295;&#34892; PostgreSQL</text><path d="M372.5992,69.0679 C372.5992,59.0679 390.5992,59.0679 390.5992,59.0679 C390.5992,59.0679 408.5992,59.0679 408.5992,69.0679 L408.5992,95.0679 C408.5992,105.0679 390.5992,105.0679 390.5992,105.0679 C390.5992,105.0679 372.5992,105.0679 372.5992,95.0679 L372.5992,69.0679" fill="#E2E2F0" style="stroke:#181818;stroke-width:0.5;"/><path d="M372.5992,69.0679 C372.5992,79.0679 390.5992,79.0679 390.5992,79.0679 C390.5992,79.0679 408.5992,79.0679 408.5992,69.0679" fill="none" style="stroke:#181818;stroke-width:0.5;"/></g><g class="participant participant-tail" data-entity-uid="part3" data-qualified-name="DB" data-source-line="6" id="part3-tail"><text fill="#000000" font-family="sans-serif" font-size="14" lengthAdjust="spacing" textLength="122.5835" x="326.3075" y="417.7499">&#33609;&#31295;&#34892; PostgreSQL</text><path d="M372.5992,431.8519 C372.5992,421.8519 390.5992,421.8519 390.5992,421.8519 C390.5992,421.8519 408.5992,421.8519 408.5992,431.8519 L408.5992,457.8519 C408.5992,467.8519 390.5992,467.8519 390.5992,467.8519 C390.5992,467.8519 372.5992,467.8519 372.5992,457.8519 L372.5992,431.8519" fill="#E2E2F0" style="stroke:#181818;stroke-width:0.5;"/><path d="M372.5992,431.8519 C372.5992,441.8519 390.5992,441.8519 390.5992,441.8519 C390.5992,441.8519 408.5992,441.8519 408.5992,431.8519" fill="none" style="stroke:#181818;stroke-width:0.5;"/></g><g class="participant participant-head" data-entity-uid="part4" data-qualified-name="OUT" data-source-line="7" id="part4-head"><path d="M469.891,95.0679 L586.1926,95.0679 C591.1926,95.0679 591.1926,109.6019 591.1926,109.6019 C591.1926,109.6019 591.1926,124.1358 586.1926,124.1358 L469.891,124.1358 C464.891,124.1358 464.891,109.6019 464.891,109.6019 C464.891,109.6019 464.891,95.0679 469.891,95.0679" fill="#E2E2F0" style="stroke:#181818;stroke-width:0.5;"/><path d="M586.1926,95.0679 C581.1926,95.0679 581.1926,109.6019 581.1926,109.6019 C581.1926,124.1358 586.1926,124.1358 586.1926,124.1358" fill="none" style="stroke:#181818;stroke-width:0.5;"/><text fill="#000000" font-family="sans-serif" font-size="14" lengthAdjust="spacing" textLength="106.3016" x="469.891" y="115.0339">&#20869;&#37096;&#22495;&#21517; outbox</text></g><g class="participant participant-tail" data-entity-uid="part4" data-qualified-name="OUT" data-source-line="7" id="part4-tail"><path d="M469.891,402.784 L586.1926,402.784 C591.1926,402.784 591.1926,417.3179 591.1926,417.3179 C591.1926,417.3179 591.1926,431.8519 586.1926,431.8519 L469.891,431.8519 C464.891,431.8519 464.891,417.3179 464.891,417.3179 C464.891,417.3179 464.891,402.784 469.891,402.784" fill="#E2E2F0" style="stroke:#181818;stroke-width:0.5;"/><path d="M586.1926,402.784 C581.1926,402.784 581.1926,417.3179 581.1926,417.3179 C581.1926,431.8519 586.1926,431.8519 586.1926,431.8519" fill="none" style="stroke:#181818;stroke-width:0.5;"/><text fill="#000000" font-family="sans-serif" font-size="14" lengthAdjust="spacing" textLength="106.3016" x="469.891" y="422.7499">&#20869;&#37096;&#22495;&#21517; outbox</text></g><g class="participant participant-head" data-entity-uid="part5" data-qualified-name="TASK" data-source-line="8" id="part5-head"><path d="M798.2095,76 L993.2887,76 C998.2887,76 998.2887,100.0679 998.2887,100.0679 C998.2887,100.0679 998.2887,124.1358 993.2887,124.1358 L798.2095,124.1358 C793.2095,124.1358 793.2095,100.0679 793.2095,100.0679 C793.2095,100.0679 793.2095,76 798.2095,76" fill="#E2E2F0" style="stroke:#181818;stroke-width:0.5;"/><path d="M993.2887,76 C988.2887,76 988.2887,100.0679 988.2887,100.0679 C988.2887,124.1358 993.2887,124.1358 993.2887,124.1358" fill="none" style="stroke:#181818;stroke-width:0.5;"/><text fill="#000000" font-family="sans-serif" font-size="14" lengthAdjust="spacing" textLength="161.4054" x="810.0464" y="95.9659">delivery_snapshot_event</text><text fill="#000000" font-family="sans-serif" font-size="14" lengthAdjust="spacing" textLength="185.0793" x="798.2095" y="115.0339">internal/no public derivative</text></g><g class="participant participant-tail" data-entity-uid="part5" data-qualified-name="TASK" data-source-line="8" id="part5-tail"><path d="M798.2095,402.784 L993.2887,402.784 C998.2887,402.784 998.2887,426.8519 998.2887,426.8519 C998.2887,426.8519 998.2887,450.9198 993.2887,450.9198 L798.2095,450.9198 C793.2095,450.9198 793.2095,426.8519 793.2095,426.8519 C793.2095,426.8519 793.2095,402.784 798.2095,402.784" fill="#E2E2F0" style="stroke:#181818;stroke-width:0.5;"/><path d="M993.2887,402.784 C988.2887,402.784 988.2887,426.8519 988.2887,426.8519 C988.2887,450.9198 993.2887,450.9198 993.2887,450.9198" fill="none" style="stroke:#181818;stroke-width:0.5;"/><text fill="#000000" font-family="sans-serif" font-size="14" lengthAdjust="spacing" textLength="161.4054" x="810.0464" y="422.7499">delivery_snapshot_event</text><text fill="#000000" font-family="sans-serif" font-size="14" lengthAdjust="spacing" textLength="185.0793" x="798.2095" y="441.8178">internal/no public derivative</text></g><g class="message" data-entity-1="part1" data-entity-2="part2" data-source-line="9" id="msg1"><polygon fill="#181818" points="214.3161,153.8419,224.3161,157.8419,214.3161,161.8419,218.3161,157.8419" style="stroke:#181818;stroke-width:1;stroke-linejoin:miter;stroke-miterlimit:10;"/><line style="stroke:#181818;stroke-width:1;" x1="28.9999" x2="220.3161" y1="157.8419" y2="157.8419"/><text fill="#000000" font-family="sans-serif" font-size="13" lengthAdjust="spacing" textLength="95.8621" x="35.9999" y="152.0328">POST JSON &#33609;&#31295;</text></g><g class="message" data-entity-1="part2" data-entity-2="part3" data-source-line="10" id="msg2"><polygon fill="#181818" points="378.5992,185.5479,388.5992,189.5479,378.5992,193.5479,382.5992,189.5479" style="stroke:#181818;stroke-width:1;stroke-linejoin:miter;stroke-miterlimit:10;"/><line style="stroke:#181818;stroke-width:1;" x1="226.3161" x2="384.5992" y1="189.5479" y2="189.5479"/><text fill="#000000" font-family="sans-serif" font-size="13" lengthAdjust="spacing" textLength="125.4891" x="233.3161" y="183.7389">BEGIN; &#26816;&#26597;&#20027; + &#20027;&#39064;</text></g><g class="message" data-entity-1="part2" data-entity-2="part3" data-source-line="11" id="msg3"><polygon fill="#181818" points="378.5992,217.2539,388.5992,221.2539,378.5992,225.2539,382.5992,221.2539" style="stroke:#181818;stroke-width:1;stroke-linejoin:miter;stroke-miterlimit:10;"/><line style="stroke:#181818;stroke-width:1;" x1="226.3161" x2="384.5992" y1="221.2539" y2="221.2539"/><text fill="#000000" font-family="sans-serif" font-size="13" lengthAdjust="spacing" textLength="140.2831" x="233.3161" y="215.4449">&#25554;&#20837;&#25110;&#27604;&#36739;&#23458;&#25143;&#31471; UUID</text></g><g class="message" data-entity-1="part2" data-entity-2="part4" data-source-line="12" id="msg4"><polygon fill="#181818" points="516.0418,248.9599,526.0418,252.9599,516.0418,256.9599,520.0418,252.9599" style="stroke:#181818;stroke-width:1;stroke-linejoin:miter;stroke-miterlimit:10;"/><line style="stroke:#181818;stroke-width:1;" x1="226.3161" x2="522.0418" y1="252.9599" y2="252.9599"/><text fill="#000000" font-family="sans-serif" font-size="13" lengthAdjust="spacing" textLength="134.9401" x="233.3161" y="247.1509">&#22686;&#21152;&#20869;&#32622; draft.created</text></g><g class="message" data-entity-1="part2" data-entity-2="part3" data-source-line="13" id="msg5"><polygon fill="#181818" points="378.5992,280.6659,388.5992,284.6659,378.5992,288.6659,382.5992,284.6659" style="stroke:#181818;stroke-width:1;stroke-linejoin:miter;stroke-miterlimit:10;"/><line style="stroke:#181818;stroke-width:1;" x1="226.3161" x2="384.5992" y1="284.6659" y2="284.6659"/><text fill="#000000" font-family="sans-serif" font-size="13" lengthAdjust="spacing" textLength="53.5861" x="233.3161" y="278.8569">COMMIT</text></g><g class="message" data-entity-1="part4" data-entity-2="part5" data-source-line="14" id="msg6"><polygon fill="#181818" points="883.7491,312.3719,893.7491,316.3719,883.7491,320.3719,887.7491,316.3719" style="stroke:#181818;stroke-width:1;stroke-linejoin:miter;stroke-miterlimit:10;"/><line style="stroke:#181818;stroke-width:1;" x1="528.0418" x2="889.7491" y1="316.3719" y2="316.3719"/><text fill="#000000" font-family="sans-serif" font-size="13" lengthAdjust="spacing" textLength="343.7073" x="535.0418" y="310.5629">immutable delivery_snapshot_event(outbox_event_uuid)</text></g><path d="M900,329.3719 L900,356.3719 L1159,356.3719 L1159,339.3719 L1149,329.3719 L900,329.3719" fill="#FEFFDD" style="stroke:#181818;stroke-width:0.5;"/><path d="M1149,329.3719 L1149,339.3719 L1159,339.3719 L1149,329.3719" fill="#FEFFDD" style="stroke:#181818;stroke-width:0.5;"/><text fill="#000000" font-family="sans-serif" font-size="13" lengthAdjust="spacing" textLength="238.0302" x="906" y="348.2689">effect guard; &#27809;&#26377;&#23436;&#25104; public event row</text><g class="message" data-entity-1="part2" data-entity-2="part1" data-source-line="16" id="msg7"><polygon fill="#181818" points="39.9999,381.784,29.9999,385.784,39.9999,389.784,35.9999,385.784" style="stroke:#181818;stroke-width:1;stroke-linejoin:miter;stroke-miterlimit:10;"/><line style="stroke:#181818;stroke-width:1;stroke-dasharray:2,2;" x1="33.9999" x2="225.3161" y1="385.784" y2="385.784"/><text fill="#000000" font-family="sans-serif" font-size="13" lengthAdjust="spacing" textLength="173.3162" x="45.9999" y="379.975">201 &#25110;&#26159;&#20855;&#26377;&#24615;&#36136; 200 + ETag</text></g><?plantuml-src TP5HQnD158NVzrTSywI8RkjZ125fYaHj4qto9eIRtPlDqDsPTMOsCM-54acbrI8Y5SJOI6b0I4342gB-6NUJ_WidkqRwuil0t3bpvfnlheGIlG31nxw8DAY0D7Aqr0xZ8KeCG7NG5Jt6FMYZhyZIJFi4rKgj3ZQ6pEu9kQD2TCZkhji1AKNS8scx4jjQsHOwMaZ8nTDnCZoVVvhb01Li-8oujim3cZaiHAuXbxmuYuTVuxSJU4HA5todGq4_LHUgPSj5ZIrK1Bd5uVvyycjnSW1LeRGdgVRmGIeh5Qqd4KL64ZyRNEnDuj4eFZe4qwebdgQAIgE-ahZaiox9VbDn35L7w2PrJQJ7d75DagDlSm5XrFAP0ov9raLjzAbBlL2xRsKDuCQTPRfyXkDUhR8DMJpBJ9U7fM8UYfjtozkt8VcucunEVt_x3jV1h1VZuykYvEMhU72Q3DyaizUBdtl_S46ZKIwjX2P_7kBn-_Zv1rDn_cCAAUMRZYJKv5xsswXiRPNhbhcnd2mZvu45GMGecj_xJ_kh6QjiqumYvbwpkD04adaT3QBzruZQRN8qU15ArnJxV9Aysu-d1ydmQ8KiTG0fUbac4o43beTRQ-kmh7ayYmVdvbwoUxRuCZ7ZDSDbiuxU7m00?></g></svg>