<svg xmlns="http://www.w3.org/2000/svg" xmlns:xlink="http://www.w3.org/1999/xlink" contentStyleType="text/css" data-diagram-type="SEQUENCE" height="583px" preserveAspectRatio="none" style="width:1664px;height:583px;background:#FFFFFF;" version="1.1" viewBox="0 0 1664 583" width="1664px" zoomAndPan="magnify"><?plantuml 1.2026.6?><defs/><g><g class="title" data-source-line="2"><text fill="#000000" font-family="sans-serif" font-size="14" font-weight="700" lengthAdjust="spacing" textLength="549.0361" x="554.201" y="29.9659">PUT /api/workspace/v1/messenger/topic_summary_endpoints/[endpoint_uuid]</text></g><g class="participant-lifeline" data-entity-uid="part1" data-qualified-name="Client" data-source-line="3" id="part1-lifeline"><g><title>The client .</title><rect fill="#000000" fill-opacity="0.00000" height="364.4722" width="8" x="39.4548" y="129.2038"/><line style="stroke:#181818;stroke-width:0.5;stroke-dasharray:5,5;" x1="43" x2="43" y1="129.2038" y2="493.6759"/></g></g><g class="participant-lifeline" data-entity-uid="part2" data-qualified-name="API" data-source-line="4" id="part2-lifeline"><g><title>TopicSummaryEndpointController</title><rect fill="#000000" fill-opacity="0.00000" height="364.4722" width="8" x="546.0671" y="129.2038"/><line style="stroke:#181818;stroke-width:0.5;stroke-dasharray:5,5;" x1="550.0115" x2="550.0115" y1="129.2038" y2="493.6759"/></g></g><g class="participant-lifeline" data-entity-uid="part3" data-qualified-name="DB" data-source-line="5" id="part3-lifeline"><g><title>Lines of the control plane of the summary</title><rect fill="#000000" fill-opacity="0.00000" height="364.4722" width="8" x="925.6044" y="129.2038"/><line style="stroke:#181818;stroke-width:0.5;stroke-dasharray:5,5;" x1="929.0269" x2="929.0269" y1="129.2038" y2="493.6759"/></g></g><g class="participant-lifeline" data-entity-uid="part4" data-qualified-name="Outbox" data-source-line="6" id="part4-lifeline"><g><title>Transactional outbox</title><rect fill="#000000" fill-opacity="0.00000" height="364.4722" width="8" x="1187.7444" y="129.2038"/><line style="stroke:#181818;stroke-width:0.5;stroke-dasharray:5,5;" x1="1191.1818" x2="1191.1818" y1="129.2038" y2="493.6759"/></g></g><g class="participant-lifeline" data-entity-uid="part5" data-qualified-name="Worker" data-source-line="7" id="part5-lifeline"><g><title>Background player</title><rect fill="#000000" fill-opacity="0.00000" height="364.4722" width="8" x="1433.4026" y="129.2038"/><line style="stroke:#181818;stroke-width:0.5;stroke-dasharray:5,5;" x1="1437.3071" x2="1437.3071" y1="129.2038" y2="493.6759"/></g></g><g class="participant participant-head" data-entity-uid="part1" data-qualified-name="Client" data-source-line="3" id="part1-head"><text fill="#000000" font-family="sans-serif" font-size="14" lengthAdjust="spacing" textLength="70.9097" x="5" y="125.1018">The client .</text><ellipse cx="43.4548" cy="58.6358" fill="#E2E2F0" rx="8" ry="8" style="stroke:#181818;stroke-width:0.5;"/><path d="M43.4548,66.6358 L43.4548,93.6358 M30.4548,74.6358 L56.4548,74.6358 M43.4548,93.6358 L30.4548,108.6358 M43.4548,93.6358 L56.4548,108.6358" fill="none" style="stroke:#181818;stroke-width:0.5;"/></g><g class="participant participant-tail" data-entity-uid="part1" data-qualified-name="Client" data-source-line="3" id="part1-tail"><text fill="#000000" font-family="sans-serif" font-size="14" lengthAdjust="spacing" textLength="70.9097" x="5" y="507.6419">The client .</text><ellipse cx="43.4548" cy="520.2439" fill="#E2E2F0" rx="8" ry="8" style="stroke:#181818;stroke-width:0.5;"/><path d="M43.4548,528.2439 L43.4548,555.2439 M30.4548,536.2439 L56.4548,536.2439 M43.4548,555.2439 L30.4548,570.2439 M43.4548,555.2439 L56.4548,570.2439" fill="none" style="stroke:#181818;stroke-width:0.5;"/></g><g class="participant participant-head" data-entity-uid="part2" data-qualified-name="API" data-source-line="4" id="part2-head"><rect fill="#E2E2F0" height="52.1358" rx="2.5" ry="2.5" style="stroke:#181818;stroke-width:0.5;" width="238.1111" x="431.0115" y="76.0679"/><text fill="#000000" font-family="sans-serif" font-size="14" lengthAdjust="spacing" textLength="224.1111" x="438.0115" y="98.0339">TopicSummaryEndpointController</text><text fill="#000000" font-family="sans-serif" font-size="14" lengthAdjust="spacing" textLength="84.4197" x="507.8573" y="117.1018">RestAlchemy</text></g><g class="participant participant-tail" data-entity-uid="part2" data-qualified-name="API" data-source-line="4" id="part2-tail"><rect fill="#E2E2F0" height="52.1358" rx="2.5" ry="2.5" style="stroke:#181818;stroke-width:0.5;" width="238.1111" x="431.0115" y="492.6759"/><text fill="#000000" font-family="sans-serif" font-size="14" lengthAdjust="spacing" textLength="224.1111" x="438.0115" y="514.6419">TopicSummaryEndpointController</text><text fill="#000000" font-family="sans-serif" font-size="14" lengthAdjust="spacing" textLength="84.4197" x="507.8573" y="533.7098">RestAlchemy</text></g><g class="participant participant-head" data-entity-uid="part3" data-qualified-name="DB" data-source-line="5" id="part3-head"><text fill="#000000" font-family="sans-serif" font-size="14" lengthAdjust="spacing" textLength="275.1549" x="789.0269" y="106.0339">Lines of the control plane of the summary</text><text fill="#000000" font-family="sans-serif" font-size="14" lengthAdjust="spacing" textLength="187.6553" x="832.7767" y="125.1018">+ encrypted accounting data</text><path d="M911.6044,55.0679 C911.6044,45.0679 929.6044,45.0679 929.6044,45.0679 C929.6044,45.0679 947.6044,45.0679 947.6044,55.0679 L947.6044,81.0679 C947.6044,91.0679 929.6044,91.0679 929.6044,91.0679 C929.6044,91.0679 911.6044,91.0679 911.6044,81.0679 L911.6044,55.0679" fill="#E2E2F0" style="stroke:#181818;stroke-width:0.5;"/><path d="M911.6044,55.0679 C911.6044,65.0679 929.6044,65.0679 929.6044,65.0679 C929.6044,65.0679 947.6044,65.0679 947.6044,55.0679" fill="none" style="stroke:#181818;stroke-width:0.5;"/></g><g class="participant participant-tail" data-entity-uid="part3" data-qualified-name="DB" data-source-line="5" id="part3-tail"><text fill="#000000" font-family="sans-serif" font-size="14" lengthAdjust="spacing" textLength="275.1549" x="789.0269" y="507.6419">Lines of the control plane of the summary</text><text fill="#000000" font-family="sans-serif" font-size="14" lengthAdjust="spacing" textLength="187.6553" x="832.7767" y="526.7098">+ encrypted accounting data</text><path d="M911.6044,540.8118 C911.6044,530.8118 929.6044,530.8118 929.6044,530.8118 C929.6044,530.8118 947.6044,530.8118 947.6044,540.8118 L947.6044,566.8118 C947.6044,576.8118 929.6044,576.8118 929.6044,576.8118 C929.6044,576.8118 911.6044,576.8118 911.6044,566.8118 L911.6044,540.8118" fill="#E2E2F0" style="stroke:#181818;stroke-width:0.5;"/><path d="M911.6044,540.8118 C911.6044,550.8118 929.6044,550.8118 929.6044,550.8118 C929.6044,550.8118 947.6044,550.8118 947.6044,540.8118" fill="none" style="stroke:#181818;stroke-width:0.5;"/></g><g class="participant participant-head" data-entity-uid="part4" data-qualified-name="Outbox" data-source-line="6" id="part4-head"><path d="M1085.1818,81.0679 L1298.3071,81.0679 C1303.3071,81.0679 1303.3071,105.1358 1303.3071,105.1358 C1303.3071,105.1358 1303.3071,129.2038 1298.3071,129.2038 L1085.1818,129.2038 C1080.1818,129.2038 1080.1818,105.1358 1080.1818,105.1358 C1080.1818,105.1358 1080.1818,81.0679 1085.1818,81.0679" fill="#E2E2F0" style="stroke:#181818;stroke-width:0.5;"/><path d="M1298.3071,81.0679 C1293.3071,81.0679 1293.3071,105.1358 1293.3071,105.1358 C1293.3071,129.2038 1298.3071,129.2038 1298.3071,129.2038" fill="none" style="stroke:#181818;stroke-width:0.5;"/><text fill="#000000" font-family="sans-serif" font-size="14" lengthAdjust="spacing" textLength="138.9075" x="1117.2907" y="101.0339">Transactional outbox</text><text fill="#000000" font-family="sans-serif" font-size="14" lengthAdjust="spacing" textLength="203.1252" x="1085.1818" y="120.1018">1 immutable task I 'm on event</text></g><g class="participant participant-tail" data-entity-uid="part4" data-qualified-name="Outbox" data-source-line="6" id="part4-tail"><path d="M1085.1818,492.6759 L1298.3071,492.6759 C1303.3071,492.6759 1303.3071,516.7439 1303.3071,516.7439 C1303.3071,516.7439 1303.3071,540.8118 1298.3071,540.8118 L1085.1818,540.8118 C1080.1818,540.8118 1080.1818,516.7439 1080.1818,516.7439 C1080.1818,516.7439 1080.1818,492.6759 1085.1818,492.6759" fill="#E2E2F0" style="stroke:#181818;stroke-width:0.5;"/><path d="M1298.3071,492.6759 C1293.3071,492.6759 1293.3071,516.7439 1293.3071,516.7439 C1293.3071,540.8118 1298.3071,540.8118 1298.3071,540.8118" fill="none" style="stroke:#181818;stroke-width:0.5;"/><text fill="#000000" font-family="sans-serif" font-size="14" lengthAdjust="spacing" textLength="138.9075" x="1117.2907" y="512.6419">Transactional outbox</text><text fill="#000000" font-family="sans-serif" font-size="14" lengthAdjust="spacing" textLength="203.1252" x="1085.1818" y="531.7098">1 immutable task I 'm on event</text></g><g class="participant participant-head" data-entity-uid="part5" data-qualified-name="Worker" data-source-line="7" id="part5-head"><rect fill="#E2E2F0" height="52.1358" rx="2.5" ry="2.5" style="stroke:#181818;stroke-width:0.5;" width="248.1911" x="1313.3071" y="76.0679"/><text fill="#000000" font-family="sans-serif" font-size="14" lengthAdjust="spacing" textLength="124.4595" x="1375.1728" y="98.0339">Background player</text><text fill="#000000" font-family="sans-serif" font-size="14" lengthAdjust="spacing" textLength="234.1911" x="1320.3071" y="117.1018">The control plane of the summaries</text></g><g class="participant participant-tail" data-entity-uid="part5" data-qualified-name="Worker" data-source-line="7" id="part5-tail"><rect fill="#E2E2F0" height="52.1358" rx="2.5" ry="2.5" style="stroke:#181818;stroke-width:0.5;" width="248.1911" x="1313.3071" y="492.6759"/><text fill="#000000" font-family="sans-serif" font-size="14" lengthAdjust="spacing" textLength="124.4595" x="1375.1728" y="514.6419">Background player</text><text fill="#000000" font-family="sans-serif" font-size="14" lengthAdjust="spacing" textLength="234.1911" x="1320.3071" y="533.7098">The control plane of the summaries</text></g><g class="message" data-entity-1="part1" data-entity-2="part2" data-source-line="8" id="msg1"><polygon fill="#181818" points="538.0671,158.9098,548.0671,162.9098,538.0671,166.9098,542.0671,162.9098" style="stroke:#181818;stroke-width:1;stroke-linejoin:miter;stroke-miterlimit:10;"/><line style="stroke:#181818;stroke-width:1;" x1="43.4548" x2="544.0671" y1="162.9098" y2="162.9098"/><text fill="#000000" font-family="sans-serif" font-size="13" lengthAdjust="spacing" textLength="482.6122" x="50.4548" y="157.1008">PUT /api/workspace/v1/messenger/topic_summary_endpoints/{endpoint_uuid}</text></g><g class="message" data-entity-1="part2" data-entity-2="part3" data-source-line="9" id="msg2"><polygon fill="#181818" points="917.6044,190.6158,927.6044,194.6158,917.6044,198.6158,921.6044,194.6158" style="stroke:#181818;stroke-width:1;stroke-linejoin:miter;stroke-miterlimit:10;"/><line style="stroke:#181818;stroke-width:1;" x1="550.0671" x2="923.6044" y1="194.6158" y2="194.6158"/><text fill="#000000" font-family="sans-serif" font-size="13" lengthAdjust="spacing" textLength="299.6503" x="557.0671" y="188.8068">The start of the transaction; Permission + change</text></g><g class="message" data-entity-1="part2" data-entity-2="part3" data-source-line="10" id="msg3"><polygon fill="#181818" points="917.6044,222.3218,927.6044,226.3218,917.6044,230.3218,921.6044,226.3218" style="stroke:#181818;stroke-width:1;stroke-linejoin:miter;stroke-miterlimit:10;"/><line style="stroke:#181818;stroke-width:1;" x1="550.0671" x2="923.6044" y1="226.3218" y2="226.3218"/><text fill="#000000" font-family="sans-serif" font-size="13" lengthAdjust="spacing" textLength="355.5373" x="557.0671" y="220.5128">Add an unchanged internal record to transactional outbox</text></g><g class="message" data-entity-1="part3" data-entity-2="part2" data-source-line="11" id="msg4"><polygon fill="#181818" points="561.0671,254.0278,551.0671,258.0278,561.0671,262.0278,557.0671,258.0278" style="stroke:#181818;stroke-width:1;stroke-linejoin:miter;stroke-miterlimit:10;"/><line style="stroke:#181818;stroke-width:1;stroke-dasharray:2,2;" x1="555.0671" x2="928.6044" y1="258.0278" y2="258.0278"/><text fill="#000000" font-family="sans-serif" font-size="13" lengthAdjust="spacing" textLength="142.4281" x="567.0671" y="252.2188">fixing the purified state</text></g><g class="message" data-entity-1="part2" data-entity-2="part1" data-source-line="12" id="msg5"><polygon fill="#181818" points="54.4548,285.7338,44.4548,289.7338,54.4548,293.7338,50.4548,289.7338" style="stroke:#181818;stroke-width:1;stroke-linejoin:miter;stroke-miterlimit:10;"/><line style="stroke:#181818;stroke-width:1;stroke-dasharray:2,2;" x1="48.4548" x2="549.0671" y1="289.7338" y2="289.7338"/><text fill="#000000" font-family="sans-serif" font-size="13" lengthAdjust="spacing" textLength="174.1872" x="60.4548" y="283.9248">A successful public response</text></g><g class="message" data-entity-1="part3" data-entity-2="part4" data-source-line="13" id="msg6"><line style="stroke:#181818;stroke-width:1;" x1="1189.7444" x2="1179.7444" y1="321.4398" y2="317.4398"/><line style="stroke:#181818;stroke-width:1;" x1="1189.7444" x2="1179.7444" y1="321.4398" y2="325.4398"/><line style="stroke:#181818;stroke-width:1;" x1="929.6044" x2="1190.7444" y1="321.4398" y2="321.4398"/><text fill="#000000" font-family="sans-serif" font-size="13" lengthAdjust="spacing" textLength="129.3631" x="936.6044" y="315.6308">the recording is fixed</text></g><g class="message" data-entity-1="part4" data-entity-2="part5" data-source-line="14" id="msg7"><line style="stroke:#181818;stroke-width:1;" x1="1435.4026" x2="1425.4026" y1="370.8519" y2="366.8519"/><line style="stroke:#181818;stroke-width:1;" x1="1435.4026" x2="1425.4026" y1="370.8519" y2="374.8519"/><line style="stroke:#181818;stroke-width:1;" x1="1191.7444" x2="1436.4026" y1="370.8519" y2="370.8519"/><text fill="#000000" font-family="sans-serif" font-size="13" lengthAdjust="spacing" textLength="219.6222" x="1198.7444" y="347.3369">immutable delivery_snapshot_event</text><text fill="#000000" font-family="sans-serif" font-size="13" lengthAdjust="spacing" textLength="216.9572" x="1198.7444" y="365.0429">(outbox_event_uuid, registry scope)</text></g><g class="message" data-entity-1="part5" data-entity-2="part3" data-source-line="15" id="msg8"><polygon fill="#181818" points="940.6044,398.5579,930.6044,402.5579,940.6044,406.5579,936.6044,402.5579" style="stroke:#181818;stroke-width:1;stroke-linejoin:miter;stroke-miterlimit:10;"/><line style="stroke:#181818;stroke-width:1;" x1="934.6044" x2="1436.4026" y1="402.5579" y2="402.5579"/><text fill="#000000" font-family="sans-serif" font-size="13" lengthAdjust="spacing" textLength="260.3903" x="946.6044" y="396.7489">apply the current state of planning/leasing</text></g><path d="M1220,415.5579 L1220,478.5579 L1653,478.5579 L1653,425.5579 L1643,415.5579 L1220,415.5579" fill="#FEFFDD" style="stroke:#181818;stroke-width:0.5;"/><path d="M1643,415.5579 L1643,425.5579 L1653,425.5579 L1643,415.5579" fill="#FEFFDD" style="stroke:#181818;stroke-width:0.5;"/><text fill="#000000" font-family="sans-serif" font-size="13" lengthAdjust="spacing" textLength="170.7162" x="1226" y="434.4549">There is no public event line</text><text fill="#000000" font-family="sans-serif" font-size="13" lengthAdjust="spacing" textLength="212.8882" x="1226" y="452.1609">There 's no dispatcher . WebSocket</text><text fill="#000000" font-family="sans-serif" font-size="13" lengthAdjust="spacing" textLength="412.4382" x="1226" y="469.8669">The topic tasks remain exclusive and go from new posts to old ones</text><?plantuml-src dLDBRnCn4BxlhnXoAQYqgrw3LAbfELH2eg91FH0KJRoJn8ftR3nssnNYlpFsPg6zSE2qZ_5-pzat8UAkHt0u-9n0Uah8s2IR7C7TroMq66pxvED10Xfg7o_QdaI8TnJRv8CrQybzZt5O4tV1MqxIVfjkrpdRxdk39la8i-MUm3XBdE1y1YXmNH-QW35POmFgOBOicFSZvCSZpBNd5Brp55VyXIHTEREdVgWOLtUtJOS9DoW4iq-MIS1l8HMkyJC83fccbqUrApu5OXE7aAW3DCPdJfPtKB0gyCsY-P4fA-Wo8ejwi9xHWSQqySyhlW3Rzrc9DQY4Se1REEd1Cz2ZcgeGd-lHr_uMQ0wxg6nTqJKKIyj_QxKa5Ur1Iw3OZA71sMMnFl_lZdw-wkXNes05ysOnXw97aegUTAI_0No0Eugz5T5xE0MpHsLv-V5Lft4oP1v77IW5nH9S9EDZ1yc_nFiJQ7EpWBF9rDO-bouATyZHRgtYgA9qPD9ZOmfAfo4PeswtMSFB6sUD4admB5GXBo-FDSmht2YYW5ifDDGruxYU72EUlsYs8sSVIPCJnY1xdzQrtXM_7MMFZpN3zmg-ivBY069ye7VD23SbWo6uOLpC76Ffi5eg8PVMMKMrZb3qsh0l0oMUMjTE8XNDx2URbHcSRlnnUbAddTKjIFg3H3Y71zhSUtEWL8v0tOMwhA9QUxIwhC_6PL6BMbe7Em_Rw7jWUeBW9KbfoxjErvgaqOs18kmt?></g></svg>