<svg xmlns="http://www.w3.org/2000/svg" xmlns:xlink="http://www.w3.org/1999/xlink" contentStyleType="text/css" data-diagram-type="SEQUENCE" height="475px" preserveAspectRatio="none" style="width:893px;height:475px;background:#FFFFFF;" version="1.1" viewBox="0 0 893 475" width="893px" zoomAndPan="magnify"><?plantuml 1.2026.6?><defs/><g><g class="title" data-source-line="3"><text fill="#000000" font-family="sans-serif" font-size="14" font-weight="700" lengthAdjust="spacing" textLength="355.1367" x="265.8679" y="29.9659">GET /api/workspace/v1/messenger/server_settings</text></g><g class="participant-lifeline" data-entity-uid="part1" data-qualified-name="Client" data-source-line="4" id="part1-lifeline"><g><title>Der Client</title><rect fill="#000000" fill-opacity="0.00000" height="265.9421" width="8" x="36.6059" y="124.1358"/><line style="stroke:#181818;stroke-width:0.5;stroke-dasharray:5,5;" x1="40" x2="40" y1="124.1358" y2="390.0779"/></g></g><g class="participant-lifeline" data-entity-uid="part2" data-qualified-name="API" data-source-line="5" id="part2-lifeline"><g><title>ServerSettingsMiddleware</title><rect fill="#000000" fill-opacity="0.00000" height="265.9421" width="8" x="370.812" y="124.1358"/><line style="stroke:#181818;stroke-width:0.5;stroke-dasharray:5,5;" x1="374.3134" x2="374.3134" y1="124.1358" y2="390.0779"/></g></g><g class="participant participant-head" data-entity-uid="part1" data-qualified-name="Client" data-source-line="4" id="part1-head"><text fill="#000000" font-family="sans-serif" font-size="14" lengthAdjust="spacing" textLength="65.2117" x="5" y="120.0339">Der Client</text><ellipse cx="40.6059" cy="53.5679" fill="#E2E2F0" rx="8" ry="8" style="stroke:#181818;stroke-width:0.5;"/><path d="M40.6059,61.5679 L40.6059,88.5679 M27.6059,69.5679 L53.6059,69.5679 M40.6059,88.5679 L27.6059,103.5679 M40.6059,88.5679 L53.6059,103.5679" fill="none" style="stroke:#181818;stroke-width:0.5;"/></g><g class="participant participant-tail" data-entity-uid="part1" data-qualified-name="Client" data-source-line="4" id="part1-tail"><text fill="#000000" font-family="sans-serif" font-size="14" lengthAdjust="spacing" textLength="65.2117" x="5" y="404.0439">Der Client</text><ellipse cx="40.6059" cy="416.6459" fill="#E2E2F0" rx="8" ry="8" style="stroke:#181818;stroke-width:0.5;"/><path d="M40.6059,424.6459 L40.6059,451.6459 M27.6059,432.6459 L53.6059,432.6459 M40.6059,451.6459 L27.6059,466.6459 M40.6059,451.6459 L53.6059,466.6459" fill="none" style="stroke:#181818;stroke-width:0.5;"/></g><g class="participant participant-head" data-entity-uid="part2" data-qualified-name="API" data-source-line="5" id="part2-head"><rect fill="#E2E2F0" height="33.0679" rx="2.5" ry="2.5" style="stroke:#181818;stroke-width:0.5;" width="186.9973" x="281.3134" y="90.0679"/><text fill="#000000" font-family="sans-serif" font-size="14" lengthAdjust="spacing" textLength="172.9973" x="288.3134" y="112.0339">ServerSettingsMiddleware</text></g><g class="participant participant-tail" data-entity-uid="part2" data-qualified-name="API" data-source-line="5" id="part2-tail"><rect fill="#E2E2F0" height="33.0679" rx="2.5" ry="2.5" style="stroke:#181818;stroke-width:0.5;" width="186.9973" x="281.3134" y="389.0779"/><text fill="#000000" font-family="sans-serif" font-size="14" lengthAdjust="spacing" textLength="172.9973" x="288.3134" y="411.0439">ServerSettingsMiddleware</text></g><g class="message" data-entity-1="part1" data-entity-2="part2" data-source-line="6" id="msg1"><polygon fill="#181818" points="362.812,153.8419,372.812,157.8419,362.812,161.8419,366.812,157.8419" style="stroke:#181818;stroke-width:1;stroke-linejoin:miter;stroke-miterlimit:10;"/><line style="stroke:#181818;stroke-width:1;" x1="40.6059" x2="368.812" y1="157.8419" y2="157.8419"/><text fill="#000000" font-family="sans-serif" font-size="13" lengthAdjust="spacing" textLength="310.2062" x="47.6059" y="152.0328">GET /api/workspace/v1/messenger/server_settings</text></g><g class="message" data-entity-1="part2" data-entity-2="part2" data-source-line="7" id="msg2"><line style="stroke:#181818;stroke-width:1;" x1="374.812" x2="416.812" y1="189.5479" y2="189.5479"/><line style="stroke:#181818;stroke-width:1;" x1="416.812" x2="416.812" y1="189.5479" y2="202.5479"/><line style="stroke:#181818;stroke-width:1;" x1="375.812" x2="416.812" y1="202.5479" y2="202.5479"/><polygon fill="#181818" points="385.812,198.5479,375.812,202.5479,385.812,206.5479,381.812,202.5479" style="stroke:#181818;stroke-width:1;stroke-linejoin:miter;stroke-miterlimit:10;"/><text fill="#000000" font-family="sans-serif" font-size="13" lengthAdjust="spacing" textLength="222.3262" x="381.812" y="183.7389">Normalisieren und berechnen realm</text></g><path d="M379,215.5479 L379,260.5479 L882,260.5479 L882,225.5479 L872,215.5479 L379,215.5479" fill="#FEFFDD" style="stroke:#181818;stroke-width:0.5;"/><path d="M872,215.5479 L872,225.5479 L882,225.5479 L872,215.5479" fill="#FEFFDD" style="stroke:#181818;stroke-width:0.5;"/><text fill="#000000" font-family="sans-serif" font-size="13" lengthAdjust="spacing" textLength="283.3483" x="385" y="234.4449">Der Kanonische Endpunkt ist oben angegeben</text><text fill="#000000" font-family="sans-serif" font-size="13" lengthAdjust="spacing" textLength="482.8724" x="385" y="252.1509">Beendet / wird mit derselben Operation angenommen: 200 ohne Weiterleitung</text><g class="message" data-entity-1="part2" data-entity-2="part2" data-source-line="12" id="msg3"><line style="stroke:#181818;stroke-width:1;" x1="374.812" x2="416.812" y1="289.6659" y2="289.6659"/><line style="stroke:#181818;stroke-width:1;" x1="416.812" x2="416.812" y1="289.6659" y2="302.6659"/><line style="stroke:#181818;stroke-width:1;" x1="375.812" x2="416.812" y1="302.6659" y2="302.6659"/><polygon fill="#181818" points="385.812,298.6659,375.812,302.6659,385.812,306.6659,381.812,302.6659" style="stroke:#181818;stroke-width:1;stroke-linejoin:miter;stroke-miterlimit:10;"/><text fill="#000000" font-family="sans-serif" font-size="13" lengthAdjust="spacing" textLength="224.7702" x="381.812" y="283.8569">Feststehende Einstellungen erstellen</text></g><path d="M379,315.6659 L379,342.6659 L710,342.6659 L710,325.6659 L700,315.6659 L379,315.6659" fill="#FEFFDD" style="stroke:#181818;stroke-width:0.5;"/><path d="M700,315.6659 L700,325.6659 L710,325.6659 L700,315.6659" fill="#FEFFDD" style="stroke:#181818;stroke-width:0.5;"/><text fill="#000000" font-family="sans-serif" font-size="13" lengthAdjust="spacing" textLength="310.5053" x="385" y="334.5629">Anonym; ohne DB / outbox / Aufgaben / Ereignisse</text><g class="message" data-entity-1="part2" data-entity-2="part1" data-source-line="14" id="msg4"><polygon fill="#181818" points="51.6059,368.0779,41.6059,372.0779,51.6059,376.0779,47.6059,372.0779" style="stroke:#181818;stroke-width:1;stroke-linejoin:miter;stroke-miterlimit:10;"/><line style="stroke:#181818;stroke-width:1;stroke-dasharray:2,2;" x1="45.6059" x2="373.812" y1="372.0779" y2="372.0779"/><text fill="#000000" font-family="sans-serif" font-size="13" lengthAdjust="spacing" textLength="142.7921" x="57.6059" y="366.2689">200 JSON Einstellungen</text></g><?plantuml-src bP5FQ-D03CNl_XJQt8kxFQPGIBVPqfR-WHHwN1HRiKLcD4QIc_RRLux3GjdJNeOdq9lVUpC_1iKk8oJyBAE3PN8Kh6pFCg1Y1kknBGUM3dQOZ2fdJmItwrUeSU3wK7Hl0pPKl_-iCvcHTAIraRwJ_Z5o3wjLs7XHMDoGmg_49Bu0j9Ei0kJSy83YiDWSdPkJyP7RDj41bOw6rSjTDPlWx6gQbl-T94n_lKz5CoOs9YM1KLhOXcfwYKa9KwwaE85orpkKtH4FC9LuG2d2rlG4Qsc7KVOERB6q3Ii6kADGiNnD92qvr71WRI6pGqjgbAR5vu4KdSjiaP8poH8kpi-XH0Pu8tRI5ESeNHNtm1JdMuFVP6vE_GI1DKlebCRfCWZAD4IAVqeiOHNnF_FbpBcvZdZn-zlo4M8rxZgSqjMmLk8kQje96jJvzUUGzvldf-_GBm00?></g></svg>